  0
SECTION
  2
HEADER
  9
$ACADVER
  1
AC1014
  9
$HANDSEED
  5
FFFF
  9
$INSUNITS
 70
     4
  9
$MEASUREMENT
 70
     1
  0
ENDSEC
  0
SECTION
  2
TABLES
  0
TABLE
  2
VPORT
  5
8
330
0
100
AcDbSymbolTable
 70
     4
  0
VPORT
  5
2E
330
8
100
AcDbSymbolTableRecord
100
AcDbViewportTableRecord
  2
*ACTIVE
 70
     0
 10
0.0
 20
0.0
 11
1.0
 21
1.0
 12
210.0
 22
148.5
 13
0.0
 23
0.0
 14
10.0
 24
10.0
 15
10.0
 25
10.0
 16
0.0
 26
0.0
 36
1.0
 17
0.0
 27
0.0
 37
0.0
 40
341.0
 41
1.24
 42
50.0
 43
0.0
 44
0.0
 50
0.0
 51
0.0
 71
     0
 72
   100
 73
     1
 74
     3
 75
     0
 76
     0
 77
     0
 78
     0
  0
ENDTAB
  0
TABLE
  2
LTYPE
  5
5
330
0
100
AcDbSymbolTable
 70
     1
  0
LTYPE
  5
14
330
5
100
AcDbSymbolTableRecord
100
AcDbLinetypeTableRecord
  2
BYBLOCK
 70
     0
  3

 72
    65
 73
     0
 40
0.0
  0
LTYPE
  5
15
330
5
100
AcDbSymbolTableRecord
100
AcDbLinetypeTableRecord
  2
BYLAYER
 70
     0
  3

 72
    65
 73
     0
 40
0.0
  0
LTYPE
  5
16
330
5
100
AcDbSymbolTableRecord
100
AcDbLinetypeTableRecord
  2
CONTINUOUS
 70
     0
  3
Solid line
 72
    65
 73
     0
 40
0.0
  0
ENDTAB
  0
TABLE
  2
LAYER
  5
2
100
AcDbSymbolTable
 70
4
  0
LAYER
  5
50
100
AcDbSymbolTableRecord
100
AcDbLayerTableRecord
  2
0
 70
0
  6
CONTINUOUS
  0
LAYER
  5
51
100
AcDbSymbolTableRecord
100
AcDbLayerTableRecord
  2
Background
 70
0
  6
CONTINUOUS
  0
LAYER
  5
52
100
AcDbSymbolTableRecord
100
AcDbLayerTableRecord
  2
Text
 70
0
  6
CONTINUOUS
  0
LAYER
  5
53
100
AcDbSymbolTableRecord
100
AcDbLayerTableRecord
  2
Lights
 70
0
  6
CONTINUOUS
  0
ENDTAB
  0
TABLE
  2
STYLE
  5
3
330
0
100
AcDbSymbolTable
 70
     1
  0
STYLE
  5
11
330
3
100
AcDbSymbolTableRecord
100
AcDbTextStyleTableRecord
  2
STANDARD
 70
     0
 40
0.0
 41
1.0
 50
0.0
 71
     0
 42
2.5
  3
txt
  4

  0
ENDTAB
  0
TABLE
  2
VIEW
  5
6
330
0
100
AcDbSymbolTable
 70
     0
  0
ENDTAB
  0
TABLE
  2
UCS
  5
7
330
0
100
AcDbSymbolTable
 70
     0
  0
ENDTAB
  0
TABLE
  2
APPID
  5
9
330
0
100
AcDbSymbolTable
 70
     2
  0
APPID
  5
12
330
9
100
AcDbSymbolTableRecord
100
AcDbRegAppTableRecord
  2
ACAD
 70
     0
  0
ENDTAB
  0
TABLE
  2
DIMSTYLE
  5
A
330
0
100
AcDbSymbolTable
 70
     1
  0
DIMSTYLE
105
27
330
A
100
AcDbSymbolTableRecord
100
AcDbDimStyleTableRecord
  2
ISO-25
 70
     0
  3

  4

  5

  6

  7

 40
1.0
 41
2.5
 42
0.625
 43
3.75
 44
1.25
 45
0.0
 46
0.0
 47
0.0
 48
0.0
140
2.5
141
2.5
142
0.0
143
0.03937007874016
144
1.0
145
0.0
146
1.0
147
0.625
 71
     0
 72
     0
 73
     0
 74
     0
 75
     0
 76
     0
 77
     1
 78
     8
170
     0
171
     3
172
     1
173
     0
174
     0
175
     0
176
     0
177
     0
178
     0
270
     2
271
     2
272
     2
273
     2
274
     3
340
11
275
     0
280
     0
281
     0
282
     0
283
     0
284
     8
285
     0
286
     0
287
     3
288
     0
  0
ENDTAB
  0
TABLE
  2
BLOCK_RECORD
  5
1
330
0
100
AcDbSymbolTable
 70
     1
  0
BLOCK_RECORD
  5
1F
330
1
100
AcDbSymbolTableRecord
100
AcDbBlockTableRecord
  2
*MODEL_SPACE
  0
BLOCK_RECORD
  5
1B
330
1
100
AcDbSymbolTableRecord
100
AcDbBlockTableRecord
  2
*PAPER_SPACE
  0
ENDTAB
  0
ENDSEC
  0
SECTION
  2
BLOCKS
  0
BLOCK
  5
20
330
1F
100
AcDbEntity
  8
0
100
AcDbBlockBegin
  2
*MODEL_SPACE
 70
     0
 10
0.0
 20
0.0
 30
0.0
  3
*MODEL_SPACE
  1

  0
ENDBLK
  5
21
330
1F
100
AcDbEntity
  8
0
100
AcDbBlockEnd
  0
BLOCK
  5
1C
330
1B
100
AcDbEntity
 67
     1
  8
0
100
AcDbBlockBegin
  2
*PAPER_SPACE
  1

  0
ENDBLK
  5
1D
330
1B
100
AcDbEntity
 67
     1
  8
0
100
AcDbBlockEnd
  0
ENDSEC
  0
SECTION
  2
ENTITIES
  0
SPLINE
  5
100
100
AcDbEntity
  8
Background
 62
7
100
AcDbSpline
 70
8
 71
3
 72
8
 73
4
 74
0
 40
0
 40
0
 40
0
 40
0
 40
1
 40
1
 40
1
 40
1
 10
-2.459108
 20
1.783530
 30
0.0
 10
-2.617823
 20
1.782404
 30
0.0
 10
-2.782636
 20
1.736248
 30
0.0
 10
-2.913171
 20
1.652579
 30
0.0
  0
SPLINE
  5
101
100
AcDbEntity
  8
Background
 62
7
100
AcDbSpline
 70
8
 71
3
 72
8
 73
4
 74
0
 40
0
 40
0
 40
0
 40
0
 40
1
 40
1
 40
1
 40
1
 10
-2.913171
 20
1.652579
 30
0.0
 10
-3.078074
 20
1.550295
 30
0.0
 10
-3.190292
 20
1.372687
 30
0.0
 10
-3.219282
 20
1.181570
 30
0.0
  0
SPLINE
  5
102
100
AcDbEntity
  8
Background
 62
7
100
AcDbSpline
 70
8
 71
3
 72
8
 73
4
 74
0
 40
0
 40
0
 40
0
 40
0
 40
1
 40
1
 40
1
 40
1
 10
-3.219282
 20
1.181570
 30
0.0
 10
-3.244942
 20
1.024094
 30
0.0
 10
-3.219247
 20
0.857107
 30
0.0
 10
-3.139165
 20
0.718309
 30
0.0
  0
SPLINE
  5
103
100
AcDbEntity
  8
Background
 62
7
100
AcDbSpline
 70
8
 71
3
 72
8
 73
4
 74
0
 40
0
 40
0
 40
0
 40
0
 40
1
 40
1
 40
1
 40
1
 10
-3.139165
 20
0.718309
 30
0.0
 10
-3.111861
 20
0.671215
 30
0.0
 10
-3.073907
 20
0.621491
 30
0.0
 10
-3.032204
 20
0.581897
 30
0.0
  0
SPLINE
  5
104
100
AcDbEntity
  8
Background
 62
7
100
AcDbSpline
 70
8
 71
3
 72
8
 73
4
 74
0
 40
0
 40
0
 40
0
 40
0
 40
1
 40
1
 40
1
 40
1
 10
-3.032204
 20
0.581897
 30
0.0
 10
-2.993665
 20
0.552259
 30
0.0
 10
-2.986179
 20
0.494498
 30
0.0
 10
-3.014519
 20
0.455406
 30
0.0
  0
SPLINE
  5
105
100
AcDbEntity
  8
Background
 62
7
100
AcDbSpline
 70
8
 71
3
 72
8
 73
4
 74
0
 40
0
 40
0
 40
0
 40
0
 40
1
 40
1
 40
1
 40
1
 10
-3.014519
 20
0.455406
 30
0.0
 10
-3.037089
 20
0.417246
 30
0.0
 10
-3.084109
 20
0.410118
 30
0.0
 10
-3.115005
 20
0.381260
 30
0.0
  0
SPLINE
  5
106
100
AcDbEntity
  8
Background
 62
7
100
AcDbSpline
 70
8
 71
3
 72
8
 73
4
 74
0
 40
0
 40
0
 40
0
 40
0
 40
1
 40
1
 40
1
 40
1
 10
-3.115005
 20
0.381260
 30
0.0
 10
-3.313082
 20
0.233083
 30
0.0
 10
-3.427327
 20
-0.016823
 30
0.0
 10
-3.416847
 20
-0.261921
 30
0.0
  0
SPLINE
  5
107
100
AcDbEntity
  8
Background
 62
7
100
AcDbSpline
 70
8
 71
3
 72
8
 73
4
 74
0
 40
0
 40
0
 40
0
 40
0
 40
1
 40
1
 40
1
 40
1
 10
-3.416847
 20
-0.261921
 30
0.0
 10
-3.408929
 20
-0.511122
 30
0.0
 10
-3.280369
 20
-0.759937
 30
0.0
 10
-3.064198
 20
-0.890199
 30
0.0
  0
SPLINE
  5
108
100
AcDbEntity
  8
Background
 62
7
100
AcDbSpline
 70
8
 71
3
 72
8
 73
4
 74
0
 40
0
 40
0
 40
0
 40
0
 40
1
 40
1
 40
1
 40
1
 10
-3.064198
 20
-0.890199
 30
0.0
 10
-2.853454
 20
-1.022841
 30
0.0
 10
-2.584702
 20
-1.052050
 30
0.0
 10
-2.348206
 20
-0.995031
 30
0.0
  0
SPLINE
  5
109
100
AcDbEntity
  8
Background
 62
7
100
AcDbSpline
 70
8
 71
3
 72
8
 73
4
 74
0
 40
0
 40
0
 40
0
 40
0
 40
1
 40
1
 40
1
 40
1
 10
-2.348206
 20
-0.995031
 30
0.0
 10
-2.121949
 20
-0.940240
 30
0.0
 10
-1.918500
 20
-0.801331
 30
0.0
 10
-1.781748
 20
-0.613470
 30
0.0
  0
SPLINE
  5
10a
100
AcDbEntity
  8
Background
 62
7
100
AcDbSpline
 70
8
 71
3
 72
8
 73
4
 74
0
 40
0
 40
0
 40
0
 40
0
 40
1
 40
1
 40
1
 40
1
 10
-1.781748
 20
-0.613470
 30
0.0
 10
-1.759967
 20
-0.580593
 30
0.0
 10
-1.712493
 20
-0.572384
 30
0.0
 10
-1.682164
 20
-0.598359
 30
0.0
  0
SPLINE
  5
10b
100
AcDbEntity
  8
Background
 62
7
100
AcDbSpline
 70
8
 71
3
 72
8
 73
4
 74
0
 40
0
 40
0
 40
0
 40
0
 40
1
 40
1
 40
1
 40
1
 10
-1.682164
 20
-0.598359
 30
0.0
 10
-1.643084
 20
-0.633319
 30
0.0
 10
-1.609364
 20
-0.675094
 30
0.0
 10
-1.562477
 20
-0.700719
 30
0.0
  0
SPLINE
  5
10c
100
AcDbEntity
  8
Background
 62
7
100
AcDbSpline
 70
8
 71
3
 72
8
 73
4
 74
0
 40
0
 40
0
 40
0
 40
0
 40
1
 40
1
 40
1
 40
1
 10
-1.562477
 20
-0.700719
 30
0.0
 10
-1.490917
 20
-0.744909
 30
0.0
 10
-1.405737
 20
-0.768936
 30
0.0
 10
-1.321451
 20
-0.762222
 30
0.0
  0
SPLINE
  5
10d
100
AcDbEntity
  8
Background
 62
7
100
AcDbSpline
 70
8
 71
3
 72
8
 73
4
 74
0
 40
0
 40
0
 40
0
 40
0
 40
1
 40
1
 40
1
 40
1
 10
-1.321451
 20
-0.762222
 30
0.0
 10
-1.203061
 20
-0.656107
 30
0.0
 10
-1.110693
 20
-0.525616
 30
0.0
 10
-1.016487
 20
-0.398587
 30
0.0
  0
SPLINE
  5
10e
100
AcDbEntity
  8
Background
 62
7
100
AcDbSpline
 70
8
 71
3
 72
8
 73
4
 74
0
 40
0
 40
0
 40
0
 40
0
 40
1
 40
1
 40
1
 40
1
 10
-1.016487
 20
-0.398587
 30
0.0
 10
-0.969066
 20
-0.518718
 30
0.0
 10
-0.905250
 20
-0.641218
 30
0.0
 10
-0.792492
 20
-0.712069
 30
0.0
  0
SPLINE
  5
10f
100
AcDbEntity
  8
Background
 62
7
100
AcDbSpline
 70
8
 71
3
 72
8
 73
4
 74
0
 40
0
 40
0
 40
0
 40
0
 40
1
 40
1
 40
1
 40
1
 10
-0.792492
 20
-0.712069
 30
0.0
 10
-0.613848
 20
-0.829633
 30
0.0
 10
-0.373732
 20
-0.808211
 30
0.0
 10
-0.192407
 20
-0.704858
 30
0.0
  0
SPLINE
  5
110
100
AcDbEntity
  8
Background
 62
7
100
AcDbSpline
 70
8
 71
3
 72
8
 73
4
 74
0
 40
0
 40
0
 40
0
 40
0
 40
1
 40
1
 40
1
 40
1
 10
-0.192407
 20
-0.704858
 30
0.0
 10
-0.145274
 20
-0.679415
 30
0.0
 10
-0.105501
 20
-0.641572
 30
0.0
 10
-0.058999
 20
-0.616062
 30
0.0
  0
SPLINE
  5
111
100
AcDbEntity
  8
Background
 62
7
100
AcDbSpline
 70
8
 71
3
 72
8
 73
4
 74
0
 40
0
 40
0
 40
0
 40
0
 40
1
 40
1
 40
1
 40
1
 10
-0.058999
 20
-0.616062
 30
0.0
 10
-0.002592
 20
-0.596688
 30
0.0
 10
0.044169
 20
-0.644430
 30
0.0
 10
0.086347
 20
-0.673700
 30
0.0
  0
SPLINE
  5
112
100
AcDbEntity
  8
Background
 62
7
100
AcDbSpline
 70
8
 71
3
 72
8
 73
4
 74
0
 40
0
 40
0
 40
0
 40
0
 40
1
 40
1
 40
1
 40
1
 10
0.086347
 20
-0.673700
 30
0.0
 10
0.282625
 20
-0.795586
 30
0.0
 10
0.526337
 20
-0.812550
 30
0.0
 10
0.751216
 20
-0.775269
 30
0.0
  0
SPLINE
  5
113
100
AcDbEntity
  8
Background
 62
7
100
AcDbSpline
 70
8
 71
3
 72
8
 73
4
 74
0
 40
0
 40
0
 40
0
 40
0
 40
1
 40
1
 40
1
 40
1
 10
0.751216
 20
-0.775269
 30
0.0
 10
0.906059
 20
-0.748330
 30
0.0
 10
1.057171
 20
-0.693604
 30
0.0
 10
1.190928
 20
-0.611124
 30
0.0
  0
SPLINE
  5
114
100
AcDbEntity
  8
Background
 62
7
100
AcDbSpline
 70
8
 71
3
 72
8
 73
4
 74
0
 40
0
 40
0
 40
0
 40
0
 40
1
 40
1
 40
1
 40
1
 10
1.190928
 20
-0.611124
 30
0.0
 10
1.215765
 20
-0.585931
 30
0.0
 10
1.252418
 20
-0.606932
 30
0.0
 10
1.266132
 20
-0.633346
 30
0.0
  0
SPLINE
  5
115
100
AcDbEntity
  8
Background
 62
7
100
AcDbSpline
 70
8
 71
3
 72
8
 73
4
 74
0
 40
0
 40
0
 40
0
 40
0
 40
1
 40
1
 40
1
 40
1
 10
1.266132
 20
-0.633346
 30
0.0
 10
1.395098
 20
-0.776215
 30
0.0
 10
1.609818
 20
-0.829218
 30
0.0
 10
1.791693
 20
-0.768429
 30
0.0
  0
SPLINE
  5
116
100
AcDbEntity
  8
Background
 62
7
100
AcDbSpline
 70
8
 71
3
 72
8
 73
4
 74
0
 40
0
 40
0
 40
0
 40
0
 40
1
 40
1
 40
1
 40
1
 10
1.791693
 20
-0.768429
 30
0.0
 10
1.857847
 20
-0.750156
 30
0.0
 10
1.918119
 20
-0.716278
 30
0.0
 10
1.980637
 20
-0.689480
 30
0.0
  0
SPLINE
  5
117
100
AcDbEntity
  8
Background
 62
7
100
AcDbSpline
 70
8
 71
3
 72
8
 73
4
 74
0
 40
0
 40
0
 40
0
 40
0
 40
1
 40
1
 40
1
 40
1
 10
1.980637
 20
-0.689480
 30
0.0
 10
2.042522
 20
-0.675920
 30
0.0
 10
2.087221
 20
-0.732061
 30
0.0
 10
2.141533
 20
-0.749635
 30
0.0
  0
SPLINE
  5
118
100
AcDbEntity
  8
Background
 62
7
100
AcDbSpline
 70
8
 71
3
 72
8
 73
4
 74
0
 40
0
 40
0
 40
0
 40
0
 40
1
 40
1
 40
1
 40
1
 10
2.141533
 20
-0.749635
 30
0.0
 10
2.335066
 20
-0.830508
 30
0.0
 10
2.561523
 20
-0.790739
 30
0.0
 10
2.737528
 20
-0.684944
 30
0.0
  0
SPLINE
  5
119
100
AcDbEntity
  8
Background
 62
7
100
AcDbSpline
 70
8
 71
3
 72
8
 73
4
 74
0
 40
0
 40
0
 40
0
 40
0
 40
1
 40
1
 40
1
 40
1
 10
2.737528
 20
-0.684944
 30
0.0
 10
2.969415
 20
-0.549346
 30
0.0
 10
3.133258
 20
-0.327226
 30
0.0
 10
3.270536
 20
-0.101604
 30
0.0
  0
SPLINE
  5
11a
100
AcDbEntity
  8
Background
 62
7
100
AcDbSpline
 70
8
 71
3
 72
8
 73
4
 74
0
 40
0
 40
0
 40
0
 40
0
 40
1
 40
1
 40
1
 40
1
 10
3.270536
 20
-0.101604
 30
0.0
 10
3.300515
 20
-0.052625
 30
0.0
 10
3.330150
 20
-0.003441
 30
0.0
 10
3.359589
 20
0.045865
 30
0.0
  0
SPLINE
  5
11b
100
AcDbEntity
  8
Background
 62
7
100
AcDbSpline
 70
8
 71
3
 72
8
 73
4
 74
0
 40
0
 40
0
 40
0
 40
0
 40
1
 40
1
 40
1
 40
1
 10
3.359589
 20
0.045865
 30
0.0
 10
3.322569
 20
0.215962
 30
0.0
 10
3.164201
 20
0.347810
 30
0.0
 10
2.992571
 20
0.363747
 30
0.0
  0
SPLINE
  5
11c
100
AcDbEntity
  8
Background
 62
7
100
AcDbSpline
 70
8
 71
3
 72
8
 73
4
 74
0
 40
0
 40
0
 40
0
 40
0
 40
1
 40
1
 40
1
 40
1
 10
2.992571
 20
0.363747
 30
0.0
 10
2.941237
 20
0.376216
 30
0.0
 10
2.918904
 20
0.442856
 30
0.0
 10
2.947884
 20
0.485791
 30
0.0
  0
SPLINE
  5
11d
100
AcDbEntity
  8
Background
 62
7
100
AcDbSpline
 70
8
 71
3
 72
8
 73
4
 74
0
 40
0
 40
0
 40
0
 40
0
 40
1
 40
1
 40
1
 40
1
 10
2.947884
 20
0.485791
 30
0.0
 10
3.025120
 20
0.666420
 30
0.0
 10
3.095846
 20
0.849733
 30
0.0
 10
3.170621
 20
1.031419
 30
0.0
  0
SPLINE
  5
11e
100
AcDbEntity
  8
Background
 62
7
100
AcDbSpline
 70
8
 71
3
 72
8
 73
4
 74
0
 40
0
 40
0
 40
0
 40
0
 40
1
 40
1
 40
1
 40
1
 10
3.170621
 20
1.031419
 30
0.0
 10
3.237737
 20
1.197180
 30
0.0
 10
3.304853
 20
1.362941
 30
0.0
 10
3.371969
 20
1.528702
 30
0.0
  0
SPLINE
  5
11f
100
AcDbEntity
  8
Background
 62
7
100
AcDbSpline
 70
8
 71
3
 72
8
 73
4
 74
0
 40
0
 40
0
 40
0
 40
0
 40
1
 40
1
 40
1
 40
1
 10
2.543737
 20
1.528702
 30
0.0
 10
2.469017
 20
1.345591
 30
0.0
 10
2.394328
 20
1.162468
 30
0.0
 10
2.319589
 20
0.979366
 30
0.0
  0
SPLINE
  5
120
100
AcDbEntity
  8
Background
 62
7
100
AcDbSpline
 70
8
 71
3
 72
8
 73
4
 74
0
 40
0
 40
0
 40
0
 40
0
 40
1
 40
1
 40
1
 40
1
 10
2.319589
 20
0.979366
 30
0.0
 10
2.218773
 20
1.026150
 30
0.0
 10
2.104647
 20
1.043152
 30
0.0
 10
1.995247
 20
1.029578
 30
0.0
  0
SPLINE
  5
121
100
AcDbEntity
  8
Background
 62
7
100
AcDbSpline
 70
8
 71
3
 72
8
 73
4
 74
0
 40
0
 40
0
 40
0
 40
0
 40
1
 40
1
 40
1
 40
1
 10
1.995247
 20
1.029578
 30
0.0
 10
1.862218
 20
1.014910
 30
0.0
 10
1.726313
 20
0.952206
 30
0.0
 10
1.624871
 20
0.858587
 30
0.0
  0
SPLINE
  5
122
100
AcDbEntity
  8
Background
 62
7
100
AcDbSpline
 70
8
 71
3
 72
8
 73
4
 74
0
 40
0
 40
0
 40
0
 40
0
 40
1
 40
1
 40
1
 40
1
 10
1.624871
 20
0.858587
 30
0.0
 10
1.561543
 20
0.803113
 30
0.0
 10
1.506646
 20
0.739053
 30
0.0
 10
1.449987
 20
0.677016
 30
0.0
  0
SPLINE
  5
123
100
AcDbEntity
  8
Background
 62
7
100
AcDbSpline
 70
8
 71
3
 72
8
 73
4
 74
0
 40
0
 40
0
 40
0
 40
0
 40
1
 40
1
 40
1
 40
1
 10
1.449987
 20
0.677016
 30
0.0
 10
1.388436
 20
0.791616
 30
0.0
 10
1.300228
 20
0.895215
 30
0.0
 10
1.183351
 20
0.955697
 30
0.0
  0
SPLINE
  5
124
100
AcDbEntity
  8
Background
 62
7
100
AcDbSpline
 70
8
 71
3
 72
8
 73
4
 74
0
 40
0
 40
0
 40
0
 40
0
 40
1
 40
1
 40
1
 40
1
 10
1.183351
 20
0.955697
 30
0.0
 10
1.061444
 20
1.019597
 30
0.0
 10
0.922834
 20
1.040828
 30
0.0
 10
0.787739
 20
1.032821
 30
0.0
  0
SPLINE
  5
125
100
AcDbEntity
  8
Background
 62
7
100
AcDbSpline
 70
8
 71
3
 72
8
 73
4
 74
0
 40
0
 40
0
 40
0
 40
0
 40
1
 40
1
 40
1
 40
1
 10
0.787739
 20
1.032821
 30
0.0
 10
0.562108
 20
1.019882
 30
0.0
 10
0.343157
 20
0.919211
 30
0.0
 10
0.184262
 20
0.756085
 30
0.0
  0
SPLINE
  5
126
100
AcDbEntity
  8
Background
 62
7
100
AcDbSpline
 70
8
 71
3
 72
8
 73
4
 74
0
 40
0
 40
0
 40
0
 40
0
 40
1
 40
1
 40
1
 40
1
 10
0.184262
 20
0.756085
 30
0.0
 10
0.102689
 20
0.674750
 30
0.0
 10
0.039293
 20
0.577576
 30
0.0
 10
-0.024392
 20
0.482703
 30
0.0
  0
SPLINE
  5
127
100
AcDbEntity
  8
Background
 62
7
100
AcDbSpline
 70
8
 71
3
 72
8
 73
4
 74
0
 40
0
 40
0
 40
0
 40
0
 40
1
 40
1
 40
1
 40
1
 10
-0.024392
 20
0.482703
 30
0.0
 10
-0.045035
 20
0.461232
 30
0.0
 10
-0.071547
 20
0.483806
 30
0.0
 10
-0.079253
 20
0.505606
 30
0.0
  0
SPLINE
  5
128
100
AcDbEntity
  8
Background
 62
7
100
AcDbSpline
 70
8
 71
3
 72
8
 73
4
 74
0
 40
0
 40
0
 40
0
 40
0
 40
1
 40
1
 40
1
 40
1
 10
-0.079253
 20
0.505606
 30
0.0
 10
-0.166240
 20
0.644829
 30
0.0
 10
-0.298310
 20
0.743908
 30
0.0
 10
-0.433164
 20
0.832728
 30
0.0
  0
SPLINE
  5
129
100
AcDbEntity
  8
Background
 62
7
100
AcDbSpline
 70
8
 71
3
 72
8
 73
4
 74
0
 40
0
 40
0
 40
0
 40
0
 40
1
 40
1
 40
1
 40
1
 10
-0.433164
 20
0.832728
 30
0.0
 10
-0.402225
 20
0.909213
 30
0.0
 10
-0.371204
 20
0.985647
 30
0.0
 10
-0.340583
 20
1.062258
 30
0.0
  0
SPLINE
  5
12a
100
AcDbEntity
  8
Background
 62
7
100
AcDbSpline
 70
8
 71
3
 72
8
 73
4
 74
0
 40
0
 40
0
 40
0
 40
0
 40
1
 40
1
 40
1
 40
1
 10
-0.340583
 20
1.062258
 30
0.0
 10
-0.488887
 20
1.144459
 30
0.0
 10
-0.637192
 20
1.226658
 30
0.0
 10
-0.785496
 20
1.308860
 30
0.0
  0
SPLINE
  5
12b
100
AcDbEntity
  8
Background
 62
7
100
AcDbSpline
 70
8
 71
3
 72
8
 73
4
 74
0
 40
0
 40
0
 40
0
 40
0
 40
1
 40
1
 40
1
 40
1
 10
-0.785496
 20
1.308860
 30
0.0
 10
-0.838443
 20
1.465086
 30
0.0
 10
-0.891240
 20
1.621364
 30
0.0
 10
-0.944129
 20
1.777609
 30
0.0
  0
SPLINE
  5
12c
100
AcDbEntity
  8
Background
 62
7
100
AcDbSpline
 70
8
 71
3
 72
8
 73
4
 74
0
 40
0
 40
0
 40
0
 40
0
 40
1
 40
1
 40
1
 40
1
 10
-0.944129
 20
1.777609
 30
0.0
 10
-1.014098
 20
1.785292
 30
0.0
 10
-1.089817
 20
1.784650
 30
0.0
 10
-1.160118
 20
1.774771
 30
0.0
  0
SPLINE
  5
12d
100
AcDbEntity
  8
Background
 62
7
100
AcDbSpline
 70
8
 71
3
 72
8
 73
4
 74
0
 40
0
 40
0
 40
0
 40
0
 40
1
 40
1
 40
1
 40
1
 10
-1.160118
 20
1.774771
 30
0.0
 10
-1.269491
 20
1.760561
 30
0.0
 10
-1.383056
 20
1.720762
 30
0.0
 10
-1.477548
 20
1.657807
 30
0.0
  0
SPLINE
  5
12e
100
AcDbEntity
  8
Background
 62
7
100
AcDbSpline
 70
8
 71
3
 72
8
 73
4
 74
0
 40
0
 40
0
 40
0
 40
0
 40
1
 40
1
 40
1
 40
1
 10
-1.477548
 20
1.657807
 30
0.0
 10
-1.531967
 20
1.634276
 30
0.0
 10
-1.592183
 20
1.652491
 30
0.0
 10
-1.648883
 20
1.654740
 30
0.0
  0
SPLINE
  5
12f
100
AcDbEntity
  8
Background
 62
7
100
AcDbSpline
 70
8
 71
3
 72
8
 73
4
 74
0
 40
0
 40
0
 40
0
 40
0
 40
1
 40
1
 40
1
 40
1
 10
-1.648883
 20
1.654740
 30
0.0
 10
-1.880262
 20
1.682156
 30
0.0
 10
-2.101819
 20
1.767339
 30
0.0
 10
-2.335624
 20
1.778871
 30
0.0
  0
SPLINE
  5
130
100
AcDbEntity
  8
Background
 62
7
100
AcDbSpline
 70
8
 71
3
 72
8
 73
4
 74
0
 40
0
 40
0
 40
0
 40
0
 40
1
 40
1
 40
1
 40
1
 10
-2.335624
 20
1.778871
 30
0.0
 10
-2.376677
 20
1.782190
 30
0.0
 10
-2.417911
 20
1.784070
 30
0.0
 10
-2.459108
 20
1.783529
 30
0.0
  0
LWPOLYLINE
  5
131
100
AcDbEntity
  8
Background
 62
7
100
AcDbPolyline
 90
2
 70
0
 10
3.371969
 20
1.528702
 30
0.0
 10
2.543737
 20
1.528702
 30
0.0
  0
SPLINE
  5
132
100
AcDbEntity
  8
Text
 62
7
100
AcDbSpline
 70
8
 71
3
 72
8
 73
4
 74
0
 40
0
 40
0
 40
0
 40
0
 40
1
 40
1
 40
1
 40
1
 10
-1.218590
 20
1.117167
 30
0.0
 10
-1.138584
 20
1.311848
 30
0.0
 10
-1.002574
 20
1.365185
 30
0.0
 10
-1.002574
 20
1.365185
 30
0.0
  0
LWPOLYLINE
  5
133
100
AcDbEntity
  8
Background
 62
7
100
AcDbPolyline
 90
1
 70
1
 10
-2.459108
 20
1.783529
 30
0.0
  0
SPLINE
  5
134
100
AcDbEntity
  8
Text
 62
7
100
AcDbSpline
 70
8
 71
3
 72
8
 73
4
 74
0
 40
0
 40
0
 40
0
 40
0
 40
1
 40
1
 40
1
 40
1
 10
-1.079913
 20
1.594536
 30
0.0
 10
-1.202589
 20
1.594536
 30
0.0
 10
-1.327931
 20
1.546532
 30
0.0
 10
-1.418605
 20
1.466526
 30
0.0
  0
SPLINE
  5
135
100
AcDbEntity
  8
Text
 62
7
100
AcDbSpline
 70
8
 71
3
 72
8
 73
4
 74
0
 40
0
 40
0
 40
0
 40
0
 40
1
 40
1
 40
1
 40
1
 10
-1.418605
 20
1.466526
 30
0.0
 10
-1.714627
 20
1.410522
 30
0.0
 10
-2.082655
 20
1.597203
 30
0.0
 10
-2.432014
 20
1.597203
 30
0.0
  0
SPLINE
  5
136
100
AcDbEntity
  8
Text
 62
7
100
AcDbSpline
 70
8
 71
3
 72
8
 73
4
 74
0
 40
0
 40
0
 40
0
 40
0
 40
1
 40
1
 40
1
 40
1
 10
-2.432014
 20
1.597203
 30
0.0
 10
-2.853379
 20
1.597203
 30
0.0
 10
-3.042726
 20
1.330516
 30
0.0
 10
-3.042726
 20
1.058496
 30
0.0
  0
SPLINE
  5
137
100
AcDbEntity
  8
Text
 62
7
100
AcDbSpline
 70
8
 71
3
 72
8
 73
4
 74
0
 40
0
 40
0
 40
0
 40
0
 40
1
 40
1
 40
1
 40
1
 10
-3.042726
 20
1.058496
 30
0.0
 10
-3.042726
 20
0.751806
 30
0.0
 10
-2.800042
 20
0.583793
 30
0.0
 10
-2.552023
 20
0.583793
 30
0.0
  0
SPLINE
  5
138
100
AcDbEntity
  8
Text
 62
7
100
AcDbSpline
 70
8
 71
3
 72
8
 73
4
 74
0
 40
0
 40
0
 40
0
 40
0
 40
1
 40
1
 40
1
 40
1
 10
-2.552023
 20
0.583793
 30
0.0
 10
-2.317339
 20
0.583793
 30
0.0
 10
-2.170661
 20
0.730471
 30
0.0
 10
-2.170661
 20
0.730471
 30
0.0
  0
LWPOLYLINE
  5
139
100
AcDbEntity
  8
Text
 62
7
100
AcDbPolyline
 90
2
 70
0
 10
-1.002574
 20
1.365185
 30
0.0
 10
-1.079913
 20
1.594536
 30
0.0
  0
SPLINE
  5
13a
100
AcDbEntity
  8
Text
 62
7
100
AcDbSpline
 70
8
 71
3
 72
8
 73
4
 74
0
 40
0
 40
0
 40
0
 40
0
 40
1
 40
1
 40
1
 40
1
 10
-2.341341
 20
0.989157
 30
0.0
 10
-2.341341
 20
0.989157
 30
0.0
 10
-2.418680
 20
0.909151
 30
0.0
 10
-2.528021
 20
0.909151
 30
0.0
  0
SPLINE
  5
13b
100
AcDbEntity
  8
Text
 62
7
100
AcDbSpline
 70
8
 71
3
 72
8
 73
4
 74
0
 40
0
 40
0
 40
0
 40
0
 40
1
 40
1
 40
1
 40
1
 10
-2.528021
 20
0.909151
 30
0.0
 10
-2.610694
 20
0.909151
 30
0.0
 10
-2.696034
 20
0.959822
 30
0.0
 10
-2.696034
 20
1.066496
 30
0.0
  0
SPLINE
  5
13c
100
AcDbEntity
  8
Text
 62
7
100
AcDbSpline
 70
8
 71
3
 72
8
 73
4
 74
0
 40
0
 40
0
 40
0
 40
0
 40
1
 40
1
 40
1
 40
1
 10
-2.696034
 20
1.066496
 30
0.0
 10
-2.696034
 20
1.165170
 30
0.0
 10
-2.621362
 20
1.269178
 30
0.0
 10
-2.424013
 20
1.269178
 30
0.0
  0
SPLINE
  5
13d
100
AcDbEntity
  8
Text
 62
7
100
AcDbSpline
 70
8
 71
3
 72
8
 73
4
 74
0
 40
0
 40
0
 40
0
 40
0
 40
1
 40
1
 40
1
 40
1
 10
-2.424013
 20
1.269178
 30
0.0
 10
-2.213331
 20
1.269178
 30
0.0
 10
-1.917309
 20
1.149169
 30
0.0
 10
-1.637288
 20
1.127834
 30
0.0
  0
LWPOLYLINE
  5
13e
100
AcDbEntity
  8
Text
 62
7
100
AcDbPolyline
 90
2
 70
0
 10
-2.170661
 20
0.730471
 30
0.0
 10
-2.341341
 20
0.989157
 30
0.0
  0
SPLINE
  5
13f
100
AcDbEntity
  8
Text
 62
7
100
AcDbSpline
 70
8
 71
3
 72
8
 73
4
 74
0
 40
0
 40
0
 40
0
 40
0
 40
1
 40
1
 40
1
 40
1
 10
-2.045318
 20
0.114425
 30
0.0
 10
-2.197330
 20
-0.248269
 30
0.0
 10
-2.370676
 20
-0.482953
 30
0.0
 10
-2.610694
 20
-0.482953
 30
0.0
  0
SPLINE
  5
140
100
AcDbEntity
  8
Text
 62
7
100
AcDbSpline
 70
8
 71
3
 72
8
 73
4
 74
0
 40
0
 40
0
 40
0
 40
0
 40
1
 40
1
 40
1
 40
1
 10
-2.610694
 20
-0.482953
 30
0.0
 10
-2.738704
 20
-0.482953
 30
0.0
 10
-2.866713
 20
-0.386946
 30
0.0
 10
-2.866713
 20
-0.234935
 30
0.0
  0
SPLINE
  5
141
100
AcDbEntity
  8
Text
 62
7
100
AcDbSpline
 70
8
 71
3
 72
8
 73
4
 74
0
 40
0
 40
0
 40
0
 40
0
 40
1
 40
1
 40
1
 40
1
 10
-2.866713
 20
-0.234935
 30
0.0
 10
-2.866713
 20
-0.141594
 30
0.0
 10
-2.818710
 20
0.013084
 30
0.0
 10
-2.568024
 20
-0.005584
 30
0.0
  0
LWPOLYLINE
  5
142
100
AcDbEntity
  8
Text
 62
7
100
AcDbPolyline
 90
6
 70
0
 10
-1.637288
 20
1.127834
 30
0.0
 10
-1.874639
 20
0.538457
 30
0.0
 10
-2.111990
 20
0.538457
 30
0.0
 10
-2.199997
 20
0.325107
 30
0.0
 10
-1.962646
 20
0.325107
 30
0.0
 10
-2.045318
 20
0.114425
 30
0.0
  0
SPLINE
  5
143
100
AcDbEntity
  8
Text
 62
7
100
AcDbSpline
 70
8
 71
3
 72
8
 73
4
 74
0
 40
0
 40
0
 40
0
 40
0
 40
1
 40
1
 40
1
 40
1
 10
-2.568024
 20
0.346443
 30
0.0
 10
-2.976055
 20
0.378445
 30
0.0
 10
-3.229407
 20
0.093090
 30
0.0
 10
-3.229407
 20
-0.234935
 30
0.0
  0
SPLINE
  5
144
100
AcDbEntity
  8
Text
 62
7
100
AcDbSpline
 70
8
 71
3
 72
8
 73
4
 74
0
 40
0
 40
0
 40
0
 40
0
 40
1
 40
1
 40
1
 40
1
 10
-3.229407
 20
-0.234935
 30
0.0
 10
-3.229407
 20
-0.536291
 30
0.0
 10
-3.021391
 20
-0.834980
 30
0.0
 10
-2.576025
 20
-0.834980
 30
0.0
  0
SPLINE
  5
145
100
AcDbEntity
  8
Text
 62
7
100
AcDbSpline
 70
8
 71
3
 72
8
 73
4
 74
0
 40
0
 40
0
 40
0
 40
0
 40
1
 40
1
 40
1
 40
1
 10
-2.576025
 20
-0.834980
 30
0.0
 10
-2.333340
 20
-0.834980
 30
0.0
 10
-1.965312
 20
-0.741639
 30
0.0
 10
-1.709293
 20
-0.101591
 30
0.0
  0
LWPOLYLINE
  5
146
100
AcDbEntity
  8
Text
 62
7
100
AcDbPolyline
 90
2
 70
0
 10
-2.568024
 20
-0.005584
 30
0.0
 10
-2.568024
 20
0.346443
 30
0.0
  0
SPLINE
  5
147
100
AcDbEntity
  8
Text
 62
7
100
AcDbSpline
 70
8
 71
3
 72
8
 73
4
 74
0
 40
0
 40
0
 40
0
 40
0
 40
1
 40
1
 40
1
 40
1
 10
-1.391936
 20
-0.570959
 30
0.0
 10
-1.253259
 20
-0.448284
 30
0.0
 10
-0.994573
 20
-0.008251
 30
0.0
 10
-0.765223
 20
0.493120
 30
0.0
  0
SPLINE
  5
148
100
AcDbEntity
  8
Text
 62
7
100
AcDbSpline
 70
8
 71
3
 72
8
 73
4
 74
0
 40
0
 40
0
 40
0
 40
0
 40
1
 40
1
 40
1
 40
1
 10
-0.765223
 20
0.493120
 30
0.0
 10
-0.690550
 20
0.429115
 30
0.0
 10
-0.634546
 20
0.383778
 30
0.0
 10
-0.634546
 20
0.330441
 30
0.0
  0
SPLINE
  5
149
100
AcDbEntity
  8
Text
 62
7
100
AcDbSpline
 70
8
 71
3
 72
8
 73
4
 74
0
 40
0
 40
0
 40
0
 40
0
 40
1
 40
1
 40
1
 40
1
 10
-0.634546
 20
0.330441
 30
0.0
 10
-0.634546
 20
0.317107
 30
0.0
 10
-0.637213
 20
0.290438
 30
0.0
 10
-0.658548
 20
0.237101
 30
0.0
  0
LWPOLYLINE
  5
14a
100
AcDbEntity
  8
Text
 62
7
100
AcDbPolyline
 90
6
 70
0
 10
-1.709293
 20
-0.101591
 30
0.0
 10
-1.538614
 20
0.325107
 30
0.0
 10
-1.293262
 20
0.325107
 30
0.0
 10
-1.207922
 20
0.538457
 30
0.0
 10
-1.450607
 20
0.538457
 30
0.0
 10
-1.218590
 20
1.117167
 30
0.0
  0
SPLINE
  5
14b
100
AcDbEntity
  8
Text
 62
7
100
AcDbSpline
 70
8
 71
3
 72
8
 73
4
 74
0
 40
0
 40
0
 40
0
 40
0
 40
1
 40
1
 40
1
 40
1
 10
-0.743888
 20
0.021085
 30
0.0
 10
-0.935902
 20
-0.450951
 30
0.0
 10
-0.714552
 20
-0.605629
 30
0.0
 10
-0.506537
 20
-0.605629
 30
0.0
  0
SPLINE
  5
14c
100
AcDbEntity
  8
Text
 62
7
100
AcDbSpline
 70
8
 71
3
 72
8
 73
4
 74
0
 40
0
 40
0
 40
0
 40
0
 40
1
 40
1
 40
1
 40
1
 10
-0.506537
 20
-0.605629
 30
0.0
 10
-0.213181
 20
-0.605629
 30
0.0
 10
0.000168
 20
-0.290939
 30
0.0
 10
0.205517
 20
0.063755
 30
0.0
  0
SPLINE
  5
14d
100
AcDbEntity
  8
Text
 62
7
100
AcDbSpline
 70
8
 71
3
 72
8
 73
4
 74
0
 40
0
 40
0
 40
0
 40
0
 40
1
 40
1
 40
1
 40
1
 10
0.205517
 20
0.063755
 30
0.0
 10
0.184182
 20
0.114425
 30
0.0
 10
0.112176
 20
0.165096
 30
0.0
 10
0.056172
 20
0.170429
 30
0.0
  0
SPLINE
  5
14e
100
AcDbEntity
  8
Text
 62
7
100
AcDbSpline
 70
8
 71
3
 72
8
 73
4
 74
0
 40
0
 40
0
 40
0
 40
0
 40
1
 40
1
 40
1
 40
1
 10
0.056172
 20
0.170429
 30
0.0
 10
-0.146510
 20
-0.176263
 30
0.0
 10
-0.277186
 20
-0.344276
 30
0.0
 10
-0.351858
 20
-0.344276
 30
0.0
  0
SPLINE
  5
14f
100
AcDbEntity
  8
Text
 62
7
100
AcDbSpline
 70
8
 71
3
 72
8
 73
4
 74
0
 40
0
 40
0
 40
0
 40
0
 40
1
 40
1
 40
1
 40
1
 10
-0.351858
 20
-0.344276
 30
0.0
 10
-0.386528
 20
-0.344276
 30
0.0
 10
-0.455866
 20
-0.309607
 30
0.0
 10
-0.330523
 20
-0.002917
 30
0.0
  0
LWPOLYLINE
  5
150
100
AcDbEntity
  8
Text
 62
7
100
AcDbPolyline
 90
2
 70
0
 10
-0.658548
 20
0.237101
 30
0.0
 10
-0.743888
 20
0.021085
 30
0.0
  0
SPLINE
  5
151
100
AcDbEntity
  8
Text
 62
7
100
AcDbSpline
 70
8
 71
3
 72
8
 73
4
 74
0
 40
0
 40
0
 40
0
 40
0
 40
1
 40
1
 40
1
 40
1
 10
-0.255851
 20
0.186430
 30
0.0
 10
-0.231849
 20
0.247769
 30
0.0
 10
-0.223849
 20
0.287771
 30
0.0
 10
-0.223849
 20
0.319774
 30
0.0
  0
SPLINE
  5
152
100
AcDbEntity
  8
Text
 62
7
100
AcDbSpline
 70
8
 71
3
 72
8
 73
4
 74
0
 40
0
 40
0
 40
0
 40
0
 40
1
 40
1
 40
1
 40
1
 10
-0.223849
 20
0.319774
 30
0.0
 10
-0.223849
 20
0.519789
 30
0.0
 10
-0.551873
 20
0.669133
 30
0.0
 10
-0.661215
 20
0.765141
 30
0.0
  0
LWPOLYLINE
  5
153
100
AcDbEntity
  8
Text
 62
7
100
AcDbPolyline
 90
2
 70
0
 10
-0.330523
 20
-0.002917
 30
0.0
 10
-0.255851
 20
0.186430
 30
0.0
  0
SPLINE
  5
154
100
AcDbEntity
  8
Text
 62
7
100
AcDbSpline
 70
8
 71
3
 72
8
 73
4
 74
0
 40
0
 40
0
 40
0
 40
0
 40
1
 40
1
 40
1
 40
1
 10
-0.749221
 20
1.074497
 30
0.0
 10
-0.858563
 20
1.039828
 30
0.0
 10
-0.999907
 20
0.895817
 30
0.0
 10
-0.999907
 20
0.759807
 30
0.0
  0
SPLINE
  5
155
100
AcDbEntity
  8
Text
 62
7
100
AcDbSpline
 70
8
 71
3
 72
8
 73
4
 74
0
 40
0
 40
0
 40
0
 40
0
 40
1
 40
1
 40
1
 40
1
 10
-0.999907
 20
0.759807
 30
0.0
 10
-0.999907
 20
0.693135
 30
0.0
 10
-0.965238
 20
0.647798
 30
0.0
 10
-0.917234
 20
0.597128
 30
0.0
  0
SPLINE
  5
156
100
AcDbEntity
  8
Text
 62
7
100
AcDbSpline
 70
8
 71
3
 72
8
 73
4
 74
0
 40
0
 40
0
 40
0
 40
0
 40
1
 40
1
 40
1
 40
1
 10
-0.917234
 20
0.597128
 30
0.0
 10
-1.173253
 20
0.029085
 30
0.0
 10
-1.415938
 20
-0.346943
 30
0.0
 10
-1.538614
 20
-0.464285
 30
0.0
  0
SPLINE
  5
157
100
AcDbEntity
  8
Text
 62
7
100
AcDbSpline
 70
8
 71
3
 72
8
 73
4
 74
0
 40
0
 40
0
 40
0
 40
0
 40
1
 40
1
 40
1
 40
1
 10
-1.538614
 20
-0.464285
 30
0.0
 10
-1.517279
 20
-0.514956
 30
0.0
 10
-1.447940
 20
-0.565626
 30
0.0
 10
-1.391936
 20
-0.570959
 30
0.0
  0
LWPOLYLINE
  5
158
100
AcDbEntity
  8
Text
 62
7
100
AcDbPolyline
 90
3
 70
0
 10
-0.661215
 20
0.765141
 30
0.0
 10
-0.575875
 20
0.978490
 30
0.0
 10
-0.749221
 20
1.074497
 30
0.0
  0
SPLINE
  5
159
100
AcDbEntity
  8
Text
 62
7
100
AcDbSpline
 70
8
 71
3
 72
8
 73
4
 74
0
 40
0
 40
0
 40
0
 40
0
 40
1
 40
1
 40
1
 40
1
 10
1.418939
 20
0.170429
 30
0.0
 10
1.229592
 20
-0.165596
 30
0.0
 10
0.941570
 20
-0.344276
 30
0.0
 10
0.669550
 20
-0.344276
 30
0.0
  0
SPLINE
  5
15a
100
AcDbEntity
  8
Text
 62
7
100
AcDbSpline
 70
8
 71
3
 72
8
 73
4
 74
0
 40
0
 40
0
 40
0
 40
0
 40
1
 40
1
 40
1
 40
1
 10
0.669550
 20
-0.344276
 30
0.0
 10
0.330858
 20
-0.344276
 30
0.0
 10
0.408197
 20
-0.066922
 30
0.0
 10
0.408197
 20
-0.066922
 30
0.0
  0
SPLINE
  5
15b
100
AcDbEntity
  8
Text
 62
7
100
AcDbSpline
 70
8
 71
3
 72
8
 73
4
 74
0
 40
0
 40
0
 40
0
 40
0
 40
1
 40
1
 40
1
 40
1
 10
0.408197
 20
-0.066922
 30
0.0
 10
0.901567
 20
-0.130927
 30
0.0
 10
1.114916
 20
0.023752
 30
0.0
 10
1.226925
 20
0.266436
 30
0.0
  0
SPLINE
  5
15c
100
AcDbEntity
  8
Text
 62
7
100
AcDbSpline
 70
8
 71
3
 72
8
 73
4
 74
0
 40
0
 40
0
 40
0
 40
0
 40
1
 40
1
 40
1
 40
1
 10
1.226925
 20
0.266436
 30
0.0
 10
1.397604
 20
0.650465
 30
0.0
 10
1.141585
 20
0.847813
 30
0.0
 10
0.840229
 20
0.847813
 30
0.0
  0
SPLINE
  5
15d
100
AcDbEntity
  8
Text
 62
7
100
AcDbSpline
 70
8
 71
3
 72
8
 73
4
 74
0
 40
0
 40
0
 40
0
 40
0
 40
1
 40
1
 40
1
 40
1
 10
0.840229
 20
0.847813
 30
0.0
 10
0.269520
 20
0.847813
 30
0.0
 10
0.000166
 20
0.221100
 30
0.0
 10
0.000166
 20
-0.133594
 30
0.0
  0
SPLINE
  5
15e
100
AcDbEntity
  8
Text
 62
7
100
AcDbSpline
 70
8
 71
3
 72
8
 73
4
 74
0
 40
0
 40
0
 40
0
 40
0
 40
1
 40
1
 40
1
 40
1
 10
0.000166
 20
-0.133594
 30
0.0
 10
0.000166
 20
-0.424282
 30
0.0
 10
0.178846
 20
-0.605629
 30
0.0
 10
0.549541
 20
-0.605629
 30
0.0
  0
SPLINE
  5
15f
100
AcDbEntity
  8
Text
 62
7
100
AcDbSpline
 70
8
 71
3
 72
8
 73
4
 74
0
 40
0
 40
0
 40
0
 40
0
 40
1
 40
1
 40
1
 40
1
 10
0.549541
 20
-0.605629
 30
0.0
 10
1.061579
 20
-0.605629
 30
0.0
 10
1.386937
 20
-0.256269
 30
0.0
 10
1.568284
 20
0.063755
 30
0.0
  0
SPLINE
  5
160
100
AcDbEntity
  8
Text
 62
7
100
AcDbSpline
 70
8
 71
3
 72
8
 73
4
 74
0
 40
0
 40
0
 40
0
 40
0
 40
1
 40
1
 40
1
 40
1
 10
1.568284
 20
0.063755
 30
0.0
 10
1.546949
 20
0.114425
 30
0.0
 10
1.474943
 20
0.165096
 30
0.0
 10
1.418939
 20
0.170429
 30
0.0
  0
LWPOLYLINE
  5
161
100
AcDbEntity
  8
Text
 62
7
100
AcDbPolyline
 90
1
 70
1
 10
-1.391936
 20
-0.570959
 30
0.0
  0
SPLINE
  5
162
100
AcDbEntity
  8
Text
 62
7
100
AcDbSpline
 70
8
 71
3
 72
8
 73
4
 74
0
 40
0
 40
0
 40
0
 40
0
 40
1
 40
1
 40
1
 40
1
 10
0.818894
 20
0.509121
 30
0.0
 10
0.909568
 20
0.509121
 30
0.0
 10
0.893567
 20
0.437116
 30
0.0
 10
0.858897
 20
0.357110
 30
0.0
  0
SPLINE
  5
163
100
AcDbEntity
  8
Text
 62
7
100
AcDbSpline
 70
8
 71
3
 72
8
 73
4
 74
0
 40
0
 40
0
 40
0
 40
0
 40
1
 40
1
 40
1
 40
1
 10
0.858897
 20
0.357110
 30
0.0
 10
0.805560
 20
0.231767
 30
0.0
 10
0.725554
 20
0.119759
 30
0.0
 10
0.480202
 20
0.162429
 30
0.0
  0
SPLINE
  5
164
100
AcDbEntity
  8
Text
 62
7
100
AcDbSpline
 70
8
 71
3
 72
8
 73
4
 74
0
 40
0
 40
0
 40
0
 40
0
 40
1
 40
1
 40
1
 40
1
 10
0.480202
 20
0.162429
 30
0.0
 10
0.480202
 20
0.162429
 30
0.0
 10
0.621546
 20
0.509121
 30
0.0
 10
0.818894
 20
0.509121
 30
0.0
  0
LWPOLYLINE
  5
165
100
AcDbEntity
  8
Text
 62
7
100
AcDbPolyline
 90
1
 70
1
 10
1.418939
 20
0.170429
 30
0.0
  0
SPLINE
  5
166
100
AcDbEntity
  8
Text
 62
7
100
AcDbSpline
 70
8
 71
3
 72
8
 73
4
 74
0
 40
0
 40
0
 40
0
 40
0
 40
1
 40
1
 40
1
 40
1
 10
3.003057
 20
0.170429
 30
0.0
 10
2.811043
 20
-0.157595
 30
0.0
 10
2.629696
 20
-0.344276
 30
0.0
 10
2.523021
 20
-0.344276
 30
0.0
  0
SPLINE
  5
167
100
AcDbEntity
  8
Text
 62
7
100
AcDbSpline
 70
8
 71
3
 72
8
 73
4
 74
0
 40
0
 40
0
 40
0
 40
0
 40
1
 40
1
 40
1
 40
1
 10
2.523021
 20
-0.344276
 30
0.0
 10
2.477684
 20
-0.344276
 30
0.0
 10
2.427014
 20
-0.306940
 30
0.0
 10
2.549690
 20
-0.002917
 30
0.0
  0
LWPOLYLINE
  5
168
100
AcDbEntity
  8
Text
 62
7
100
AcDbPolyline
 90
1
 70
1
 10
0.818894
 20
0.509121
 30
0.0
  0
SPLINE
  5
169
100
AcDbEntity
  8
Text
 62
7
100
AcDbSpline
 70
8
 71
3
 72
8
 73
4
 74
0
 40
0
 40
0
 40
0
 40
0
 40
1
 40
1
 40
1
 40
1
 10
2.381677
 20
0.631797
 30
0.0
 10
2.381677
 20
0.631797
 30
0.0
 10
2.320339
 20
0.847813
 30
0.0
 10
2.066987
 20
0.847813
 30
0.0
  0
SPLINE
  5
16a
100
AcDbEntity
  8
Text
 62
7
100
AcDbSpline
 70
8
 71
3
 72
8
 73
4
 74
0
 40
0
 40
0
 40
0
 40
0
 40
1
 40
1
 40
1
 40
1
 10
2.066987
 20
0.847813
 30
0.0
 10
1.578950
 20
0.847813
 30
0.0
 10
1.325598
 20
0.037086
 30
0.0
 10
1.325598
 20
-0.258936
 30
0.0
  0
SPLINE
  5
16b
100
AcDbEntity
  8
Text
 62
7
100
AcDbSpline
 70
8
 71
3
 72
8
 73
4
 74
0
 40
0
 40
0
 40
0
 40
0
 40
1
 40
1
 40
1
 40
1
 10
1.325598
 20
-0.258936
 30
0.0
 10
1.325598
 20
-0.442950
 30
0.0
 10
1.426939
 20
-0.605629
 30
0.0
 10
1.626954
 20
-0.605629
 30
0.0
  0
SPLINE
  5
16c
100
AcDbEntity
  8
Text
 62
7
100
AcDbSpline
 70
8
 71
3
 72
8
 73
4
 74
0
 40
0
 40
0
 40
0
 40
0
 40
1
 40
1
 40
1
 40
1
 10
1.626954
 20
-0.605629
 30
0.0
 10
1.864305
 20
-0.605629
 30
0.0
 10
2.048319
 20
-0.384279
 30
0.0
 10
2.048319
 20
-0.384279
 30
0.0
  0
SPLINE
  5
16d
100
AcDbEntity
  8
Text
 62
7
100
AcDbSpline
 70
8
 71
3
 72
8
 73
4
 74
0
 40
0
 40
0
 40
0
 40
0
 40
1
 40
1
 40
1
 40
1
 10
2.048319
 20
-0.384279
 30
0.0
 10
2.048319
 20
-0.384279
 30
0.0
 10
2.082988
 20
-0.605629
 30
0.0
 10
2.363009
 20
-0.605629
 30
0.0
  0
SPLINE
  5
16e
100
AcDbEntity
  8
Text
 62
7
100
AcDbSpline
 70
8
 71
3
 72
8
 73
4
 74
0
 40
0
 40
0
 40
0
 40
0
 40
1
 40
1
 40
1
 40
1
 10
2.363009
 20
-0.605629
 30
0.0
 10
2.685700
 20
-0.605629
 30
0.0
 10
2.944386
 20
-0.298939
 30
0.0
 10
3.152401
 20
0.063755
 30
0.0
  0
SPLINE
  5
16f
100
AcDbEntity
  8
Text
 62
7
100
AcDbSpline
 70
8
 71
3
 72
8
 73
4
 74
0
 40
0
 40
0
 40
0
 40
0
 40
1
 40
1
 40
1
 40
1
 10
3.152401
 20
0.063755
 30
0.0
 10
3.131067
 20
0.114425
 30
0.0
 10
3.059061
 20
0.165096
 30
0.0
 10
3.003057
 20
0.170429
 30
0.0
  0
LWPOLYLINE
  5
170
100
AcDbEntity
  8
Text
 62
7
100
AcDbPolyline
 90
4
 70
0
 10
2.549690
 20
-0.002917
 30
0.0
 10
3.093730
 20
1.341183
 30
0.0
 10
2.669699
 20
1.341183
 30
0.0
 10
2.381677
 20
0.631797
 30
0.0
  0
SPLINE
  5
171
100
AcDbEntity
  8
Text
 62
7
100
AcDbSpline
 70
8
 71
3
 72
8
 73
4
 74
0
 40
0
 40
0
 40
0
 40
0
 40
1
 40
1
 40
1
 40
1
 10
1.826969
 20
-0.266937
 30
0.0
 10
1.773632
 20
-0.266937
 30
0.0
 10
1.741629
 20
-0.237601
 30
0.0
 10
1.741629
 20
-0.168263
 30
0.0
  0
SPLINE
  5
172
100
AcDbEntity
  8
Text
 62
7
100
AcDbSpline
 70
8
 71
3
 72
8
 73
4
 74
0
 40
0
 40
0
 40
0
 40
0
 40
1
 40
1
 40
1
 40
1
 10
1.741629
 20
-0.168263
 30
0.0
 10
1.741629
 20
0.002417
 30
0.0
 10
1.938977
 20
0.501120
 30
0.0
 10
2.149660
 20
0.501120
 30
0.0
  0
SPLINE
  5
173
100
AcDbEntity
  8
Text
 62
7
100
AcDbSpline
 70
8
 71
3
 72
8
 73
4
 74
0
 40
0
 40
0
 40
0
 40
0
 40
1
 40
1
 40
1
 40
1
 10
2.149660
 20
0.501120
 30
0.0
 10
2.267002
 20
0.501120
 30
0.0
 10
2.269669
 20
0.351776
 30
0.0
 10
2.269669
 20
0.351776
 30
0.0
  0
LWPOLYLINE
  5
174
100
AcDbEntity
  8
Text
 62
7
100
AcDbPolyline
 90
1
 70
1
 10
3.003057
 20
0.170429
 30
0.0
  0
SPLINE
  5
175
100
AcDbEntity
  8
Text
 62
7
100
AcDbSpline
 70
8
 71
3
 72
8
 73
4
 74
0
 40
0
 40
0
 40
0
 40
0
 40
1
 40
1
 40
1
 40
1
 10
2.096322
 20
-0.074922
 30
0.0
 10
2.096322
 20
-0.074922
 30
0.0
 10
1.976313
 20
-0.266937
 30
0.0
 10
1.826969
 20
-0.266937
 30
0.0
  0
LWPOLYLINE
  5
176
100
AcDbEntity
  8
Text
 62
7
100
AcDbPolyline
 90
2
 70
0
 10
2.269669
 20
0.351776
 30
0.0
 10
2.096322
 20
-0.074922
 30
0.0
  0
SPLINE
  5
177
100
AcDbEntity
  8
Lights
 62
7
100
AcDbSpline
 70
8
 71
3
 72
8
 73
4
 74
0
 40
0
 40
0
 40
0
 40
0
 40
1
 40
1
 40
1
 40
1
 10
-1.911787
 20
1.464393
 30
0.0
 10
-1.957966
 20
1.464393
 30
0.0
 10
-1.999598
 20
1.436576
 30
0.0
 10
-2.017270
 20
1.393912
 30
0.0
  0
SPLINE
  5
178
100
AcDbEntity
  8
Lights
 62
7
100
AcDbSpline
 70
8
 71
3
 72
8
 73
4
 74
0
 40
0
 40
0
 40
0
 40
0
 40
1
 40
1
 40
1
 40
1
 10
-2.017270
 20
1.393912
 30
0.0
 10
-2.034941
 20
1.351249
 30
0.0
 10
-2.025173
 20
1.302141
 30
0.0
 10
-1.992520
 20
1.269487
 30
0.0
  0
SPLINE
  5
179
100
AcDbEntity
  8
Lights
 62
7
100
AcDbSpline
 70
8
 71
3
 72
8
 73
4
 74
0
 40
0
 40
0
 40
0
 40
0
 40
1
 40
1
 40
1
 40
1
 10
-1.992520
 20
1.269487
 30
0.0
 10
-1.959867
 20
1.236834
 30
0.0
 10
-1.910759
 20
1.227066
 30
0.0
 10
-1.868095
 20
1.244738
 30
0.0
  0
SPLINE
  5
17a
100
AcDbEntity
  8
Lights
 62
7
100
AcDbSpline
 70
8
 71
3
 72
8
 73
4
 74
0
 40
0
 40
0
 40
0
 40
0
 40
1
 40
1
 40
1
 40
1
 10
-1.868095
 20
1.244738
 30
0.0
 10
-1.825431
 20
1.262410
 30
0.0
 10
-1.797614
 20
1.304041
 30
0.0
 10
-1.797614
 20
1.350220
 30
0.0
  0
SPLINE
  5
17b
100
AcDbEntity
  8
Lights
 62
7
100
AcDbSpline
 70
8
 71
3
 72
8
 73
4
 74
0
 40
0
 40
0
 40
0
 40
0
 40
1
 40
1
 40
1
 40
1
 10
-1.797614
 20
1.350220
 30
0.0
 10
-1.797614
 20
1.380501
 30
0.0
 10
-1.809643
 20
1.409541
 30
0.0
 10
-1.831055
 20
1.430953
 30
0.0
  0
SPLINE
  5
17c
100
AcDbEntity
  8
Lights
 62
7
100
AcDbSpline
 70
8
 71
3
 72
8
 73
4
 74
0
 40
0
 40
0
 40
0
 40
0
 40
1
 40
1
 40
1
 40
1
 10
-1.831055
 20
1.430953
 30
0.0
 10
-1.852466
 20
1.452364
 30
0.0
 10
-1.881507
 20
1.464393
 30
0.0
 10
-1.911787
 20
1.464393
 30
0.0
  0
LWPOLYLINE
  5
17d
100
AcDbEntity
  8
Text
 62
7
100
AcDbPolyline
 90
1
 70
1
 10
1.826969
 20
-0.266937
 30
0.0
  0
SPLINE
  5
17e
100
AcDbEntity
  8
Lights
 62
7
100
AcDbSpline
 70
8
 71
3
 72
8
 73
4
 74
0
 40
0
 40
0
 40
0
 40
0
 40
1
 40
1
 40
1
 40
1
 10
-1.911787
 20
1.448645
 30
0.0
 10
-1.951596
 20
1.448645
 30
0.0
 10
-1.987486
 20
1.424665
 30
0.0
 10
-2.002720
 20
1.387886
 30
0.0
  0
SPLINE
  5
17f
100
AcDbEntity
  8
Lights
 62
7
100
AcDbSpline
 70
8
 71
3
 72
8
 73
4
 74
0
 40
0
 40
0
 40
0
 40
0
 40
1
 40
1
 40
1
 40
1
 10
-2.002720
 20
1.387886
 30
0.0
 10
-2.017955
 20
1.351107
 30
0.0
 10
-2.009534
 20
1.308772
 30
0.0
 10
-1.981384
 20
1.280623
 30
0.0
  0
SPLINE
  5
180
100
AcDbEntity
  8
Lights
 62
7
100
AcDbSpline
 70
8
 71
3
 72
8
 73
4
 74
0
 40
0
 40
0
 40
0
 40
0
 40
1
 40
1
 40
1
 40
1
 10
-1.981384
 20
1.280623
 30
0.0
 10
-1.953235
 20
1.252474
 30
0.0
 10
-1.910900
 20
1.244053
 30
0.0
 10
-1.874122
 20
1.259287
 30
0.0
  0
SPLINE
  5
181
100
AcDbEntity
  8
Lights
 62
7
100
AcDbSpline
 70
8
 71
3
 72
8
 73
4
 74
0
 40
0
 40
0
 40
0
 40
0
 40
1
 40
1
 40
1
 40
1
 10
-1.874122
 20
1.259287
 30
0.0
 10
-1.837343
 20
1.274521
 30
0.0
 10
-1.813362
 20
1.310411
 30
0.0
 10
-1.813362
 20
1.350220
 30
0.0
  0
SPLINE
  5
182
100
AcDbEntity
  8
Lights
 62
7
100
AcDbSpline
 70
8
 71
3
 72
8
 73
4
 74
0
 40
0
 40
0
 40
0
 40
0
 40
1
 40
1
 40
1
 40
1
 10
-1.813362
 20
1.350220
 30
0.0
 10
-1.813362
 20
1.376324
 30
0.0
 10
-1.823732
 20
1.401359
 30
0.0
 10
-1.842190
 20
1.419817
 30
0.0
  0
SPLINE
  5
183
100
AcDbEntity
  8
Lights
 62
7
100
AcDbSpline
 70
8
 71
3
 72
8
 73
4
 74
0
 40
0
 40
0
 40
0
 40
0
 40
1
 40
1
 40
1
 40
1
 10
-1.842190
 20
1.419817
 30
0.0
 10
-1.860648
 20
1.438276
 30
0.0
 10
-1.885683
 20
1.448645
 30
0.0
 10
-1.911787
 20
1.448645
 30
0.0
  0
LWPOLYLINE
  5
184
100
AcDbEntity
  8
Lights
 62
7
100
AcDbPolyline
 90
1
 70
1
 10
-1.911787
 20
1.464393
 30
0.0
  0
SPLINE
  5
185
100
AcDbEntity
  8
Lights
 62
7
100
AcDbSpline
 70
8
 71
3
 72
8
 73
4
 74
0
 40
0
 40
0
 40
0
 40
0
 40
1
 40
1
 40
1
 40
1
 10
-1.423401
 20
1.370456
 30
0.0
 10
-1.469580
 20
1.370456
 30
0.0
 10
-1.511212
 20
1.342639
 30
0.0
 10
-1.528884
 20
1.299975
 30
0.0
  0
SPLINE
  5
186
100
AcDbEntity
  8
Lights
 62
7
100
AcDbSpline
 70
8
 71
3
 72
8
 73
4
 74
0
 40
0
 40
0
 40
0
 40
0
 40
1
 40
1
 40
1
 40
1
 10
-1.528884
 20
1.299975
 30
0.0
 10
-1.546556
 20
1.257312
 30
0.0
 10
-1.536787
 20
1.208204
 30
0.0
 10
-1.504134
 20
1.175550
 30
0.0
  0
SPLINE
  5
187
100
AcDbEntity
  8
Lights
 62
7
100
AcDbSpline
 70
8
 71
3
 72
8
 73
4
 74
0
 40
0
 40
0
 40
0
 40
0
 40
1
 40
1
 40
1
 40
1
 10
-1.504134
 20
1.175550
 30
0.0
 10
-1.471481
 20
1.142897
 30
0.0
 10
-1.422373
 20
1.133129
 30
0.0
 10
-1.379709
 20
1.150801
 30
0.0
  0
SPLINE
  5
188
100
AcDbEntity
  8
Lights
 62
7
100
AcDbSpline
 70
8
 71
3
 72
8
 73
4
 74
0
 40
0
 40
0
 40
0
 40
0
 40
1
 40
1
 40
1
 40
1
 10
-1.379709
 20
1.150801
 30
0.0
 10
-1.337046
 20
1.168473
 30
0.0
 10
-1.309228
 20
1.210104
 30
0.0
 10
-1.309228
 20
1.256283
 30
0.0
  0
SPLINE
  5
189
100
AcDbEntity
  8
Lights
 62
7
100
AcDbSpline
 70
8
 71
3
 72
8
 73
4
 74
0
 40
0
 40
0
 40
0
 40
0
 40
1
 40
1
 40
1
 40
1
 10
-1.309228
 20
1.256283
 30
0.0
 10
-1.309228
 20
1.286564
 30
0.0
 10
-1.321257
 20
1.315604
 30
0.0
 10
-1.342669
 20
1.337016
 30
0.0
  0
SPLINE
  5
18a
100
AcDbEntity
  8
Lights
 62
7
100
AcDbSpline
 70
8
 71
3
 72
8
 73
4
 74
0
 40
0
 40
0
 40
0
 40
0
 40
1
 40
1
 40
1
 40
1
 10
-1.342669
 20
1.337016
 30
0.0
 10
-1.364080
 20
1.358427
 30
0.0
 10
-1.393121
 20
1.370456
 30
0.0
 10
-1.423401
 20
1.370456
 30
0.0
  0
LWPOLYLINE
  5
18b
100
AcDbEntity
  8
Lights
 62
7
100
AcDbPolyline
 90
1
 70
1
 10
-1.911787
 20
1.448645
 30
0.0
  0
SPLINE
  5
18c
100
AcDbEntity
  8
Lights
 62
7
100
AcDbSpline
 70
8
 71
3
 72
8
 73
4
 74
0
 40
0
 40
0
 40
0
 40
0
 40
1
 40
1
 40
1
 40
1
 10
-1.423401
 20
1.354708
 30
0.0
 10
-1.463211
 20
1.354708
 30
0.0
 10
-1.499100
 20
1.330728
 30
0.0
 10
-1.514334
 20
1.293949
 30
0.0
  0
SPLINE
  5
18d
100
AcDbEntity
  8
Lights
 62
7
100
AcDbSpline
 70
8
 71
3
 72
8
 73
4
 74
0
 40
0
 40
0
 40
0
 40
0
 40
1
 40
1
 40
1
 40
1
 10
-1.514334
 20
1.293949
 30
0.0
 10
-1.529569
 20
1.257170
 30
0.0
 10
-1.521148
 20
1.214835
 30
0.0
 10
-1.492999
 20
1.186686
 30
0.0
  0
SPLINE
  5
18e
100
AcDbEntity
  8
Lights
 62
7
100
AcDbSpline
 70
8
 71
3
 72
8
 73
4
 74
0
 40
0
 40
0
 40
0
 40
0
 40
1
 40
1
 40
1
 40
1
 10
-1.492999
 20
1.186686
 30
0.0
 10
-1.464849
 20
1.158537
 30
0.0
 10
-1.422515
 20
1.150116
 30
0.0
 10
-1.385736
 20
1.165350
 30
0.0
  0
SPLINE
  5
18f
100
AcDbEntity
  8
Lights
 62
7
100
AcDbSpline
 70
8
 71
3
 72
8
 73
4
 74
0
 40
0
 40
0
 40
0
 40
0
 40
1
 40
1
 40
1
 40
1
 10
-1.385736
 20
1.165350
 30
0.0
 10
-1.348957
 20
1.180584
 30
0.0
 10
-1.324976
 20
1.216474
 30
0.0
 10
-1.324976
 20
1.256283
 30
0.0
  0
SPLINE
  5
190
100
AcDbEntity
  8
Lights
 62
7
100
AcDbSpline
 70
8
 71
3
 72
8
 73
4
 74
0
 40
0
 40
0
 40
0
 40
0
 40
1
 40
1
 40
1
 40
1
 10
-1.324976
 20
1.256283
 30
0.0
 10
-1.324976
 20
1.282387
 30
0.0
 10
-1.335346
 20
1.307422
 30
0.0
 10
-1.353804
 20
1.325880
 30
0.0
  0
SPLINE
  5
191
100
AcDbEntity
  8
Lights
 62
7
100
AcDbSpline
 70
8
 71
3
 72
8
 73
4
 74
0
 40
0
 40
0
 40
0
 40
0
 40
1
 40
1
 40
1
 40
1
 10
-1.353804
 20
1.325880
 30
0.0
 10
-1.372263
 20
1.344338
 30
0.0
 10
-1.397297
 20
1.354708
 30
0.0
 10
-1.423401
 20
1.354708
 30
0.0
  0
LWPOLYLINE
  5
192
100
AcDbEntity
  8
Lights
 62
7
100
AcDbPolyline
 90
1
 70
1
 10
-1.423401
 20
1.370456
 30
0.0
  0
SPLINE
  5
193
100
AcDbEntity
  8
Lights
 62
7
100
AcDbSpline
 70
8
 71
3
 72
8
 73
4
 74
0
 40
0
 40
0
 40
0
 40
0
 40
1
 40
1
 40
1
 40
1
 10
-2.454268
 20
1.559196
 30
0.0
 10
-2.500446
 20
1.559196
 30
0.0
 10
-2.542078
 20
1.531379
 30
0.0
 10
-2.559750
 20
1.488715
 30
0.0
  0
SPLINE
  5
194
100
AcDbEntity
  8
Lights
 62
7
100
AcDbSpline
 70
8
 71
3
 72
8
 73
4
 74
0
 40
0
 40
0
 40
0
 40
0
 40
1
 40
1
 40
1
 40
1
 10
-2.559750
 20
1.488715
 30
0.0
 10
-2.577422
 20
1.446052
 30
0.0
 10
-2.567654
 20
1.396944
 30
0.0
 10
-2.535000
 20
1.364291
 30
0.0
  0
SPLINE
  5
195
100
AcDbEntity
  8
Lights
 62
7
100
AcDbSpline
 70
8
 71
3
 72
8
 73
4
 74
0
 40
0
 40
0
 40
0
 40
0
 40
1
 40
1
 40
1
 40
1
 10
-2.535000
 20
1.364291
 30
0.0
 10
-2.502347
 20
1.331637
 30
0.0
 10
-2.453239
 20
1.321869
 30
0.0
 10
-2.410575
 20
1.339541
 30
0.0
  0
SPLINE
  5
196
100
AcDbEntity
  8
Lights
 62
7
100
AcDbSpline
 70
8
 71
3
 72
8
 73
4
 74
0
 40
0
 40
0
 40
0
 40
0
 40
1
 40
1
 40
1
 40
1
 10
-2.410575
 20
1.339541
 30
0.0
 10
-2.367912
 20
1.357213
 30
0.0
 10
-2.340094
 20
1.398844
 30
0.0
 10
-2.340094
 20
1.445023
 30
0.0
  0
SPLINE
  5
197
100
AcDbEntity
  8
Lights
 62
7
100
AcDbSpline
 70
8
 71
3
 72
8
 73
4
 74
0
 40
0
 40
0
 40
0
 40
0
 40
1
 40
1
 40
1
 40
1
 10
-2.340094
 20
1.445023
 30
0.0
 10
-2.340094
 20
1.475304
 30
0.0
 10
-2.352123
 20
1.504344
 30
0.0
 10
-2.373535
 20
1.525756
 30
0.0
  0
SPLINE
  5
198
100
AcDbEntity
  8
Lights
 62
7
100
AcDbSpline
 70
8
 71
3
 72
8
 73
4
 74
0
 40
0
 40
0
 40
0
 40
0
 40
1
 40
1
 40
1
 40
1
 10
-2.373535
 20
1.525756
 30
0.0
 10
-2.394946
 20
1.547168
 30
0.0
 10
-2.423987
 20
1.559196
 30
0.0
 10
-2.454268
 20
1.559196
 30
0.0
  0
LWPOLYLINE
  5
199
100
AcDbEntity
  8
Lights
 62
7
100
AcDbPolyline
 90
1
 70
1
 10
-1.423401
 20
1.354708
 30
0.0
  0
SPLINE
  5
19a
100
AcDbEntity
  8
Lights
 62
7
100
AcDbSpline
 70
8
 71
3
 72
8
 73
4
 74
0
 40
0
 40
0
 40
0
 40
0
 40
1
 40
1
 40
1
 40
1
 10
-2.454268
 20
1.543448
 30
0.0
 10
-2.494077
 20
1.543448
 30
0.0
 10
-2.529966
 20
1.519468
 30
0.0
 10
-2.545201
 20
1.482689
 30
0.0
  0
SPLINE
  5
19b
100
AcDbEntity
  8
Lights
 62
7
100
AcDbSpline
 70
8
 71
3
 72
8
 73
4
 74
0
 40
0
 40
0
 40
0
 40
0
 40
1
 40
1
 40
1
 40
1
 10
-2.545201
 20
1.482689
 30
0.0
 10
-2.560435
 20
1.445910
 30
0.0
 10
-2.552014
 20
1.403576
 30
0.0
 10
-2.523865
 20
1.375426
 30
0.0
  0
SPLINE
  5
19c
100
AcDbEntity
  8
Lights
 62
7
100
AcDbSpline
 70
8
 71
3
 72
8
 73
4
 74
0
 40
0
 40
0
 40
0
 40
0
 40
1
 40
1
 40
1
 40
1
 10
-2.523865
 20
1.375426
 30
0.0
 10
-2.495715
 20
1.347277
 30
0.0
 10
-2.453381
 20
1.338856
 30
0.0
 10
-2.416602
 20
1.354090
 30
0.0
  0
SPLINE
  5
19d
100
AcDbEntity
  8
Lights
 62
7
100
AcDbSpline
 70
8
 71
3
 72
8
 73
4
 74
0
 40
0
 40
0
 40
0
 40
0
 40
1
 40
1
 40
1
 40
1
 10
-2.416602
 20
1.354090
 30
0.0
 10
-2.379823
 20
1.369325
 30
0.0
 10
-2.355842
 20
1.405214
 30
0.0
 10
-2.355842
 20
1.445023
 30
0.0
  0
SPLINE
  5
19e
100
AcDbEntity
  8
Lights
 62
7
100
AcDbSpline
 70
8
 71
3
 72
8
 73
4
 74
0
 40
0
 40
0
 40
0
 40
0
 40
1
 40
1
 40
1
 40
1
 10
-2.355842
 20
1.445023
 30
0.0
 10
-2.355842
 20
1.471127
 30
0.0
 10
-2.366212
 20
1.496162
 30
0.0
 10
-2.384670
 20
1.514620
 30
0.0
  0
SPLINE
  5
19f
100
AcDbEntity
  8
Lights
 62
7
100
AcDbSpline
 70
8
 71
3
 72
8
 73
4
 74
0
 40
0
 40
0
 40
0
 40
0
 40
1
 40
1
 40
1
 40
1
 10
-2.384670
 20
1.514620
 30
0.0
 10
-2.403129
 20
1.533079
 30
0.0
 10
-2.428164
 20
1.543448
 30
0.0
 10
-2.454268
 20
1.543448
 30
0.0
  0
LWPOLYLINE
  5
1a0
100
AcDbEntity
  8
Lights
 62
7
100
AcDbPolyline
 90
1
 70
1
 10
-2.454268
 20
1.559196
 30
0.0
  0
SPLINE
  5
1a1
100
AcDbEntity
  8
Lights
 62
7
100
AcDbSpline
 70
8
 71
3
 72
8
 73
4
 74
0
 40
0
 40
0
 40
0
 40
0
 40
1
 40
1
 40
1
 40
1
 10
-2.800409
 20
1.358724
 30
0.0
 10
-2.846588
 20
1.358724
 30
0.0
 10
-2.888220
 20
1.330907
 30
0.0
 10
-2.905892
 20
1.288243
 30
0.0
  0
SPLINE
  5
1a2
100
AcDbEntity
  8
Lights
 62
7
100
AcDbSpline
 70
8
 71
3
 72
8
 73
4
 74
0
 40
0
 40
0
 40
0
 40
0
 40
1
 40
1
 40
1
 40
1
 10
-2.905892
 20
1.288243
 30
0.0
 10
-2.923563
 20
1.245579
 30
0.0
 10
-2.913795
 20
1.196471
 30
0.0
 10
-2.881142
 20
1.163818
 30
0.0
  0
SPLINE
  5
1a3
100
AcDbEntity
  8
Lights
 62
7
100
AcDbSpline
 70
8
 71
3
 72
8
 73
4
 74
0
 40
0
 40
0
 40
0
 40
0
 40
1
 40
1
 40
1
 40
1
 10
-2.881142
 20
1.163818
 30
0.0
 10
-2.848489
 20
1.131165
 30
0.0
 10
-2.799381
 20
1.121397
 30
0.0
 10
-2.756717
 20
1.139068
 30
0.0
  0
SPLINE
  5
1a4
100
AcDbEntity
  8
Lights
 62
7
100
AcDbSpline
 70
8
 71
3
 72
8
 73
4
 74
0
 40
0
 40
0
 40
0
 40
0
 40
1
 40
1
 40
1
 40
1
 10
-2.756717
 20
1.139068
 30
0.0
 10
-2.714053
 20
1.156740
 30
0.0
 10
-2.686236
 20
1.198372
 30
0.0
 10
-2.686236
 20
1.244551
 30
0.0
  0
SPLINE
  5
1a5
100
AcDbEntity
  8
Lights
 62
7
100
AcDbSpline
 70
8
 71
3
 72
8
 73
4
 74
0
 40
0
 40
0
 40
0
 40
0
 40
1
 40
1
 40
1
 40
1
 10
-2.686236
 20
1.244551
 30
0.0
 10
-2.686236
 20
1.274831
 30
0.0
 10
-2.698265
 20
1.303872
 30
0.0
 10
-2.719677
 20
1.325283
 30
0.0
  0
SPLINE
  5
1a6
100
AcDbEntity
  8
Lights
 62
7
100
AcDbSpline
 70
8
 71
3
 72
8
 73
4
 74
0
 40
0
 40
0
 40
0
 40
0
 40
1
 40
1
 40
1
 40
1
 10
-2.719677
 20
1.325283
 30
0.0
 10
-2.741088
 20
1.346695
 30
0.0
 10
-2.770129
 20
1.358724
 30
0.0
 10
-2.800409
 20
1.358724
 30
0.0
  0
LWPOLYLINE
  5
1a7
100
AcDbEntity
  8
Lights
 62
7
100
AcDbPolyline
 90
1
 70
1
 10
-2.454268
 20
1.543448
 30
0.0
  0
SPLINE
  5
1a8
100
AcDbEntity
  8
Lights
 62
7
100
AcDbSpline
 70
8
 71
3
 72
8
 73
4
 74
0
 40
0
 40
0
 40
0
 40
0
 40
1
 40
1
 40
1
 40
1
 10
-2.800409
 20
1.342976
 30
0.0
 10
-2.840219
 20
1.342976
 30
0.0
 10
-2.876108
 20
1.318995
 30
0.0
 10
-2.891342
 20
1.282216
 30
0.0
  0
SPLINE
  5
1a9
100
AcDbEntity
  8
Lights
 62
7
100
AcDbSpline
 70
8
 71
3
 72
8
 73
4
 74
0
 40
0
 40
0
 40
0
 40
0
 40
1
 40
1
 40
1
 40
1
 10
-2.891342
 20
1.282216
 30
0.0
 10
-2.906577
 20
1.245438
 30
0.0
 10
-2.898156
 20
1.203103
 30
0.0
 10
-2.870006
 20
1.174954
 30
0.0
  0
SPLINE
  5
1aa
100
AcDbEntity
  8
Lights
 62
7
100
AcDbSpline
 70
8
 71
3
 72
8
 73
4
 74
0
 40
0
 40
0
 40
0
 40
0
 40
1
 40
1
 40
1
 40
1
 10
-2.870006
 20
1.174954
 30
0.0
 10
-2.841857
 20
1.146804
 30
0.0
 10
-2.799523
 20
1.138383
 30
0.0
 10
-2.762744
 20
1.153618
 30
0.0
  0
SPLINE
  5
1ab
100
AcDbEntity
  8
Lights
 62
7
100
AcDbSpline
 70
8
 71
3
 72
8
 73
4
 74
0
 40
0
 40
0
 40
0
 40
0
 40
1
 40
1
 40
1
 40
1
 10
-2.762744
 20
1.153618
 30
0.0
 10
-2.725965
 20
1.168852
 30
0.0
 10
-2.701984
 20
1.204742
 30
0.0
 10
-2.701984
 20
1.244551
 30
0.0
  0
SPLINE
  5
1ac
100
AcDbEntity
  8
Lights
 62
7
100
AcDbSpline
 70
8
 71
3
 72
8
 73
4
 74
0
 40
0
 40
0
 40
0
 40
0
 40
1
 40
1
 40
1
 40
1
 10
-2.701984
 20
1.244551
 30
0.0
 10
-2.701984
 20
1.270655
 30
0.0
 10
-2.712354
 20
1.295690
 30
0.0
 10
-2.730812
 20
1.314148
 30
0.0
  0
SPLINE
  5
1ad
100
AcDbEntity
  8
Lights
 62
7
100
AcDbSpline
 70
8
 71
3
 72
8
 73
4
 74
0
 40
0
 40
0
 40
0
 40
0
 40
1
 40
1
 40
1
 40
1
 10
-2.730812
 20
1.314148
 30
0.0
 10
-2.749270
 20
1.332606
 30
0.0
 10
-2.774305
 20
1.342976
 30
0.0
 10
-2.800409
 20
1.342976
 30
0.0
  0
LWPOLYLINE
  5
1ae
100
AcDbEntity
  8
Lights
 62
7
100
AcDbPolyline
 90
1
 70
1
 10
-2.800409
 20
1.358724
 30
0.0
  0
SPLINE
  5
1af
100
AcDbEntity
  8
Lights
 62
7
100
AcDbSpline
 70
8
 71
3
 72
8
 73
4
 74
0
 40
0
 40
0
 40
0
 40
0
 40
1
 40
1
 40
1
 40
1
 10
-3.001472
 20
-0.100646
 30
0.0
 10
-3.047651
 20
-0.100646
 30
0.0
 10
-3.089283
 20
-0.128463
 30
0.0
 10
-3.106955
 20
-0.171127
 30
0.0
  0
SPLINE
  5
1b0
100
AcDbEntity
  8
Lights
 62
7
100
AcDbSpline
 70
8
 71
3
 72
8
 73
4
 74
0
 40
0
 40
0
 40
0
 40
0
 40
1
 40
1
 40
1
 40
1
 10
-3.106955
 20
-0.171127
 30
0.0
 10
-3.124626
 20
-0.213791
 30
0.0
 10
-3.114858
 20
-0.262899
 30
0.0
 10
-3.082205
 20
-0.295552
 30
0.0
  0
SPLINE
  5
1b1
100
AcDbEntity
  8
Lights
 62
7
100
AcDbSpline
 70
8
 71
3
 72
8
 73
4
 74
0
 40
0
 40
0
 40
0
 40
0
 40
1
 40
1
 40
1
 40
1
 10
-3.082205
 20
-0.295552
 30
0.0
 10
-3.049552
 20
-0.328205
 30
0.0
 10
-3.000444
 20
-0.337973
 30
0.0
 10
-2.957780
 20
-0.320302
 30
0.0
  0
SPLINE
  5
1b2
100
AcDbEntity
  8
Lights
 62
7
100
AcDbSpline
 70
8
 71
3
 72
8
 73
4
 74
0
 40
0
 40
0
 40
0
 40
0
 40
1
 40
1
 40
1
 40
1
 10
-2.957780
 20
-0.320302
 30
0.0
 10
-2.915116
 20
-0.302630
 30
0.0
 10
-2.887299
 20
-0.260998
 30
0.0
 10
-2.887299
 20
-0.214819
 30
0.0
  0
SPLINE
  5
1b3
100
AcDbEntity
  8
Lights
 62
7
100
AcDbSpline
 70
8
 71
3
 72
8
 73
4
 74
0
 40
0
 40
0
 40
0
 40
0
 40
1
 40
1
 40
1
 40
1
 10
-2.887299
 20
-0.214819
 30
0.0
 10
-2.887299
 20
-0.184539
 30
0.0
 10
-2.899328
 20
-0.155498
 30
0.0
 10
-2.920740
 20
-0.134087
 30
0.0
  0
SPLINE
  5
1b4
100
AcDbEntity
  8
Lights
 62
7
100
AcDbSpline
 70
8
 71
3
 72
8
 73
4
 74
0
 40
0
 40
0
 40
0
 40
0
 40
1
 40
1
 40
1
 40
1
 10
-2.920740
 20
-0.134087
 30
0.0
 10
-2.942151
 20
-0.112675
 30
0.0
 10
-2.971192
 20
-0.100646
 30
0.0
 10
-3.001472
 20
-0.100646
 30
0.0
  0
LWPOLYLINE
  5
1b5
100
AcDbEntity
  8
Lights
 62
7
100
AcDbPolyline
 90
1
 70
1
 10
-2.800409
 20
1.342976
 30
0.0
  0
SPLINE
  5
1b6
100
AcDbEntity
  8
Lights
 62
7
100
AcDbSpline
 70
8
 71
3
 72
8
 73
4
 74
0
 40
0
 40
0
 40
0
 40
0
 40
1
 40
1
 40
1
 40
1
 10
-3.001472
 20
-0.116394
 30
0.0
 10
-3.041282
 20
-0.116394
 30
0.0
 10
-3.077171
 20
-0.140375
 30
0.0
 10
-3.092405
 20
-0.177154
 30
0.0
  0
SPLINE
  5
1b7
100
AcDbEntity
  8
Lights
 62
7
100
AcDbSpline
 70
8
 71
3
 72
8
 73
4
 74
0
 40
0
 40
0
 40
0
 40
0
 40
1
 40
1
 40
1
 40
1
 10
-3.092405
 20
-0.177154
 30
0.0
 10
-3.107640
 20
-0.213933
 30
0.0
 10
-3.099219
 20
-0.256267
 30
0.0
 10
-3.071069
 20
-0.284416
 30
0.0
  0
SPLINE
  5
1b8
100
AcDbEntity
  8
Lights
 62
7
100
AcDbSpline
 70
8
 71
3
 72
8
 73
4
 74
0
 40
0
 40
0
 40
0
 40
0
 40
1
 40
1
 40
1
 40
1
 10
-3.071069
 20
-0.284416
 30
0.0
 10
-3.042920
 20
-0.312566
 30
0.0
 10
-3.000586
 20
-0.320987
 30
0.0
 10
-2.963807
 20
-0.305752
 30
0.0
  0
SPLINE
  5
1b9
100
AcDbEntity
  8
Lights
 62
7
100
AcDbSpline
 70
8
 71
3
 72
8
 73
4
 74
0
 40
0
 40
0
 40
0
 40
0
 40
1
 40
1
 40
1
 40
1
 10
-2.963807
 20
-0.305752
 30
0.0
 10
-2.927028
 20
-0.290518
 30
0.0
 10
-2.903047
 20
-0.254629
 30
0.0
 10
-2.903047
 20
-0.214819
 30
0.0
  0
SPLINE
  5
1ba
100
AcDbEntity
  8
Lights
 62
7
100
AcDbSpline
 70
8
 71
3
 72
8
 73
4
 74
0
 40
0
 40
0
 40
0
 40
0
 40
1
 40
1
 40
1
 40
1
 10
-2.903047
 20
-0.214819
 30
0.0
 10
-2.903047
 20
-0.188715
 30
0.0
 10
-2.913417
 20
-0.163680
 30
0.0
 10
-2.931875
 20
-0.145222
 30
0.0
  0
SPLINE
  5
1bb
100
AcDbEntity
  8
Lights
 62
7
100
AcDbSpline
 70
8
 71
3
 72
8
 73
4
 74
0
 40
0
 40
0
 40
0
 40
0
 40
1
 40
1
 40
1
 40
1
 10
-2.931875
 20
-0.145222
 30
0.0
 10
-2.950333
 20
-0.126764
 30
0.0
 10
-2.975368
 20
-0.116394
 30
0.0
 10
-3.001472
 20
-0.116394
 30
0.0
  0
LWPOLYLINE
  5
1bc
100
AcDbEntity
  8
Lights
 62
7
100
AcDbPolyline
 90
1
 70
1
 10
-3.001472
 20
-0.100646
 30
0.0
  0
SPLINE
  5
1bd
100
AcDbEntity
  8
Lights
 62
7
100
AcDbSpline
 70
8
 71
3
 72
8
 73
4
 74
0
 40
0
 40
0
 40
0
 40
0
 40
1
 40
1
 40
1
 40
1
 10
-2.806315
 20
1.010811
 30
0.0
 10
-2.852494
 20
1.010811
 30
0.0
 10
-2.894125
 20
0.982993
 30
0.0
 10
-2.911797
 20
0.940330
 30
0.0
  0
SPLINE
  5
1be
100
AcDbEntity
  8
Lights
 62
7
100
AcDbSpline
 70
8
 71
3
 72
8
 73
4
 74
0
 40
0
 40
0
 40
0
 40
0
 40
1
 40
1
 40
1
 40
1
 10
-2.911797
 20
0.940330
 30
0.0
 10
-2.929469
 20
0.897666
 30
0.0
 10
-2.919701
 20
0.848558
 30
0.0
 10
-2.887047
 20
0.815905
 30
0.0
  0
SPLINE
  5
1bf
100
AcDbEntity
  8
Lights
 62
7
100
AcDbSpline
 70
8
 71
3
 72
8
 73
4
 74
0
 40
0
 40
0
 40
0
 40
0
 40
1
 40
1
 40
1
 40
1
 10
-2.887047
 20
0.815905
 30
0.0
 10
-2.854394
 20
0.783251
 30
0.0
 10
-2.805286
 20
0.773483
 30
0.0
 10
-2.762623
 20
0.791155
 30
0.0
  0
SPLINE
  5
1c0
100
AcDbEntity
  8
Lights
 62
7
100
AcDbSpline
 70
8
 71
3
 72
8
 73
4
 74
0
 40
0
 40
0
 40
0
 40
0
 40
1
 40
1
 40
1
 40
1
 10
-2.762623
 20
0.791155
 30
0.0
 10
-2.719959
 20
0.808827
 30
0.0
 10
-2.692142
 20
0.850459
 30
0.0
 10
-2.692142
 20
0.896637
 30
0.0
  0
SPLINE
  5
1c1
100
AcDbEntity
  8
Lights
 62
7
100
AcDbSpline
 70
8
 71
3
 72
8
 73
4
 74
0
 40
0
 40
0
 40
0
 40
0
 40
1
 40
1
 40
1
 40
1
 10
-2.692142
 20
0.896637
 30
0.0
 10
-2.692142
 20
0.926918
 30
0.0
 10
-2.704170
 20
0.955958
 30
0.0
 10
-2.725582
 20
0.977370
 30
0.0
  0
SPLINE
  5
1c2
100
AcDbEntity
  8
Lights
 62
7
100
AcDbSpline
 70
8
 71
3
 72
8
 73
4
 74
0
 40
0
 40
0
 40
0
 40
0
 40
1
 40
1
 40
1
 40
1
 10
-2.725582
 20
0.977370
 30
0.0
 10
-2.746994
 20
0.998782
 30
0.0
 10
-2.776034
 20
1.010811
 30
0.0
 10
-2.806315
 20
1.010811
 30
0.0
  0
LWPOLYLINE
  5
1c3
100
AcDbEntity
  8
Lights
 62
7
100
AcDbPolyline
 90
1
 70
1
 10
-3.001472
 20
-0.116394
 30
0.0
  0
SPLINE
  5
1c4
100
AcDbEntity
  8
Lights
 62
7
100
AcDbSpline
 70
8
 71
3
 72
8
 73
4
 74
0
 40
0
 40
0
 40
0
 40
0
 40
1
 40
1
 40
1
 40
1
 10
-2.806315
 20
0.995063
 30
0.0
 10
-2.846124
 20
0.995063
 30
0.0
 10
-2.882013
 20
0.971082
 30
0.0
 10
-2.897248
 20
0.934303
 30
0.0
  0
SPLINE
  5
1c5
100
AcDbEntity
  8
Lights
 62
7
100
AcDbSpline
 70
8
 71
3
 72
8
 73
4
 74
0
 40
0
 40
0
 40
0
 40
0
 40
1
 40
1
 40
1
 40
1
 10
-2.897248
 20
0.934303
 30
0.0
 10
-2.912482
 20
0.897524
 30
0.0
 10
-2.904061
 20
0.855190
 30
0.0
 10
-2.875912
 20
0.827040
 30
0.0
  0
SPLINE
  5
1c6
100
AcDbEntity
  8
Lights
 62
7
100
AcDbSpline
 70
8
 71
3
 72
8
 73
4
 74
0
 40
0
 40
0
 40
0
 40
0
 40
1
 40
1
 40
1
 40
1
 10
-2.875912
 20
0.827040
 30
0.0
 10
-2.847762
 20
0.798891
 30
0.0
 10
-2.805428
 20
0.790470
 30
0.0
 10
-2.768649
 20
0.805704
 30
0.0
  0
SPLINE
  5
1c7
100
AcDbEntity
  8
Lights
 62
7
100
AcDbSpline
 70
8
 71
3
 72
8
 73
4
 74
0
 40
0
 40
0
 40
0
 40
0
 40
1
 40
1
 40
1
 40
1
 10
-2.768649
 20
0.805704
 30
0.0
 10
-2.731870
 20
0.820939
 30
0.0
 10
-2.707890
 20
0.856828
 30
0.0
 10
-2.707890
 20
0.896637
 30
0.0
  0
SPLINE
  5
1c8
100
AcDbEntity
  8
Lights
 62
7
100
AcDbSpline
 70
8
 71
3
 72
8
 73
4
 74
0
 40
0
 40
0
 40
0
 40
0
 40
1
 40
1
 40
1
 40
1
 10
-2.707890
 20
0.896637
 30
0.0
 10
-2.707890
 20
0.922741
 30
0.0
 10
-2.718259
 20
0.947776
 30
0.0
 10
-2.736718
 20
0.966235
 30
0.0
  0
SPLINE
  5
1c9
100
AcDbEntity
  8
Lights
 62
7
100
AcDbSpline
 70
8
 71
3
 72
8
 73
4
 74
0
 40
0
 40
0
 40
0
 40
0
 40
1
 40
1
 40
1
 40
1
 10
-2.736718
 20
0.966235
 30
0.0
 10
-2.755176
 20
0.984693
 30
0.0
 10
-2.780211
 20
0.995063
 30
0.0
 10
-2.806315
 20
0.995063
 30
0.0
  0
LWPOLYLINE
  5
1ca
100
AcDbEntity
  8
Lights
 62
7
100
AcDbPolyline
 90
1
 70
1
 10
-2.806315
 20
1.010811
 30
0.0
  0
SPLINE
  5
1cb
100
AcDbEntity
  8
Lights
 62
7
100
AcDbSpline
 70
8
 71
3
 72
8
 73
4
 74
0
 40
0
 40
0
 40
0
 40
0
 40
1
 40
1
 40
1
 40
1
 10
-2.835173
 20
0.256874
 30
0.0
 10
-2.881352
 20
0.256874
 30
0.0
 10
-2.922983
 20
0.229056
 30
0.0
 10
-2.940655
 20
0.186393
 30
0.0
  0
SPLINE
  5
1cc
100
AcDbEntity
  8
Lights
 62
7
100
AcDbSpline
 70
8
 71
3
 72
8
 73
4
 74
0
 40
0
 40
0
 40
0
 40
0
 40
1
 40
1
 40
1
 40
1
 10
-2.940655
 20
0.186393
 30
0.0
 10
-2.958327
 20
0.143729
 30
0.0
 10
-2.948559
 20
0.094621
 30
0.0
 10
-2.915906
 20
0.061968
 30
0.0
  0
SPLINE
  5
1cd
100
AcDbEntity
  8
Lights
 62
7
100
AcDbSpline
 70
8
 71
3
 72
8
 73
4
 74
0
 40
0
 40
0
 40
0
 40
0
 40
1
 40
1
 40
1
 40
1
 10
-2.915906
 20
0.061968
 30
0.0
 10
-2.883252
 20
0.029314
 30
0.0
 10
-2.834144
 20
0.019546
 30
0.0
 10
-2.791481
 20
0.037218
 30
0.0
  0
SPLINE
  5
1ce
100
AcDbEntity
  8
Lights
 62
7
100
AcDbSpline
 70
8
 71
3
 72
8
 73
4
 74
0
 40
0
 40
0
 40
0
 40
0
 40
1
 40
1
 40
1
 40
1
 10
-2.791481
 20
0.037218
 30
0.0
 10
-2.748817
 20
0.054890
 30
0.0
 10
-2.721000
 20
0.096522
 30
0.0
 10
-2.721000
 20
0.142700
 30
0.0
  0
SPLINE
  5
1cf
100
AcDbEntity
  8
Lights
 62
7
100
AcDbSpline
 70
8
 71
3
 72
8
 73
4
 74
0
 40
0
 40
0
 40
0
 40
0
 40
1
 40
1
 40
1
 40
1
 10
-2.721000
 20
0.142700
 30
0.0
 10
-2.721000
 20
0.172981
 30
0.0
 10
-2.733029
 20
0.202021
 30
0.0
 10
-2.754440
 20
0.223433
 30
0.0
  0
SPLINE
  5
1d0
100
AcDbEntity
  8
Lights
 62
7
100
AcDbSpline
 70
8
 71
3
 72
8
 73
4
 74
0
 40
0
 40
0
 40
0
 40
0
 40
1
 40
1
 40
1
 40
1
 10
-2.754440
 20
0.223433
 30
0.0
 10
-2.775852
 20
0.244845
 30
0.0
 10
-2.804892
 20
0.256874
 30
0.0
 10
-2.835173
 20
0.256874
 30
0.0
  0
LWPOLYLINE
  5
1d1
100
AcDbEntity
  8
Lights
 62
7
100
AcDbPolyline
 90
1
 70
1
 10
-2.806315
 20
0.995063
 30
0.0
  0
SPLINE
  5
1d2
100
AcDbEntity
  8
Lights
 62
7
100
AcDbSpline
 70
8
 71
3
 72
8
 73
4
 74
0
 40
0
 40
0
 40
0
 40
0
 40
1
 40
1
 40
1
 40
1
 10
-2.835173
 20
0.241126
 30
0.0
 10
-2.874982
 20
0.241126
 30
0.0
 10
-2.910872
 20
0.217145
 30
0.0
 10
-2.926106
 20
0.180366
 30
0.0
  0
SPLINE
  5
1d3
100
AcDbEntity
  8
Lights
 62
7
100
AcDbSpline
 70
8
 71
3
 72
8
 73
4
 74
0
 40
0
 40
0
 40
0
 40
0
 40
1
 40
1
 40
1
 40
1
 10
-2.926106
 20
0.180366
 30
0.0
 10
-2.941340
 20
0.143587
 30
0.0
 10
-2.932920
 20
0.101253
 30
0.0
 10
-2.904770
 20
0.073103
 30
0.0
  0
SPLINE
  5
1d4
100
AcDbEntity
  8
Lights
 62
7
100
AcDbSpline
 70
8
 71
3
 72
8
 73
4
 74
0
 40
0
 40
0
 40
0
 40
0
 40
1
 40
1
 40
1
 40
1
 10
-2.904770
 20
0.073103
 30
0.0
 10
-2.876621
 20
0.044954
 30
0.0
 10
-2.834286
 20
0.036533
 30
0.0
 10
-2.797507
 20
0.051767
 30
0.0
  0
SPLINE
  5
1d5
100
AcDbEntity
  8
Lights
 62
7
100
AcDbSpline
 70
8
 71
3
 72
8
 73
4
 74
0
 40
0
 40
0
 40
0
 40
0
 40
1
 40
1
 40
1
 40
1
 10
-2.797507
 20
0.051767
 30
0.0
 10
-2.760728
 20
0.067002
 30
0.0
 10
-2.736748
 20
0.102891
 30
0.0
 10
-2.736748
 20
0.142700
 30
0.0
  0
SPLINE
  5
1d6
100
AcDbEntity
  8
Lights
 62
7
100
AcDbSpline
 70
8
 71
3
 72
8
 73
4
 74
0
 40
0
 40
0
 40
0
 40
0
 40
1
 40
1
 40
1
 40
1
 10
-2.736748
 20
0.142700
 30
0.0
 10
-2.736748
 20
0.168804
 30
0.0
 10
-2.747118
 20
0.193839
 30
0.0
 10
-2.765576
 20
0.212298
 30
0.0
  0
SPLINE
  5
1d7
100
AcDbEntity
  8
Lights
 62
7
100
AcDbSpline
 70
8
 71
3
 72
8
 73
4
 74
0
 40
0
 40
0
 40
0
 40
0
 40
1
 40
1
 40
1
 40
1
 10
-2.765576
 20
0.212298
 30
0.0
 10
-2.784034
 20
0.230756
 30
0.0
 10
-2.809069
 20
0.241126
 30
0.0
 10
-2.835173
 20
0.241126
 30
0.0
  0
LWPOLYLINE
  5
1d8
100
AcDbEntity
  8
Lights
 62
7
100
AcDbPolyline
 90
1
 70
1
 10
-2.835173
 20
0.256874
 30
0.0
  0
SPLINE
  5
1d9
100
AcDbEntity
  8
Lights
 62
7
100
AcDbSpline
 70
8
 71
3
 72
8
 73
4
 74
0
 40
0
 40
0
 40
0
 40
0
 40
1
 40
1
 40
1
 40
1
 10
-2.452771
 20
0.876283
 30
0.0
 10
-2.498950
 20
0.876283
 30
0.0
 10
-2.540582
 20
0.848466
 30
0.0
 10
-2.558254
 20
0.805802
 30
0.0
  0
SPLINE
  5
1da
100
AcDbEntity
  8
Lights
 62
7
100
AcDbSpline
 70
8
 71
3
 72
8
 73
4
 74
0
 40
0
 40
0
 40
0
 40
0
 40
1
 40
1
 40
1
 40
1
 10
-2.558254
 20
0.805802
 30
0.0
 10
-2.575926
 20
0.763138
 30
0.0
 10
-2.566157
 20
0.714030
 30
0.0
 10
-2.533504
 20
0.681377
 30
0.0
  0
SPLINE
  5
1db
100
AcDbEntity
  8
Lights
 62
7
100
AcDbSpline
 70
8
 71
3
 72
8
 73
4
 74
0
 40
0
 40
0
 40
0
 40
0
 40
1
 40
1
 40
1
 40
1
 10
-2.533504
 20
0.681377
 30
0.0
 10
-2.500851
 20
0.648724
 30
0.0
 10
-2.451743
 20
0.638956
 30
0.0
 10
-2.409079
 20
0.656628
 30
0.0
  0
SPLINE
  5
1dc
100
AcDbEntity
  8
Lights
 62
7
100
AcDbSpline
 70
8
 71
3
 72
8
 73
4
 74
0
 40
0
 40
0
 40
0
 40
0
 40
1
 40
1
 40
1
 40
1
 10
-2.409079
 20
0.656628
 30
0.0
 10
-2.366416
 20
0.674299
 30
0.0
 10
-2.338598
 20
0.715931
 30
0.0
 10
-2.338598
 20
0.762110
 30
0.0
  0
SPLINE
  5
1dd
100
AcDbEntity
  8
Lights
 62
7
100
AcDbSpline
 70
8
 71
3
 72
8
 73
4
 74
0
 40
0
 40
0
 40
0
 40
0
 40
1
 40
1
 40
1
 40
1
 10
-2.338598
 20
0.762110
 30
0.0
 10
-2.338598
 20
0.792390
 30
0.0
 10
-2.350627
 20
0.821431
 30
0.0
 10
-2.372039
 20
0.842843
 30
0.0
  0
SPLINE
  5
1de
100
AcDbEntity
  8
Lights
 62
7
100
AcDbSpline
 70
8
 71
3
 72
8
 73
4
 74
0
 40
0
 40
0
 40
0
 40
0
 40
1
 40
1
 40
1
 40
1
 10
-2.372039
 20
0.842843
 30
0.0
 10
-2.393450
 20
0.864254
 30
0.0
 10
-2.422491
 20
0.876283
 30
0.0
 10
-2.452771
 20
0.876283
 30
0.0
  0
LWPOLYLINE
  5
1df
100
AcDbEntity
  8
Lights
 62
7
100
AcDbPolyline
 90
1
 70
1
 10
-2.835173
 20
0.241126
 30
0.0
  0
SPLINE
  5
1e0
100
AcDbEntity
  8
Lights
 62
7
100
AcDbSpline
 70
8
 71
3
 72
8
 73
4
 74
0
 40
0
 40
0
 40
0
 40
0
 40
1
 40
1
 40
1
 40
1
 10
-2.452771
 20
0.860535
 30
0.0
 10
-2.492581
 20
0.860535
 30
0.0
 10
-2.528470
 20
0.836555
 30
0.0
 10
-2.543704
 20
0.799776
 30
0.0
  0
SPLINE
  5
1e1
100
AcDbEntity
  8
Lights
 62
7
100
AcDbSpline
 70
8
 71
3
 72
8
 73
4
 74
0
 40
0
 40
0
 40
0
 40
0
 40
1
 40
1
 40
1
 40
1
 10
-2.543704
 20
0.799776
 30
0.0
 10
-2.558939
 20
0.762997
 30
0.0
 10
-2.550518
 20
0.720662
 30
0.0
 10
-2.522369
 20
0.692513
 30
0.0
  0
SPLINE
  5
1e2
100
AcDbEntity
  8
Lights
 62
7
100
AcDbSpline
 70
8
 71
3
 72
8
 73
4
 74
0
 40
0
 40
0
 40
0
 40
0
 40
1
 40
1
 40
1
 40
1
 10
-2.522369
 20
0.692513
 30
0.0
 10
-2.494219
 20
0.664363
 30
0.0
 10
-2.451885
 20
0.655942
 30
0.0
 10
-2.415106
 20
0.671177
 30
0.0
  0
SPLINE
  5
1e3
100
AcDbEntity
  8
Lights
 62
7
100
AcDbSpline
 70
8
 71
3
 72
8
 73
4
 74
0
 40
0
 40
0
 40
0
 40
0
 40
1
 40
1
 40
1
 40
1
 10
-2.415106
 20
0.671177
 30
0.0
 10
-2.378327
 20
0.686411
 30
0.0
 10
-2.354346
 20
0.722301
 30
0.0
 10
-2.354346
 20
0.762110
 30
0.0
  0
SPLINE
  5
1e4
100
AcDbEntity
  8
Lights
 62
7
100
AcDbSpline
 70
8
 71
3
 72
8
 73
4
 74
0
 40
0
 40
0
 40
0
 40
0
 40
1
 40
1
 40
1
 40
1
 10
-2.354346
 20
0.762110
 30
0.0
 10
-2.354346
 20
0.788214
 30
0.0
 10
-2.364716
 20
0.813249
 30
0.0
 10
-2.383174
 20
0.831707
 30
0.0
  0
SPLINE
  5
1e5
100
AcDbEntity
  8
Lights
 62
7
100
AcDbSpline
 70
8
 71
3
 72
8
 73
4
 74
0
 40
0
 40
0
 40
0
 40
0
 40
1
 40
1
 40
1
 40
1
 10
-2.383174
 20
0.831707
 30
0.0
 10
-2.401633
 20
0.850165
 30
0.0
 10
-2.426667
 20
0.860535
 30
0.0
 10
-2.452771
 20
0.860535
 30
0.0
  0
LWPOLYLINE
  5
1e6
100
AcDbEntity
  8
Lights
 62
7
100
AcDbPolyline
 90
1
 70
1
 10
-2.452771
 20
0.876283
 30
0.0
  0
SPLINE
  5
1e7
100
AcDbEntity
  8
Lights
 62
7
100
AcDbSpline
 70
8
 71
3
 72
8
 73
4
 74
0
 40
0
 40
0
 40
0
 40
0
 40
1
 40
1
 40
1
 40
1
 10
-2.429701
 20
-0.527103
 30
0.0
 10
-2.475879
 20
-0.527103
 30
0.0
 10
-2.517511
 20
-0.554920
 30
0.0
 10
-2.535183
 20
-0.597584
 30
0.0
  0
SPLINE
  5
1e8
100
AcDbEntity
  8
Lights
 62
7
100
AcDbSpline
 70
8
 71
3
 72
8
 73
4
 74
0
 40
0
 40
0
 40
0
 40
0
 40
1
 40
1
 40
1
 40
1
 10
-2.535183
 20
-0.597584
 30
0.0
 10
-2.552855
 20
-0.640247
 30
0.0
 10
-2.543087
 20
-0.689355
 30
0.0
 10
-2.510433
 20
-0.722009
 30
0.0
  0
SPLINE
  5
1e9
100
AcDbEntity
  8
Lights
 62
7
100
AcDbSpline
 70
8
 71
3
 72
8
 73
4
 74
0
 40
0
 40
0
 40
0
 40
0
 40
1
 40
1
 40
1
 40
1
 10
-2.510433
 20
-0.722009
 30
0.0
 10
-2.477780
 20
-0.754662
 30
0.0
 10
-2.428672
 20
-0.764430
 30
0.0
 10
-2.386008
 20
-0.746758
 30
0.0
  0
SPLINE
  5
1ea
100
AcDbEntity
  8
Lights
 62
7
100
AcDbSpline
 70
8
 71
3
 72
8
 73
4
 74
0
 40
0
 40
0
 40
0
 40
0
 40
1
 40
1
 40
1
 40
1
 10
-2.386008
 20
-0.746758
 30
0.0
 10
-2.343345
 20
-0.729086
 30
0.0
 10
-2.315527
 20
-0.687455
 30
0.0
 10
-2.315527
 20
-0.641276
 30
0.0
  0
SPLINE
  5
1eb
100
AcDbEntity
  8
Lights
 62
7
100
AcDbSpline
 70
8
 71
3
 72
8
 73
4
 74
0
 40
0
 40
0
 40
0
 40
0
 40
1
 40
1
 40
1
 40
1
 10
-2.315527
 20
-0.641276
 30
0.0
 10
-2.315527
 20
-0.610995
 30
0.0
 10
-2.327556
 20
-0.581955
 30
0.0
 10
-2.348968
 20
-0.560543
 30
0.0
  0
SPLINE
  5
1ec
100
AcDbEntity
  8
Lights
 62
7
100
AcDbSpline
 70
8
 71
3
 72
8
 73
4
 74
0
 40
0
 40
0
 40
0
 40
0
 40
1
 40
1
 40
1
 40
1
 10
-2.348968
 20
-0.560543
 30
0.0
 10
-2.370380
 20
-0.539132
 30
0.0
 10
-2.399420
 20
-0.527103
 30
0.0
 10
-2.429701
 20
-0.527103
 30
0.0
  0
LWPOLYLINE
  5
1ed
100
AcDbEntity
  8
Lights
 62
7
100
AcDbPolyline
 90
1
 70
1
 10
-2.452771
 20
0.860535
 30
0.0
  0
SPLINE
  5
1ee
100
AcDbEntity
  8
Lights
 62
7
100
AcDbSpline
 70
8
 71
3
 72
8
 73
4
 74
0
 40
0
 40
0
 40
0
 40
0
 40
1
 40
1
 40
1
 40
1
 10
-2.429701
 20
-0.542851
 30
0.0
 10
-2.469510
 20
-0.542851
 30
0.0
 10
-2.505399
 20
-0.566831
 30
0.0
 10
-2.520634
 20
-0.603610
 30
0.0
  0
SPLINE
  5
1ef
100
AcDbEntity
  8
Lights
 62
7
100
AcDbSpline
 70
8
 71
3
 72
8
 73
4
 74
0
 40
0
 40
0
 40
0
 40
0
 40
1
 40
1
 40
1
 40
1
 10
-2.520634
 20
-0.603610
 30
0.0
 10
-2.535868
 20
-0.640389
 30
0.0
 10
-2.527447
 20
-0.682724
 30
0.0
 10
-2.499298
 20
-0.710873
 30
0.0
  0
SPLINE
  5
1f0
100
AcDbEntity
  8
Lights
 62
7
100
AcDbSpline
 70
8
 71
3
 72
8
 73
4
 74
0
 40
0
 40
0
 40
0
 40
0
 40
1
 40
1
 40
1
 40
1
 10
-2.499298
 20
-0.710873
 30
0.0
 10
-2.471148
 20
-0.739023
 30
0.0
 10
-2.428814
 20
-0.747443
 30
0.0
 10
-2.392035
 20
-0.732209
 30
0.0
  0
SPLINE
  5
1f1
100
AcDbEntity
  8
Lights
 62
7
100
AcDbSpline
 70
8
 71
3
 72
8
 73
4
 74
0
 40
0
 40
0
 40
0
 40
0
 40
1
 40
1
 40
1
 40
1
 10
-2.392035
 20
-0.732209
 30
0.0
 10
-2.355256
 20
-0.716975
 30
0.0
 10
-2.331275
 20
-0.681085
 30
0.0
 10
-2.331275
 20
-0.641276
 30
0.0
  0
SPLINE
  5
1f2
100
AcDbEntity
  8
Lights
 62
7
100
AcDbSpline
 70
8
 71
3
 72
8
 73
4
 74
0
 40
0
 40
0
 40
0
 40
0
 40
1
 40
1
 40
1
 40
1
 10
-2.331275
 20
-0.641276
 30
0.0
 10
-2.331275
 20
-0.615172
 30
0.0
 10
-2.341645
 20
-0.590137
 30
0.0
 10
-2.360103
 20
-0.571679
 30
0.0
  0
SPLINE
  5
1f3
100
AcDbEntity
  8
Lights
 62
7
100
AcDbSpline
 70
8
 71
3
 72
8
 73
4
 74
0
 40
0
 40
0
 40
0
 40
0
 40
1
 40
1
 40
1
 40
1
 10
-2.360103
 20
-0.571679
 30
0.0
 10
-2.378562
 20
-0.553221
 30
0.0
 10
-2.403597
 20
-0.542851
 30
0.0
 10
-2.429701
 20
-0.542851
 30
0.0
  0
LWPOLYLINE
  5
1f4
100
AcDbEntity
  8
Lights
 62
7
100
AcDbPolyline
 90
1
 70
1
 10
-2.429701
 20
-0.527103
 30
0.0
  0
SPLINE
  5
1f5
100
AcDbEntity
  8
Lights
 62
7
100
AcDbSpline
 70
8
 71
3
 72
8
 73
4
 74
0
 40
0
 40
0
 40
0
 40
0
 40
1
 40
1
 40
1
 40
1
 10
-1.553913
 20
0.950063
 30
0.0
 10
-1.600092
 20
0.950063
 30
0.0
 10
-1.641724
 20
0.922245
 30
0.0
 10
-1.659396
 20
0.879582
 30
0.0
  0
SPLINE
  5
1f6
100
AcDbEntity
  8
Lights
 62
7
100
AcDbSpline
 70
8
 71
3
 72
8
 73
4
 74
0
 40
0
 40
0
 40
0
 40
0
 40
1
 40
1
 40
1
 40
1
 10
-1.659396
 20
0.879582
 30
0.0
 10
-1.677067
 20
0.836918
 30
0.0
 10
-1.667299
 20
0.787810
 30
0.0
 10
-1.634646
 20
0.755157
 30
0.0
  0
SPLINE
  5
1f7
100
AcDbEntity
  8
Lights
 62
7
100
AcDbSpline
 70
8
 71
3
 72
8
 73
4
 74
0
 40
0
 40
0
 40
0
 40
0
 40
1
 40
1
 40
1
 40
1
 10
-1.634646
 20
0.755157
 30
0.0
 10
-1.601993
 20
0.722503
 30
0.0
 10
-1.552885
 20
0.712735
 30
0.0
 10
-1.510221
 20
0.730407
 30
0.0
  0
SPLINE
  5
1f8
100
AcDbEntity
  8
Lights
 62
7
100
AcDbSpline
 70
8
 71
3
 72
8
 73
4
 74
0
 40
0
 40
0
 40
0
 40
0
 40
1
 40
1
 40
1
 40
1
 10
-1.510221
 20
0.730407
 30
0.0
 10
-1.467557
 20
0.748079
 30
0.0
 10
-1.439740
 20
0.789711
 30
0.0
 10
-1.439740
 20
0.835889
 30
0.0
  0
SPLINE
  5
1f9
100
AcDbEntity
  8
Lights
 62
7
100
AcDbSpline
 70
8
 71
3
 72
8
 73
4
 74
0
 40
0
 40
0
 40
0
 40
0
 40
1
 40
1
 40
1
 40
1
 10
-1.439740
 20
0.835889
 30
0.0
 10
-1.439740
 20
0.866170
 30
0.0
 10
-1.451769
 20
0.895210
 30
0.0
 10
-1.473181
 20
0.916622
 30
0.0
  0
SPLINE
  5
1fa
100
AcDbEntity
  8
Lights
 62
7
100
AcDbSpline
 70
8
 71
3
 72
8
 73
4
 74
0
 40
0
 40
0
 40
0
 40
0
 40
1
 40
1
 40
1
 40
1
 10
-1.473181
 20
0.916622
 30
0.0
 10
-1.494592
 20
0.938034
 30
0.0
 10
-1.523633
 20
0.950063
 30
0.0
 10
-1.553913
 20
0.950063
 30
0.0
  0
LWPOLYLINE
  5
1fb
100
AcDbEntity
  8
Lights
 62
7
100
AcDbPolyline
 90
1
 70
1
 10
-2.429701
 20
-0.542851
 30
0.0
  0
SPLINE
  5
1fc
100
AcDbEntity
  8
Lights
 62
7
100
AcDbSpline
 70
8
 71
3
 72
8
 73
4
 74
0
 40
0
 40
0
 40
0
 40
0
 40
1
 40
1
 40
1
 40
1
 10
-1.553913
 20
0.934315
 30
0.0
 10
-1.593722
 20
0.934315
 30
0.0
 10
-1.629612
 20
0.910334
 30
0.0
 10
-1.644846
 20
0.873555
 30
0.0
  0
SPLINE
  5
1fd
100
AcDbEntity
  8
Lights
 62
7
100
AcDbSpline
 70
8
 71
3
 72
8
 73
4
 74
0
 40
0
 40
0
 40
0
 40
0
 40
1
 40
1
 40
1
 40
1
 10
-1.644846
 20
0.873555
 30
0.0
 10
-1.660081
 20
0.836776
 30
0.0
 10
-1.651660
 20
0.794442
 30
0.0
 10
-1.623510
 20
0.766292
 30
0.0
  0
SPLINE
  5
1fe
100
AcDbEntity
  8
Lights
 62
7
100
AcDbSpline
 70
8
 71
3
 72
8
 73
4
 74
0
 40
0
 40
0
 40
0
 40
0
 40
1
 40
1
 40
1
 40
1
 10
-1.623510
 20
0.766292
 30
0.0
 10
-1.595361
 20
0.738143
 30
0.0
 10
-1.553026
 20
0.729722
 30
0.0
 10
-1.516247
 20
0.744956
 30
0.0
  0
SPLINE
  5
1ff
100
AcDbEntity
  8
Lights
 62
7
100
AcDbSpline
 70
8
 71
3
 72
8
 73
4
 74
0
 40
0
 40
0
 40
0
 40
0
 40
1
 40
1
 40
1
 40
1
 10
-1.516247
 20
0.744956
 30
0.0
 10
-1.479469
 20
0.760191
 30
0.0
 10
-1.455488
 20
0.796080
 30
0.0
 10
-1.455488
 20
0.835889
 30
0.0
  0
SPLINE
  5
200
100
AcDbEntity
  8
Lights
 62
7
100
AcDbSpline
 70
8
 71
3
 72
8
 73
4
 74
0
 40
0
 40
0
 40
0
 40
0
 40
1
 40
1
 40
1
 40
1
 10
-1.455488
 20
0.835889
 30
0.0
 10
-1.455488
 20
0.861993
 30
0.0
 10
-1.465858
 20
0.887028
 30
0.0
 10
-1.484316
 20
0.905486
 30
0.0
  0
SPLINE
  5
201
100
AcDbEntity
  8
Lights
 62
7
100
AcDbSpline
 70
8
 71
3
 72
8
 73
4
 74
0
 40
0
 40
0
 40
0
 40
0
 40
1
 40
1
 40
1
 40
1
 10
-1.484316
 20
0.905486
 30
0.0
 10
-1.502774
 20
0.923945
 30
0.0
 10
-1.527809
 20
0.934315
 30
0.0
 10
-1.553913
 20
0.934315
 30
0.0
  0
LWPOLYLINE
  5
202
100
AcDbEntity
  8
Lights
 62
7
100
AcDbPolyline
 90
1
 70
1
 10
-1.553913
 20
0.950063
 30
0.0
  0
SPLINE
  5
203
100
AcDbEntity
  8
Lights
 62
7
100
AcDbSpline
 70
8
 71
3
 72
8
 73
4
 74
0
 40
0
 40
0
 40
0
 40
0
 40
1
 40
1
 40
1
 40
1
 10
-1.678283
 20
0.568527
 30
0.0
 10
-1.724462
 20
0.568527
 30
0.0
 10
-1.766094
 20
0.540710
 30
0.0
 10
-1.783766
 20
0.498046
 30
0.0
  0
SPLINE
  5
204
100
AcDbEntity
  8
Lights
 62
7
100
AcDbSpline
 70
8
 71
3
 72
8
 73
4
 74
0
 40
0
 40
0
 40
0
 40
0
 40
1
 40
1
 40
1
 40
1
 10
-1.783766
 20
0.498046
 30
0.0
 10
-1.801437
 20
0.455383
 30
0.0
 10
-1.791669
 20
0.406275
 30
0.0
 10
-1.759016
 20
0.373621
 30
0.0
  0
SPLINE
  5
205
100
AcDbEntity
  8
Lights
 62
7
100
AcDbSpline
 70
8
 71
3
 72
8
 73
4
 74
0
 40
0
 40
0
 40
0
 40
0
 40
1
 40
1
 40
1
 40
1
 10
-1.759016
 20
0.373621
 30
0.0
 10
-1.726363
 20
0.340968
 30
0.0
 10
-1.677255
 20
0.331200
 30
0.0
 10
-1.634591
 20
0.348872
 30
0.0
  0
SPLINE
  5
206
100
AcDbEntity
  8
Lights
 62
7
100
AcDbSpline
 70
8
 71
3
 72
8
 73
4
 74
0
 40
0
 40
0
 40
0
 40
0
 40
1
 40
1
 40
1
 40
1
 10
-1.634591
 20
0.348872
 30
0.0
 10
-1.591927
 20
0.366543
 30
0.0
 10
-1.564110
 20
0.408175
 30
0.0
 10
-1.564110
 20
0.454354
 30
0.0
  0
SPLINE
  5
207
100
AcDbEntity
  8
Lights
 62
7
100
AcDbSpline
 70
8
 71
3
 72
8
 73
4
 74
0
 40
0
 40
0
 40
0
 40
0
 40
1
 40
1
 40
1
 40
1
 10
-1.564110
 20
0.454354
 30
0.0
 10
-1.564110
 20
0.484635
 30
0.0
 10
-1.576139
 20
0.513675
 30
0.0
 10
-1.597551
 20
0.535087
 30
0.0
  0
SPLINE
  5
208
100
AcDbEntity
  8
Lights
 62
7
100
AcDbSpline
 70
8
 71
3
 72
8
 73
4
 74
0
 40
0
 40
0
 40
0
 40
0
 40
1
 40
1
 40
1
 40
1
 10
-1.597551
 20
0.535087
 30
0.0
 10
-1.618962
 20
0.556498
 30
0.0
 10
-1.648003
 20
0.568527
 30
0.0
 10
-1.678283
 20
0.568527
 30
0.0
  0
LWPOLYLINE
  5
209
100
AcDbEntity
  8
Lights
 62
7
100
AcDbPolyline
 90
1
 70
1
 10
-1.553913
 20
0.934315
 30
0.0
  0
SPLINE
  5
20a
100
AcDbEntity
  8
Lights
 62
7
100
AcDbSpline
 70
8
 71
3
 72
8
 73
4
 74
0
 40
0
 40
0
 40
0
 40
0
 40
1
 40
1
 40
1
 40
1
 10
-1.678283
 20
0.552779
 30
0.0
 10
-1.718093
 20
0.552779
 30
0.0
 10
-1.753982
 20
0.528799
 30
0.0
 10
-1.769216
 20
0.492020
 30
0.0
  0
SPLINE
  5
20b
100
AcDbEntity
  8
Lights
 62
7
100
AcDbSpline
 70
8
 71
3
 72
8
 73
4
 74
0
 40
0
 40
0
 40
0
 40
0
 40
1
 40
1
 40
1
 40
1
 10
-1.769216
 20
0.492020
 30
0.0
 10
-1.784451
 20
0.455241
 30
0.0
 10
-1.776030
 20
0.412906
 30
0.0
 10
-1.747880
 20
0.384757
 30
0.0
  0
SPLINE
  5
20c
100
AcDbEntity
  8
Lights
 62
7
100
AcDbSpline
 70
8
 71
3
 72
8
 73
4
 74
0
 40
0
 40
0
 40
0
 40
0
 40
1
 40
1
 40
1
 40
1
 10
-1.747880
 20
0.384757
 30
0.0
 10
-1.719731
 20
0.356607
 30
0.0
 10
-1.677397
 20
0.348187
 30
0.0
 10
-1.640618
 20
0.363421
 30
0.0
  0
SPLINE
  5
20d
100
AcDbEntity
  8
Lights
 62
7
100
AcDbSpline
 70
8
 71
3
 72
8
 73
4
 74
0
 40
0
 40
0
 40
0
 40
0
 40
1
 40
1
 40
1
 40
1
 10
-1.640618
 20
0.363421
 30
0.0
 10
-1.603839
 20
0.378655
 30
0.0
 10
-1.579858
 20
0.414545
 30
0.0
 10
-1.579858
 20
0.454354
 30
0.0
  0
SPLINE
  5
20e
100
AcDbEntity
  8
Lights
 62
7
100
AcDbSpline
 70
8
 71
3
 72
8
 73
4
 74
0
 40
0
 40
0
 40
0
 40
0
 40
1
 40
1
 40
1
 40
1
 10
-1.579858
 20
0.454354
 30
0.0
 10
-1.579858
 20
0.480458
 30
0.0
 10
-1.590228
 20
0.505493
 30
0.0
 10
-1.608686
 20
0.523951
 30
0.0
  0
SPLINE
  5
20f
100
AcDbEntity
  8
Lights
 62
7
100
AcDbSpline
 70
8
 71
3
 72
8
 73
4
 74
0
 40
0
 40
0
 40
0
 40
0
 40
1
 40
1
 40
1
 40
1
 10
-1.608686
 20
0.523951
 30
0.0
 10
-1.627144
 20
0.542409
 30
0.0
 10
-1.652179
 20
0.552779
 30
0.0
 10
-1.678283
 20
0.552779
 30
0.0
  0
LWPOLYLINE
  5
210
100
AcDbEntity
  8
Lights
 62
7
100
AcDbPolyline
 90
1
 70
1
 10
-1.678283
 20
0.568527
 30
0.0
  0
SPLINE
  5
211
100
AcDbEntity
  8
Lights
 62
7
100
AcDbSpline
 70
8
 71
3
 72
8
 73
4
 74
0
 40
0
 40
0
 40
0
 40
0
 40
1
 40
1
 40
1
 40
1
 10
-1.856394
 20
0.151637
 30
0.0
 10
-1.902572
 20
0.151637
 30
0.0
 10
-1.944204
 20
0.123820
 30
0.0
 10
-1.961876
 20
0.081156
 30
0.0
  0
SPLINE
  5
212
100
AcDbEntity
  8
Lights
 62
7
100
AcDbSpline
 70
8
 71
3
 72
8
 73
4
 74
0
 40
0
 40
0
 40
0
 40
0
 40
1
 40
1
 40
1
 40
1
 10
-1.961876
 20
0.081156
 30
0.0
 10
-1.979548
 20
0.038493
 30
0.0
 10
-1.969779
 20
-0.010615
 30
0.0
 10
-1.937126
 20
-0.043268
 30
0.0
  0
SPLINE
  5
213
100
AcDbEntity
  8
Lights
 62
7
100
AcDbSpline
 70
8
 71
3
 72
8
 73
4
 74
0
 40
0
 40
0
 40
0
 40
0
 40
1
 40
1
 40
1
 40
1
 10
-1.937126
 20
-0.043268
 30
0.0
 10
-1.904473
 20
-0.075922
 30
0.0
 10
-1.855365
 20
-0.085690
 30
0.0
 10
-1.812701
 20
-0.068018
 30
0.0
  0
SPLINE
  5
214
100
AcDbEntity
  8
Lights
 62
7
100
AcDbSpline
 70
8
 71
3
 72
8
 73
4
 74
0
 40
0
 40
0
 40
0
 40
0
 40
1
 40
1
 40
1
 40
1
 10
-1.812701
 20
-0.068018
 30
0.0
 10
-1.770038
 20
-0.050346
 30
0.0
 10
-1.742220
 20
-0.008715
 30
0.0
 10
-1.742220
 20
0.037464
 30
0.0
  0
SPLINE
  5
215
100
AcDbEntity
  8
Lights
 62
7
100
AcDbSpline
 70
8
 71
3
 72
8
 73
4
 74
0
 40
0
 40
0
 40
0
 40
0
 40
1
 40
1
 40
1
 40
1
 10
-1.742220
 20
0.037464
 30
0.0
 10
-1.742220
 20
0.067745
 30
0.0
 10
-1.754249
 20
0.096785
 30
0.0
 10
-1.775661
 20
0.118197
 30
0.0
  0
SPLINE
  5
216
100
AcDbEntity
  8
Lights
 62
7
100
AcDbSpline
 70
8
 71
3
 72
8
 73
4
 74
0
 40
0
 40
0
 40
0
 40
0
 40
1
 40
1
 40
1
 40
1
 10
-1.775661
 20
0.118197
 30
0.0
 10
-1.797072
 20
0.139608
 30
0.0
 10
-1.826113
 20
0.151637
 30
0.0
 10
-1.856394
 20
0.151637
 30
0.0
  0
LWPOLYLINE
  5
217
100
AcDbEntity
  8
Lights
 62
7
100
AcDbPolyline
 90
1
 70
1
 10
-1.678283
 20
0.552779
 30
0.0
  0
SPLINE
  5
218
100
AcDbEntity
  8
Lights
 62
7
100
AcDbSpline
 70
8
 71
3
 72
8
 73
4
 74
0
 40
0
 40
0
 40
0
 40
0
 40
1
 40
1
 40
1
 40
1
 10
-1.856394
 20
0.135889
 30
0.0
 10
-1.896203
 20
0.135889
 30
0.0
 10
-1.932092
 20
0.111909
 30
0.0
 10
-1.947327
 20
0.075130
 30
0.0
  0
SPLINE
  5
219
100
AcDbEntity
  8
Lights
 62
7
100
AcDbSpline
 70
8
 71
3
 72
8
 73
4
 74
0
 40
0
 40
0
 40
0
 40
0
 40
1
 40
1
 40
1
 40
1
 10
-1.947327
 20
0.075130
 30
0.0
 10
-1.962561
 20
0.038351
 30
0.0
 10
-1.954140
 20
-0.003984
 30
0.0
 10
-1.925991
 20
-0.032133
 30
0.0
  0
SPLINE
  5
21a
100
AcDbEntity
  8
Lights
 62
7
100
AcDbSpline
 70
8
 71
3
 72
8
 73
4
 74
0
 40
0
 40
0
 40
0
 40
0
 40
1
 40
1
 40
1
 40
1
 10
-1.925991
 20
-0.032133
 30
0.0
 10
-1.897841
 20
-0.060282
 30
0.0
 10
-1.855507
 20
-0.068703
 30
0.0
 10
-1.818728
 20
-0.053469
 30
0.0
  0
SPLINE
  5
21b
100
AcDbEntity
  8
Lights
 62
7
100
AcDbSpline
 70
8
 71
3
 72
8
 73
4
 74
0
 40
0
 40
0
 40
0
 40
0
 40
1
 40
1
 40
1
 40
1
 10
-1.818728
 20
-0.053469
 30
0.0
 10
-1.781949
 20
-0.038235
 30
0.0
 10
-1.757968
 20
-0.002345
 30
0.0
 10
-1.757968
 20
0.037464
 30
0.0
  0
SPLINE
  5
21c
100
AcDbEntity
  8
Lights
 62
7
100
AcDbSpline
 70
8
 71
3
 72
8
 73
4
 74
0
 40
0
 40
0
 40
0
 40
0
 40
1
 40
1
 40
1
 40
1
 10
-1.757968
 20
0.037464
 30
0.0
 10
-1.757968
 20
0.063568
 30
0.0
 10
-1.768338
 20
0.088603
 30
0.0
 10
-1.786796
 20
0.107061
 30
0.0
  0
SPLINE
  5
21d
100
AcDbEntity
  8
Lights
 62
7
100
AcDbSpline
 70
8
 71
3
 72
8
 73
4
 74
0
 40
0
 40
0
 40
0
 40
0
 40
1
 40
1
 40
1
 40
1
 10
-1.786796
 20
0.107061
 30
0.0
 10
-1.805255
 20
0.125520
 30
0.0
 10
-1.830290
 20
0.135889
 30
0.0
 10
-1.856394
 20
0.135889
 30
0.0
  0
LWPOLYLINE
  5
21e
100
AcDbEntity
  8
Lights
 62
7
100
AcDbPolyline
 90
1
 70
1
 10
-1.856394
 20
0.151637
 30
0.0
  0
SPLINE
  5
21f
100
AcDbEntity
  8
Lights
 62
7
100
AcDbSpline
 70
8
 71
3
 72
8
 73
4
 74
0
 40
0
 40
0
 40
0
 40
0
 40
1
 40
1
 40
1
 40
1
 10
-2.078913
 20
-0.251670
 30
0.0
 10
-2.125092
 20
-0.251670
 30
0.0
 10
-2.166724
 20
-0.279487
 30
0.0
 10
-2.184396
 20
-0.322151
 30
0.0
  0
SPLINE
  5
220
100
AcDbEntity
  8
Lights
 62
7
100
AcDbSpline
 70
8
 71
3
 72
8
 73
4
 74
0
 40
0
 40
0
 40
0
 40
0
 40
1
 40
1
 40
1
 40
1
 10
-2.184396
 20
-0.322151
 30
0.0
 10
-2.202067
 20
-0.364814
 30
0.0
 10
-2.192299
 20
-0.413922
 30
0.0
 10
-2.159646
 20
-0.446576
 30
0.0
  0
SPLINE
  5
221
100
AcDbEntity
  8
Lights
 62
7
100
AcDbSpline
 70
8
 71
3
 72
8
 73
4
 74
0
 40
0
 40
0
 40
0
 40
0
 40
1
 40
1
 40
1
 40
1
 10
-2.159646
 20
-0.446576
 30
0.0
 10
-2.126993
 20
-0.479229
 30
0.0
 10
-2.077885
 20
-0.488997
 30
0.0
 10
-2.035221
 20
-0.471325
 30
0.0
  0
SPLINE
  5
222
100
AcDbEntity
  8
Lights
 62
7
100
AcDbSpline
 70
8
 71
3
 72
8
 73
4
 74
0
 40
0
 40
0
 40
0
 40
0
 40
1
 40
1
 40
1
 40
1
 10
-2.035221
 20
-0.471325
 30
0.0
 10
-1.992557
 20
-0.453653
 30
0.0
 10
-1.964740
 20
-0.412022
 30
0.0
 10
-1.964740
 20
-0.365843
 30
0.0
  0
SPLINE
  5
223
100
AcDbEntity
  8
Lights
 62
7
100
AcDbSpline
 70
8
 71
3
 72
8
 73
4
 74
0
 40
0
 40
0
 40
0
 40
0
 40
1
 40
1
 40
1
 40
1
 10
-1.964740
 20
-0.365843
 30
0.0
 10
-1.964740
 20
-0.335562
 30
0.0
 10
-1.976769
 20
-0.306522
 30
0.0
 10
-1.998181
 20
-0.285110
 30
0.0
  0
SPLINE
  5
224
100
AcDbEntity
  8
Lights
 62
7
100
AcDbSpline
 70
8
 71
3
 72
8
 73
4
 74
0
 40
0
 40
0
 40
0
 40
0
 40
1
 40
1
 40
1
 40
1
 10
-1.998181
 20
-0.285110
 30
0.0
 10
-2.019592
 20
-0.263699
 30
0.0
 10
-2.048633
 20
-0.251670
 30
0.0
 10
-2.078913
 20
-0.251670
 30
0.0
  0
LWPOLYLINE
  5
225
100
AcDbEntity
  8
Lights
 62
7
100
AcDbPolyline
 90
1
 70
1
 10
-1.856394
 20
0.135889
 30
0.0
  0
SPLINE
  5
226
100
AcDbEntity
  8
Lights
 62
7
100
AcDbSpline
 70
8
 71
3
 72
8
 73
4
 74
0
 40
0
 40
0
 40
0
 40
0
 40
1
 40
1
 40
1
 40
1
 10
-2.078913
 20
-0.267418
 30
0.0
 10
-2.118722
 20
-0.267418
 30
0.0
 10
-2.154612
 20
-0.291398
 30
0.0
 10
-2.169846
 20
-0.328177
 30
0.0
  0
SPLINE
  5
227
100
AcDbEntity
  8
Lights
 62
7
100
AcDbSpline
 70
8
 71
3
 72
8
 73
4
 74
0
 40
0
 40
0
 40
0
 40
0
 40
1
 40
1
 40
1
 40
1
 10
-2.169846
 20
-0.328177
 30
0.0
 10
-2.185081
 20
-0.364956
 30
0.0
 10
-2.176660
 20
-0.407291
 30
0.0
 10
-2.148510
 20
-0.435440
 30
0.0
  0
SPLINE
  5
228
100
AcDbEntity
  8
Lights
 62
7
100
AcDbSpline
 70
8
 71
3
 72
8
 73
4
 74
0
 40
0
 40
0
 40
0
 40
0
 40
1
 40
1
 40
1
 40
1
 10
-2.148510
 20
-0.435440
 30
0.0
 10
-2.120361
 20
-0.463589
 30
0.0
 10
-2.078026
 20
-0.472010
 30
0.0
 10
-2.041247
 20
-0.456776
 30
0.0
  0
SPLINE
  5
229
100
AcDbEntity
  8
Lights
 62
7
100
AcDbSpline
 70
8
 71
3
 72
8
 73
4
 74
0
 40
0
 40
0
 40
0
 40
0
 40
1
 40
1
 40
1
 40
1
 10
-2.041247
 20
-0.456776
 30
0.0
 10
-2.004469
 20
-0.441542
 30
0.0
 10
-1.980488
 20
-0.405652
 30
0.0
 10
-1.980488
 20
-0.365843
 30
0.0
  0
SPLINE
  5
22a
100
AcDbEntity
  8
Lights
 62
7
100
AcDbSpline
 70
8
 71
3
 72
8
 73
4
 74
0
 40
0
 40
0
 40
0
 40
0
 40
1
 40
1
 40
1
 40
1
 10
-1.980488
 20
-0.365843
 30
0.0
 10
-1.980488
 20
-0.339739
 30
0.0
 10
-1.990858
 20
-0.314704
 30
0.0
 10
-2.009316
 20
-0.296246
 30
0.0
  0
SPLINE
  5
22b
100
AcDbEntity
  8
Lights
 62
7
100
AcDbSpline
 70
8
 71
3
 72
8
 73
4
 74
0
 40
0
 40
0
 40
0
 40
0
 40
1
 40
1
 40
1
 40
1
 10
-2.009316
 20
-0.296246
 30
0.0
 10
-2.027774
 20
-0.277787
 30
0.0
 10
-2.052809
 20
-0.267418
 30
0.0
 10
-2.078913
 20
-0.267418
 30
0.0
  0
LWPOLYLINE
  5
22c
100
AcDbEntity
  8
Lights
 62
7
100
AcDbPolyline
 90
1
 70
1
 10
-2.078913
 20
-0.251670
 30
0.0
  0
SPLINE
  5
22d
100
AcDbEntity
  8
Lights
 62
7
100
AcDbSpline
 70
8
 71
3
 72
8
 73
4
 74
0
 40
0
 40
0
 40
0
 40
0
 40
1
 40
1
 40
1
 40
1
 10
-2.883480
 20
-0.453993
 30
0.0
 10
-2.929659
 20
-0.453993
 30
0.0
 10
-2.971291
 20
-0.481810
 30
0.0
 10
-2.988962
 20
-0.524474
 30
0.0
  0
SPLINE
  5
22e
100
AcDbEntity
  8
Lights
 62
7
100
AcDbSpline
 70
8
 71
3
 72
8
 73
4
 74
0
 40
0
 40
0
 40
0
 40
0
 40
1
 40
1
 40
1
 40
1
 10
-2.988962
 20
-0.524474
 30
0.0
 10
-3.006634
 20
-0.567137
 30
0.0
 10
-2.996866
 20
-0.616245
 30
0.0
 10
-2.964213
 20
-0.648898
 30
0.0
  0
SPLINE
  5
22f
100
AcDbEntity
  8
Lights
 62
7
100
AcDbSpline
 70
8
 71
3
 72
8
 73
4
 74
0
 40
0
 40
0
 40
0
 40
0
 40
1
 40
1
 40
1
 40
1
 10
-2.964213
 20
-0.648898
 30
0.0
 10
-2.931559
 20
-0.681552
 30
0.0
 10
-2.882452
 20
-0.691320
 30
0.0
 10
-2.839788
 20
-0.673648
 30
0.0
  0
SPLINE
  5
230
100
AcDbEntity
  8
Lights
 62
7
100
AcDbSpline
 70
8
 71
3
 72
8
 73
4
 74
0
 40
0
 40
0
 40
0
 40
0
 40
1
 40
1
 40
1
 40
1
 10
-2.839788
 20
-0.673648
 30
0.0
 10
-2.797124
 20
-0.655976
 30
0.0
 10
-2.769307
 20
-0.614345
 30
0.0
 10
-2.769307
 20
-0.568166
 30
0.0
  0
SPLINE
  5
231
100
AcDbEntity
  8
Lights
 62
7
100
AcDbSpline
 70
8
 71
3
 72
8
 73
4
 74
0
 40
0
 40
0
 40
0
 40
0
 40
1
 40
1
 40
1
 40
1
 10
-2.769307
 20
-0.568166
 30
0.0
 10
-2.769307
 20
-0.537885
 30
0.0
 10
-2.781336
 20
-0.508845
 30
0.0
 10
-2.802747
 20
-0.487433
 30
0.0
  0
SPLINE
  5
232
100
AcDbEntity
  8
Lights
 62
7
100
AcDbSpline
 70
8
 71
3
 72
8
 73
4
 74
0
 40
0
 40
0
 40
0
 40
0
 40
1
 40
1
 40
1
 40
1
 10
-2.802747
 20
-0.487433
 30
0.0
 10
-2.824159
 20
-0.466021
 30
0.0
 10
-2.853199
 20
-0.453993
 30
0.0
 10
-2.883480
 20
-0.453993
 30
0.0
  0
LWPOLYLINE
  5
233
100
AcDbEntity
  8
Lights
 62
7
100
AcDbPolyline
 90
1
 70
1
 10
-2.078913
 20
-0.267418
 30
0.0
  0
SPLINE
  5
234
100
AcDbEntity
  8
Lights
 62
7
100
AcDbSpline
 70
8
 71
3
 72
8
 73
4
 74
0
 40
0
 40
0
 40
0
 40
0
 40
1
 40
1
 40
1
 40
1
 10
-2.883480
 20
-0.469741
 30
0.0
 10
-2.923289
 20
-0.469741
 30
0.0
 10
-2.959179
 20
-0.493721
 30
0.0
 10
-2.974413
 20
-0.530500
 30
0.0
  0
SPLINE
  5
235
100
AcDbEntity
  8
Lights
 62
7
100
AcDbSpline
 70
8
 71
3
 72
8
 73
4
 74
0
 40
0
 40
0
 40
0
 40
0
 40
1
 40
1
 40
1
 40
1
 10
-2.974413
 20
-0.530500
 30
0.0
 10
-2.989647
 20
-0.567279
 30
0.0
 10
-2.981227
 20
-0.609613
 30
0.0
 10
-2.953077
 20
-0.637763
 30
0.0
  0
SPLINE
  5
236
100
AcDbEntity
  8
Lights
 62
7
100
AcDbSpline
 70
8
 71
3
 72
8
 73
4
 74
0
 40
0
 40
0
 40
0
 40
0
 40
1
 40
1
 40
1
 40
1
 10
-2.953077
 20
-0.637763
 30
0.0
 10
-2.924928
 20
-0.665912
 30
0.0
 10
-2.882593
 20
-0.674333
 30
0.0
 10
-2.845814
 20
-0.659099
 30
0.0
  0
SPLINE
  5
237
100
AcDbEntity
  8
Lights
 62
7
100
AcDbSpline
 70
8
 71
3
 72
8
 73
4
 74
0
 40
0
 40
0
 40
0
 40
0
 40
1
 40
1
 40
1
 40
1
 10
-2.845814
 20
-0.659099
 30
0.0
 10
-2.809035
 20
-0.643864
 30
0.0
 10
-2.785055
 20
-0.607975
 30
0.0
 10
-2.785055
 20
-0.568166
 30
0.0
  0
SPLINE
  5
238
100
AcDbEntity
  8
Lights
 62
7
100
AcDbSpline
 70
8
 71
3
 72
8
 73
4
 74
0
 40
0
 40
0
 40
0
 40
0
 40
1
 40
1
 40
1
 40
1
 10
-2.785055
 20
-0.568166
 30
0.0
 10
-2.785055
 20
-0.542062
 30
0.0
 10
-2.795425
 20
-0.517027
 30
0.0
 10
-2.813883
 20
-0.498569
 30
0.0
  0
SPLINE
  5
239
100
AcDbEntity
  8
Lights
 62
7
100
AcDbSpline
 70
8
 71
3
 72
8
 73
4
 74
0
 40
0
 40
0
 40
0
 40
0
 40
1
 40
1
 40
1
 40
1
 10
-2.813883
 20
-0.498569
 30
0.0
 10
-2.832341
 20
-0.480110
 30
0.0
 10
-2.857376
 20
-0.469741
 30
0.0
 10
-2.883480
 20
-0.469741
 30
0.0
  0
LWPOLYLINE
  5
23a
100
AcDbEntity
  8
Lights
 62
7
100
AcDbPolyline
 90
1
 70
1
 10
-2.883480
 20
-0.453993
 30
0.0
  0
SPLINE
  5
23b
100
AcDbEntity
  8
Lights
 62
7
100
AcDbSpline
 70
8
 71
3
 72
8
 73
4
 74
0
 40
0
 40
0
 40
0
 40
0
 40
1
 40
1
 40
1
 40
1
 10
1.658583
 20
-0.313166
 30
0.0
 10
1.612404
 20
-0.313166
 30
0.0
 10
1.570772
 20
-0.340983
 30
0.0
 10
1.553101
 20
-0.383647
 30
0.0
  0
SPLINE
  5
23c
100
AcDbEntity
  8
Lights
 62
7
100
AcDbSpline
 70
8
 71
3
 72
8
 73
4
 74
0
 40
0
 40
0
 40
0
 40
0
 40
1
 40
1
 40
1
 40
1
 10
1.553101
 20
-0.383647
 30
0.0
 10
1.535429
 20
-0.426310
 30
0.0
 10
1.545197
 20
-0.475418
 30
0.0
 10
1.577850
 20
-0.508072
 30
0.0
  0
SPLINE
  5
23d
100
AcDbEntity
  8
Lights
 62
7
100
AcDbSpline
 70
8
 71
3
 72
8
 73
4
 74
0
 40
0
 40
0
 40
0
 40
0
 40
1
 40
1
 40
1
 40
1
 10
1.577850
 20
-0.508072
 30
0.0
 10
1.610504
 20
-0.540725
 30
0.0
 10
1.659611
 20
-0.550493
 30
0.0
 10
1.702275
 20
-0.532821
 30
0.0
  0
SPLINE
  5
23e
100
AcDbEntity
  8
Lights
 62
7
100
AcDbSpline
 70
8
 71
3
 72
8
 73
4
 74
0
 40
0
 40
0
 40
0
 40
0
 40
1
 40
1
 40
1
 40
1
 10
1.702275
 20
-0.532821
 30
0.0
 10
1.744939
 20
-0.515149
 30
0.0
 10
1.772756
 20
-0.473518
 30
0.0
 10
1.772756
 20
-0.427339
 30
0.0
  0
SPLINE
  5
23f
100
AcDbEntity
  8
Lights
 62
7
100
AcDbSpline
 70
8
 71
3
 72
8
 73
4
 74
0
 40
0
 40
0
 40
0
 40
0
 40
1
 40
1
 40
1
 40
1
 10
1.772756
 20
-0.427339
 30
0.0
 10
1.772756
 20
-0.397058
 30
0.0
 10
1.760727
 20
-0.368018
 30
0.0
 10
1.739316
 20
-0.346606
 30
0.0
  0
SPLINE
  5
240
100
AcDbEntity
  8
Lights
 62
7
100
AcDbSpline
 70
8
 71
3
 72
8
 73
4
 74
0
 40
0
 40
0
 40
0
 40
0
 40
1
 40
1
 40
1
 40
1
 10
1.739316
 20
-0.346606
 30
0.0
 10
1.717904
 20
-0.325195
 30
0.0
 10
1.688863
 20
-0.313166
 30
0.0
 10
1.658583
 20
-0.313166
 30
0.0
  0
LWPOLYLINE
  5
241
100
AcDbEntity
  8
Lights
 62
7
100
AcDbPolyline
 90
1
 70
1
 10
-2.883480
 20
-0.469741
 30
0.0
  0
SPLINE
  5
242
100
AcDbEntity
  8
Lights
 62
7
100
AcDbSpline
 70
8
 71
3
 72
8
 73
4
 74
0
 40
0
 40
0
 40
0
 40
0
 40
1
 40
1
 40
1
 40
1
 10
1.658583
 20
-0.328914
 30
0.0
 10
1.618774
 20
-0.328914
 30
0.0
 10
1.582884
 20
-0.352894
 30
0.0
 10
1.567650
 20
-0.389673
 30
0.0
  0
SPLINE
  5
243
100
AcDbEntity
  8
Lights
 62
7
100
AcDbSpline
 70
8
 71
3
 72
8
 73
4
 74
0
 40
0
 40
0
 40
0
 40
0
 40
1
 40
1
 40
1
 40
1
 10
1.567650
 20
-0.389673
 30
0.0
 10
1.552415
 20
-0.426452
 30
0.0
 10
1.560836
 20
-0.468787
 30
0.0
 10
1.588986
 20
-0.496936
 30
0.0
  0
SPLINE
  5
244
100
AcDbEntity
  8
Lights
 62
7
100
AcDbSpline
 70
8
 71
3
 72
8
 73
4
 74
0
 40
0
 40
0
 40
0
 40
0
 40
1
 40
1
 40
1
 40
1
 10
1.588986
 20
-0.496936
 30
0.0
 10
1.617135
 20
-0.525086
 30
0.0
 10
1.659470
 20
-0.533506
 30
0.0
 10
1.696249
 20
-0.518272
 30
0.0
  0
SPLINE
  5
245
100
AcDbEntity
  8
Lights
 62
7
100
AcDbSpline
 70
8
 71
3
 72
8
 73
4
 74
0
 40
0
 40
0
 40
0
 40
0
 40
1
 40
1
 40
1
 40
1
 10
1.696249
 20
-0.518272
 30
0.0
 10
1.733028
 20
-0.503038
 30
0.0
 10
1.757008
 20
-0.467148
 30
0.0
 10
1.757008
 20
-0.427339
 30
0.0
  0
SPLINE
  5
246
100
AcDbEntity
  8
Lights
 62
7
100
AcDbSpline
 70
8
 71
3
 72
8
 73
4
 74
0
 40
0
 40
0
 40
0
 40
0
 40
1
 40
1
 40
1
 40
1
 10
1.757008
 20
-0.427339
 30
0.0
 10
1.757008
 20
-0.401235
 30
0.0
 10
1.746638
 20
-0.376200
 30
0.0
 10
1.728180
 20
-0.357742
 30
0.0
  0
SPLINE
  5
247
100
AcDbEntity
  8
Lights
 62
7
100
AcDbSpline
 70
8
 71
3
 72
8
 73
4
 74
0
 40
0
 40
0
 40
0
 40
0
 40
1
 40
1
 40
1
 40
1
 10
1.728180
 20
-0.357742
 30
0.0
 10
1.709722
 20
-0.339284
 30
0.0
 10
1.684687
 20
-0.328914
 30
0.0
 10
1.658583
 20
-0.328914
 30
0.0
  0
LWPOLYLINE
  5
248
100
AcDbEntity
  8
Lights
 62
7
100
AcDbPolyline
 90
1
 70
1
 10
1.658583
 20
-0.313166
 30
0.0
  0
SPLINE
  5
249
100
AcDbEntity
  8
Lights
 62
7
100
AcDbSpline
 70
8
 71
3
 72
8
 73
4
 74
0
 40
0
 40
0
 40
0
 40
0
 40
1
 40
1
 40
1
 40
1
 10
1.553299
 20
-0.006237
 30
0.0
 10
1.507121
 20
-0.006237
 30
0.0
 10
1.465489
 20
-0.034054
 30
0.0
 10
1.447817
 20
-0.076718
 30
0.0
  0
SPLINE
  5
24a
100
AcDbEntity
  8
Lights
 62
7
100
AcDbSpline
 70
8
 71
3
 72
8
 73
4
 74
0
 40
0
 40
0
 40
0
 40
0
 40
1
 40
1
 40
1
 40
1
 10
1.447817
 20
-0.076718
 30
0.0
 10
1.430145
 20
-0.119381
 30
0.0
 10
1.439913
 20
-0.168489
 30
0.0
 10
1.472567
 20
-0.201143
 30
0.0
  0
SPLINE
  5
24b
100
AcDbEntity
  8
Lights
 62
7
100
AcDbSpline
 70
8
 71
3
 72
8
 73
4
 74
0
 40
0
 40
0
 40
0
 40
0
 40
1
 40
1
 40
1
 40
1
 10
1.472567
 20
-0.201143
 30
0.0
 10
1.505220
 20
-0.233796
 30
0.0
 10
1.554328
 20
-0.243564
 30
0.0
 10
1.596992
 20
-0.225892
 30
0.0
  0
SPLINE
  5
24c
100
AcDbEntity
  8
Lights
 62
7
100
AcDbSpline
 70
8
 71
3
 72
8
 73
4
 74
0
 40
0
 40
0
 40
0
 40
0
 40
1
 40
1
 40
1
 40
1
 10
1.596992
 20
-0.225892
 30
0.0
 10
1.639655
 20
-0.208220
 30
0.0
 10
1.667473
 20
-0.166589
 30
0.0
 10
1.667473
 20
-0.120410
 30
0.0
  0
SPLINE
  5
24d
100
AcDbEntity
  8
Lights
 62
7
100
AcDbSpline
 70
8
 71
3
 72
8
 73
4
 74
0
 40
0
 40
0
 40
0
 40
0
 40
1
 40
1
 40
1
 40
1
 10
1.667473
 20
-0.120410
 30
0.0
 10
1.667473
 20
-0.090129
 30
0.0
 10
1.655444
 20
-0.061089
 30
0.0
 10
1.634032
 20
-0.039677
 30
0.0
  0
SPLINE
  5
24e
100
AcDbEntity
  8
Lights
 62
7
100
AcDbSpline
 70
8
 71
3
 72
8
 73
4
 74
0
 40
0
 40
0
 40
0
 40
0
 40
1
 40
1
 40
1
 40
1
 10
1.634032
 20
-0.039677
 30
0.0
 10
1.612620
 20
-0.018266
 30
0.0
 10
1.583580
 20
-0.006237
 30
0.0
 10
1.553299
 20
-0.006237
 30
0.0
  0
LWPOLYLINE
  5
24f
100
AcDbEntity
  8
Lights
 62
7
100
AcDbPolyline
 90
1
 70
1
 10
1.658583
 20
-0.328914
 30
0.0
  0
SPLINE
  5
250
100
AcDbEntity
  8
Lights
 62
7
100
AcDbSpline
 70
8
 71
3
 72
8
 73
4
 74
0
 40
0
 40
0
 40
0
 40
0
 40
1
 40
1
 40
1
 40
1
 10
1.553299
 20
-0.021985
 30
0.0
 10
1.513490
 20
-0.021985
 30
0.0
 10
1.477601
 20
-0.045965
 30
0.0
 10
1.462366
 20
-0.082744
 30
0.0
  0
SPLINE
  5
251
100
AcDbEntity
  8
Lights
 62
7
100
AcDbSpline
 70
8
 71
3
 72
8
 73
4
 74
0
 40
0
 40
0
 40
0
 40
0
 40
1
 40
1
 40
1
 40
1
 10
1.462366
 20
-0.082744
 30
0.0
 10
1.447132
 20
-0.119523
 30
0.0
 10
1.455553
 20
-0.161858
 30
0.0
 10
1.483702
 20
-0.190007
 30
0.0
  0
SPLINE
  5
252
100
AcDbEntity
  8
Lights
 62
7
100
AcDbSpline
 70
8
 71
3
 72
8
 73
4
 74
0
 40
0
 40
0
 40
0
 40
0
 40
1
 40
1
 40
1
 40
1
 10
1.483702
 20
-0.190007
 30
0.0
 10
1.511852
 20
-0.218156
 30
0.0
 10
1.554186
 20
-0.226577
 30
0.0
 10
1.590965
 20
-0.211343
 30
0.0
  0
SPLINE
  5
253
100
AcDbEntity
  8
Lights
 62
7
100
AcDbSpline
 70
8
 71
3
 72
8
 73
4
 74
0
 40
0
 40
0
 40
0
 40
0
 40
1
 40
1
 40
1
 40
1
 10
1.590965
 20
-0.211343
 30
0.0
 10
1.627744
 20
-0.196109
 30
0.0
 10
1.651725
 20
-0.160219
 30
0.0
 10
1.651725
 20
-0.120410
 30
0.0
  0
SPLINE
  5
254
100
AcDbEntity
  8
Lights
 62
7
100
AcDbSpline
 70
8
 71
3
 72
8
 73
4
 74
0
 40
0
 40
0
 40
0
 40
0
 40
1
 40
1
 40
1
 40
1
 10
1.651725
 20
-0.120410
 30
0.0
 10
1.651725
 20
-0.094306
 30
0.0
 10
1.641355
 20
-0.069271
 30
0.0
 10
1.622897
 20
-0.050813
 30
0.0
  0
SPLINE
  5
255
100
AcDbEntity
  8
Lights
 62
7
100
AcDbSpline
 70
8
 71
3
 72
8
 73
4
 74
0
 40
0
 40
0
 40
0
 40
0
 40
1
 40
1
 40
1
 40
1
 10
1.622897
 20
-0.050813
 30
0.0
 10
1.604438
 20
-0.032354
 30
0.0
 10
1.579403
 20
-0.021985
 30
0.0
 10
1.553299
 20
-0.021985
 30
0.0
  0
LWPOLYLINE
  5
256
100
AcDbEntity
  8
Lights
 62
7
100
AcDbPolyline
 90
1
 70
1
 10
1.553299
 20
-0.006237
 30
0.0
  0
SPLINE
  5
257
100
AcDbEntity
  8
Lights
 62
7
100
AcDbSpline
 70
8
 71
3
 72
8
 73
4
 74
0
 40
0
 40
0
 40
0
 40
0
 40
1
 40
1
 40
1
 40
1
 10
1.640858
 20
0.334157
 30
0.0
 10
1.594680
 20
0.334157
 30
0.0
 10
1.553048
 20
0.306340
 30
0.0
 10
1.535376
 20
0.263676
 30
0.0
  0
SPLINE
  5
258
100
AcDbEntity
  8
Lights
 62
7
100
AcDbSpline
 70
8
 71
3
 72
8
 73
4
 74
0
 40
0
 40
0
 40
0
 40
0
 40
1
 40
1
 40
1
 40
1
 10
1.535376
 20
0.263676
 30
0.0
 10
1.517704
 20
0.221012
 30
0.0
 10
1.527472
 20
0.171905
 30
0.0
 10
1.560126
 20
0.139251
 30
0.0
  0
SPLINE
  5
259
100
AcDbEntity
  8
Lights
 62
7
100
AcDbSpline
 70
8
 71
3
 72
8
 73
4
 74
0
 40
0
 40
0
 40
0
 40
0
 40
1
 40
1
 40
1
 40
1
 10
1.560126
 20
0.139251
 30
0.0
 10
1.592779
 20
0.106598
 30
0.0
 10
1.641887
 20
0.096830
 30
0.0
 10
1.684551
 20
0.114502
 30
0.0
  0
SPLINE
  5
25a
100
AcDbEntity
  8
Lights
 62
7
100
AcDbSpline
 70
8
 71
3
 72
8
 73
4
 74
0
 40
0
 40
0
 40
0
 40
0
 40
1
 40
1
 40
1
 40
1
 10
1.684551
 20
0.114502
 30
0.0
 10
1.727214
 20
0.132173
 30
0.0
 10
1.755032
 20
0.173805
 30
0.0
 10
1.755032
 20
0.219984
 30
0.0
  0
SPLINE
  5
25b
100
AcDbEntity
  8
Lights
 62
7
100
AcDbSpline
 70
8
 71
3
 72
8
 73
4
 74
0
 40
0
 40
0
 40
0
 40
0
 40
1
 40
1
 40
1
 40
1
 10
1.755032
 20
0.219984
 30
0.0
 10
1.755032
 20
0.250264
 30
0.0
 10
1.743003
 20
0.279305
 30
0.0
 10
1.721591
 20
0.300717
 30
0.0
  0
SPLINE
  5
25c
100
AcDbEntity
  8
Lights
 62
7
100
AcDbSpline
 70
8
 71
3
 72
8
 73
4
 74
0
 40
0
 40
0
 40
0
 40
0
 40
1
 40
1
 40
1
 40
1
 10
1.721591
 20
0.300717
 30
0.0
 10
1.700179
 20
0.322128
 30
0.0
 10
1.671139
 20
0.334157
 30
0.0
 10
1.640858
 20
0.334157
 30
0.0
  0
LWPOLYLINE
  5
25d
100
AcDbEntity
  8
Lights
 62
7
100
AcDbPolyline
 90
1
 70
1
 10
1.553299
 20
-0.021985
 30
0.0
  0
SPLINE
  5
25e
100
AcDbEntity
  8
Lights
 62
7
100
AcDbSpline
 70
8
 71
3
 72
8
 73
4
 74
0
 40
0
 40
0
 40
0
 40
0
 40
1
 40
1
 40
1
 40
1
 10
1.640858
 20
0.318409
 30
0.0
 10
1.601049
 20
0.318409
 30
0.0
 10
1.565160
 20
0.294429
 30
0.0
 10
1.549925
 20
0.257650
 30
0.0
  0
SPLINE
  5
25f
100
AcDbEntity
  8
Lights
 62
7
100
AcDbSpline
 70
8
 71
3
 72
8
 73
4
 74
0
 40
0
 40
0
 40
0
 40
0
 40
1
 40
1
 40
1
 40
1
 10
1.549925
 20
0.257650
 30
0.0
 10
1.534691
 20
0.220871
 30
0.0
 10
1.543112
 20
0.178536
 30
0.0
 10
1.571261
 20
0.150387
 30
0.0
  0
SPLINE
  5
260
100
AcDbEntity
  8
Lights
 62
7
100
AcDbSpline
 70
8
 71
3
 72
8
 73
4
 74
0
 40
0
 40
0
 40
0
 40
0
 40
1
 40
1
 40
1
 40
1
 10
1.571261
 20
0.150387
 30
0.0
 10
1.599411
 20
0.122237
 30
0.0
 10
1.641745
 20
0.113816
 30
0.0
 10
1.678524
 20
0.129051
 30
0.0
  0
SPLINE
  5
261
100
AcDbEntity
  8
Lights
 62
7
100
AcDbSpline
 70
8
 71
3
 72
8
 73
4
 74
0
 40
0
 40
0
 40
0
 40
0
 40
1
 40
1
 40
1
 40
1
 10
1.678524
 20
0.129051
 30
0.0
 10
1.715303
 20
0.144285
 30
0.0
 10
1.739284
 20
0.180175
 30
0.0
 10
1.739284
 20
0.219984
 30
0.0
  0
SPLINE
  5
262
100
AcDbEntity
  8
Lights
 62
7
100
AcDbSpline
 70
8
 71
3
 72
8
 73
4
 74
0
 40
0
 40
0
 40
0
 40
0
 40
1
 40
1
 40
1
 40
1
 10
1.739284
 20
0.219984
 30
0.0
 10
1.739284
 20
0.246088
 30
0.0
 10
1.728914
 20
0.271123
 30
0.0
 10
1.710456
 20
0.289581
 30
0.0
  0
SPLINE
  5
263
100
AcDbEntity
  8
Lights
 62
7
100
AcDbSpline
 70
8
 71
3
 72
8
 73
4
 74
0
 40
0
 40
0
 40
0
 40
0
 40
1
 40
1
 40
1
 40
1
 10
1.710456
 20
0.289581
 30
0.0
 10
1.691997
 20
0.308039
 30
0.0
 10
1.666962
 20
0.318409
 30
0.0
 10
1.640858
 20
0.318409
 30
0.0
  0
LWPOLYLINE
  5
264
100
AcDbEntity
  8
Lights
 62
7
100
AcDbPolyline
 90
1
 70
1
 10
1.640858
 20
0.334157
 30
0.0
  0
SPLINE
  5
265
100
AcDbEntity
  8
Lights
 62
7
100
AcDbSpline
 70
8
 71
3
 72
8
 73
4
 74
0
 40
0
 40
0
 40
0
 40
0
 40
1
 40
1
 40
1
 40
1
 10
1.872461
 20
0.692110
 30
0.0
 10
1.826282
 20
0.692110
 30
0.0
 10
1.784650
 20
0.664292
 30
0.0
 10
1.766979
 20
0.621629
 30
0.0
  0
SPLINE
  5
266
100
AcDbEntity
  8
Lights
 62
7
100
AcDbSpline
 70
8
 71
3
 72
8
 73
4
 74
0
 40
0
 40
0
 40
0
 40
0
 40
1
 40
1
 40
1
 40
1
 10
1.766979
 20
0.621629
 30
0.0
 10
1.749307
 20
0.578965
 30
0.0
 10
1.759075
 20
0.529857
 30
0.0
 10
1.791728
 20
0.497204
 30
0.0
  0
SPLINE
  5
267
100
AcDbEntity
  8
Lights
 62
7
100
AcDbSpline
 70
8
 71
3
 72
8
 73
4
 74
0
 40
0
 40
0
 40
0
 40
0
 40
1
 40
1
 40
1
 40
1
 10
1.791728
 20
0.497204
 30
0.0
 10
1.824381
 20
0.464551
 30
0.0
 10
1.873489
 20
0.454782
 30
0.0
 10
1.916153
 20
0.472454
 30
0.0
  0
SPLINE
  5
268
100
AcDbEntity
  8
Lights
 62
7
100
AcDbSpline
 70
8
 71
3
 72
8
 73
4
 74
0
 40
0
 40
0
 40
0
 40
0
 40
1
 40
1
 40
1
 40
1
 10
1.916153
 20
0.472454
 30
0.0
 10
1.958817
 20
0.490126
 30
0.0
 10
1.986634
 20
0.531758
 30
0.0
 10
1.986634
 20
0.577937
 30
0.0
  0
SPLINE
  5
269
100
AcDbEntity
  8
Lights
 62
7
100
AcDbSpline
 70
8
 71
3
 72
8
 73
4
 74
0
 40
0
 40
0
 40
0
 40
0
 40
1
 40
1
 40
1
 40
1
 10
1.986634
 20
0.577937
 30
0.0
 10
1.986634
 20
0.608217
 30
0.0
 10
1.974605
 20
0.637258
 30
0.0
 10
1.953193
 20
0.658669
 30
0.0
  0
SPLINE
  5
26a
100
AcDbEntity
  8
Lights
 62
7
100
AcDbSpline
 70
8
 71
3
 72
8
 73
4
 74
0
 40
0
 40
0
 40
0
 40
0
 40
1
 40
1
 40
1
 40
1
 10
1.953193
 20
0.658669
 30
0.0
 10
1.931782
 20
0.680081
 30
0.0
 10
1.902741
 20
0.692110
 30
0.0
 10
1.872461
 20
0.692110
 30
0.0
  0
LWPOLYLINE
  5
26b
100
AcDbEntity
  8
Lights
 62
7
100
AcDbPolyline
 90
1
 70
1
 10
1.640858
 20
0.318409
 30
0.0
  0
SPLINE
  5
26c
100
AcDbEntity
  8
Lights
 62
7
100
AcDbSpline
 70
8
 71
3
 72
8
 73
4
 74
0
 40
0
 40
0
 40
0
 40
0
 40
1
 40
1
 40
1
 40
1
 10
1.872461
 20
0.676362
 30
0.0
 10
1.832652
 20
0.676362
 30
0.0
 10
1.796762
 20
0.652381
 30
0.0
 10
1.781528
 20
0.615602
 30
0.0
  0
SPLINE
  5
26d
100
AcDbEntity
  8
Lights
 62
7
100
AcDbSpline
 70
8
 71
3
 72
8
 73
4
 74
0
 40
0
 40
0
 40
0
 40
0
 40
1
 40
1
 40
1
 40
1
 10
1.781528
 20
0.615602
 30
0.0
 10
1.766293
 20
0.578823
 30
0.0
 10
1.774714
 20
0.536489
 30
0.0
 10
1.802864
 20
0.508339
 30
0.0
  0
SPLINE
  5
26e
100
AcDbEntity
  8
Lights
 62
7
100
AcDbSpline
 70
8
 71
3
 72
8
 73
4
 74
0
 40
0
 40
0
 40
0
 40
0
 40
1
 40
1
 40
1
 40
1
 10
1.802864
 20
0.508339
 30
0.0
 10
1.831013
 20
0.480190
 30
0.0
 10
1.873348
 20
0.471769
 30
0.0
 10
1.910127
 20
0.487004
 30
0.0
  0
SPLINE
  5
26f
100
AcDbEntity
  8
Lights
 62
7
100
AcDbSpline
 70
8
 71
3
 72
8
 73
4
 74
0
 40
0
 40
0
 40
0
 40
0
 40
1
 40
1
 40
1
 40
1
 10
1.910127
 20
0.487004
 30
0.0
 10
1.946905
 20
0.502238
 30
0.0
 10
1.970886
 20
0.538127
 30
0.0
 10
1.970886
 20
0.577937
 30
0.0
  0
SPLINE
  5
270
100
AcDbEntity
  8
Lights
 62
7
100
AcDbSpline
 70
8
 71
3
 72
8
 73
4
 74
0
 40
0
 40
0
 40
0
 40
0
 40
1
 40
1
 40
1
 40
1
 10
1.970886
 20
0.577937
 30
0.0
 10
1.970886
 20
0.604041
 30
0.0
 10
1.960516
 20
0.629075
 30
0.0
 10
1.942058
 20
0.647534
 30
0.0
  0
SPLINE
  5
271
100
AcDbEntity
  8
Lights
 62
7
100
AcDbSpline
 70
8
 71
3
 72
8
 73
4
 74
0
 40
0
 40
0
 40
0
 40
0
 40
1
 40
1
 40
1
 40
1
 10
1.942058
 20
0.647534
 30
0.0
 10
1.923600
 20
0.665992
 30
0.0
 10
1.898565
 20
0.676362
 30
0.0
 10
1.872461
 20
0.676362
 30
0.0
  0
LWPOLYLINE
  5
272
100
AcDbEntity
  8
Lights
 62
7
100
AcDbPolyline
 90
1
 70
1
 10
1.872461
 20
0.692110
 30
0.0
  0
SPLINE
  5
273
100
AcDbEntity
  8
Lights
 62
7
100
AcDbSpline
 70
8
 71
3
 72
8
 73
4
 74
0
 40
0
 40
0
 40
0
 40
0
 40
1
 40
1
 40
1
 40
1
 10
2.256906
 20
0.699354
 30
0.0
 10
2.210727
 20
0.699354
 30
0.0
 10
2.169095
 20
0.671537
 30
0.0
 10
2.151423
 20
0.628873
 30
0.0
  0
SPLINE
  5
274
100
AcDbEntity
  8
Lights
 62
7
100
AcDbSpline
 70
8
 71
3
 72
8
 73
4
 74
0
 40
0
 40
0
 40
0
 40
0
 40
1
 40
1
 40
1
 40
1
 10
2.151423
 20
0.628873
 30
0.0
 10
2.133752
 20
0.586209
 30
0.0
 10
2.143520
 20
0.537101
 30
0.0
 10
2.176173
 20
0.504448
 30
0.0
  0
SPLINE
  5
275
100
AcDbEntity
  8
Lights
 62
7
100
AcDbSpline
 70
8
 71
3
 72
8
 73
4
 74
0
 40
0
 40
0
 40
0
 40
0
 40
1
 40
1
 40
1
 40
1
 10
2.176173
 20
0.504448
 30
0.0
 10
2.208826
 20
0.471795
 30
0.0
 10
2.257934
 20
0.462027
 30
0.0
 10
2.300598
 20
0.479698
 30
0.0
  0
SPLINE
  5
276
100
AcDbEntity
  8
Lights
 62
7
100
AcDbSpline
 70
8
 71
3
 72
8
 73
4
 74
0
 40
0
 40
0
 40
0
 40
0
 40
1
 40
1
 40
1
 40
1
 10
2.300598
 20
0.479698
 30
0.0
 10
2.343262
 20
0.497370
 30
0.0
 10
2.371079
 20
0.539002
 30
0.0
 10
2.371079
 20
0.585181
 30
0.0
  0
SPLINE
  5
277
100
AcDbEntity
  8
Lights
 62
7
100
AcDbSpline
 70
8
 71
3
 72
8
 73
4
 74
0
 40
0
 40
0
 40
0
 40
0
 40
1
 40
1
 40
1
 40
1
 10
2.371079
 20
0.585181
 30
0.0
 10
2.371079
 20
0.615461
 30
0.0
 10
2.359050
 20
0.644502
 30
0.0
 10
2.337638
 20
0.665913
 30
0.0
  0
SPLINE
  5
278
100
AcDbEntity
  8
Lights
 62
7
100
AcDbSpline
 70
8
 71
3
 72
8
 73
4
 74
0
 40
0
 40
0
 40
0
 40
0
 40
1
 40
1
 40
1
 40
1
 10
2.337638
 20
0.665913
 30
0.0
 10
2.316227
 20
0.687325
 30
0.0
 10
2.287186
 20
0.699354
 30
0.0
 10
2.256906
 20
0.699354
 30
0.0
  0
LWPOLYLINE
  5
279
100
AcDbEntity
  8
Lights
 62
7
100
AcDbPolyline
 90
1
 70
1
 10
1.872461
 20
0.676362
 30
0.0
  0
SPLINE
  5
27a
100
AcDbEntity
  8
Lights
 62
7
100
AcDbSpline
 70
8
 71
3
 72
8
 73
4
 74
0
 40
0
 40
0
 40
0
 40
0
 40
1
 40
1
 40
1
 40
1
 10
2.256906
 20
0.683606
 30
0.0
 10
2.217096
 20
0.683606
 30
0.0
 10
2.181207
 20
0.659625
 30
0.0
 10
2.165973
 20
0.622846
 30
0.0
  0
SPLINE
  5
27b
100
AcDbEntity
  8
Lights
 62
7
100
AcDbSpline
 70
8
 71
3
 72
8
 73
4
 74
0
 40
0
 40
0
 40
0
 40
0
 40
1
 40
1
 40
1
 40
1
 10
2.165973
 20
0.622846
 30
0.0
 10
2.150738
 20
0.586067
 30
0.0
 10
2.159159
 20
0.543733
 30
0.0
 10
2.187309
 20
0.515584
 30
0.0
  0
SPLINE
  5
27c
100
AcDbEntity
  8
Lights
 62
7
100
AcDbSpline
 70
8
 71
3
 72
8
 73
4
 74
0
 40
0
 40
0
 40
0
 40
0
 40
1
 40
1
 40
1
 40
1
 10
2.187309
 20
0.515584
 30
0.0
 10
2.215458
 20
0.487434
 30
0.0
 10
2.257792
 20
0.479013
 30
0.0
 10
2.294571
 20
0.494248
 30
0.0
  0
SPLINE
  5
27d
100
AcDbEntity
  8
Lights
 62
7
100
AcDbSpline
 70
8
 71
3
 72
8
 73
4
 74
0
 40
0
 40
0
 40
0
 40
0
 40
1
 40
1
 40
1
 40
1
 10
2.294571
 20
0.494248
 30
0.0
 10
2.331350
 20
0.509482
 30
0.0
 10
2.355331
 20
0.545371
 30
0.0
 10
2.355331
 20
0.585181
 30
0.0
  0
SPLINE
  5
27e
100
AcDbEntity
  8
Lights
 62
7
100
AcDbSpline
 70
8
 71
3
 72
8
 73
4
 74
0
 40
0
 40
0
 40
0
 40
0
 40
1
 40
1
 40
1
 40
1
 10
2.355331
 20
0.585181
 30
0.0
 10
2.355331
 20
0.611285
 30
0.0
 10
2.344961
 20
0.636320
 30
0.0
 10
2.326503
 20
0.654778
 30
0.0
  0
SPLINE
  5
27f
100
AcDbEntity
  8
Lights
 62
7
100
AcDbSpline
 70
8
 71
3
 72
8
 73
4
 74
0
 40
0
 40
0
 40
0
 40
0
 40
1
 40
1
 40
1
 40
1
 10
2.326503
 20
0.654778
 30
0.0
 10
2.308045
 20
0.673236
 30
0.0
 10
2.283010
 20
0.683606
 30
0.0
 10
2.256906
 20
0.683606
 30
0.0
  0
LWPOLYLINE
  5
280
100
AcDbEntity
  8
Lights
 62
7
100
AcDbPolyline
 90
1
 70
1
 10
2.256906
 20
0.699354
 30
0.0
  0
SPLINE
  5
281
100
AcDbEntity
  8
Lights
 62
7
100
AcDbSpline
 70
8
 71
3
 72
8
 73
4
 74
0
 40
0
 40
0
 40
0
 40
0
 40
1
 40
1
 40
1
 40
1
 10
1.241390
 20
-0.128087
 30
0.0
 10
1.195211
 20
-0.128087
 30
0.0
 10
1.153579
 20
-0.155904
 30
0.0
 10
1.135908
 20
-0.198568
 30
0.0
  0
SPLINE
  5
282
100
AcDbEntity
  8
Lights
 62
7
100
AcDbSpline
 70
8
 71
3
 72
8
 73
4
 74
0
 40
0
 40
0
 40
0
 40
0
 40
1
 40
1
 40
1
 40
1
 10
1.135908
 20
-0.198568
 30
0.0
 10
1.118236
 20
-0.241232
 30
0.0
 10
1.128004
 20
-0.290340
 30
0.0
 10
1.160657
 20
-0.322993
 30
0.0
  0
SPLINE
  5
283
100
AcDbEntity
  8
Lights
 62
7
100
AcDbSpline
 70
8
 71
3
 72
8
 73
4
 74
0
 40
0
 40
0
 40
0
 40
0
 40
1
 40
1
 40
1
 40
1
 10
1.160657
 20
-0.322993
 30
0.0
 10
1.193311
 20
-0.355646
 30
0.0
 10
1.242419
 20
-0.365414
 30
0.0
 10
1.285082
 20
-0.347743
 30
0.0
  0
SPLINE
  5
284
100
AcDbEntity
  8
Lights
 62
7
100
AcDbSpline
 70
8
 71
3
 72
8
 73
4
 74
0
 40
0
 40
0
 40
0
 40
0
 40
1
 40
1
 40
1
 40
1
 10
1.285082
 20
-0.347743
 30
0.0
 10
1.327746
 20
-0.330071
 30
0.0
 10
1.355563
 20
-0.288439
 30
0.0
 10
1.355563
 20
-0.242260
 30
0.0
  0
SPLINE
  5
285
100
AcDbEntity
  8
Lights
 62
7
100
AcDbSpline
 70
8
 71
3
 72
8
 73
4
 74
0
 40
0
 40
0
 40
0
 40
0
 40
1
 40
1
 40
1
 40
1
 10
1.355563
 20
-0.242260
 30
0.0
 10
1.355563
 20
-0.211980
 30
0.0
 10
1.343534
 20
-0.182939
 30
0.0
 10
1.322123
 20
-0.161528
 30
0.0
  0
SPLINE
  5
286
100
AcDbEntity
  8
Lights
 62
7
100
AcDbSpline
 70
8
 71
3
 72
8
 73
4
 74
0
 40
0
 40
0
 40
0
 40
0
 40
1
 40
1
 40
1
 40
1
 10
1.322123
 20
-0.161528
 30
0.0
 10
1.300711
 20
-0.140116
 30
0.0
 10
1.271671
 20
-0.128087
 30
0.0
 10
1.241390
 20
-0.128087
 30
0.0
  0
LWPOLYLINE
  5
287
100
AcDbEntity
  8
Lights
 62
7
100
AcDbPolyline
 90
1
 70
1
 10
2.256906
 20
0.683606
 30
0.0
  0
SPLINE
  5
288
100
AcDbEntity
  8
Lights
 62
7
100
AcDbSpline
 70
8
 71
3
 72
8
 73
4
 74
0
 40
0
 40
0
 40
0
 40
0
 40
1
 40
1
 40
1
 40
1
 10
1.241390
 20
-0.143835
 30
0.0
 10
1.201581
 20
-0.143835
 30
0.0
 10
1.165691
 20
-0.167816
 30
0.0
 10
1.150457
 20
-0.204595
 30
0.0
  0
SPLINE
  5
289
100
AcDbEntity
  8
Lights
 62
7
100
AcDbSpline
 70
8
 71
3
 72
8
 73
4
 74
0
 40
0
 40
0
 40
0
 40
0
 40
1
 40
1
 40
1
 40
1
 10
1.150457
 20
-0.204595
 30
0.0
 10
1.135223
 20
-0.241374
 30
0.0
 10
1.143643
 20
-0.283708
 30
0.0
 10
1.171793
 20
-0.311857
 30
0.0
  0
SPLINE
  5
28a
100
AcDbEntity
  8
Lights
 62
7
100
AcDbSpline
 70
8
 71
3
 72
8
 73
4
 74
0
 40
0
 40
0
 40
0
 40
0
 40
1
 40
1
 40
1
 40
1
 10
1.171793
 20
-0.311857
 30
0.0
 10
1.199942
 20
-0.340007
 30
0.0
 10
1.242277
 20
-0.348428
 30
0.0
 10
1.279056
 20
-0.333193
 30
0.0
  0
SPLINE
  5
28b
100
AcDbEntity
  8
Lights
 62
7
100
AcDbSpline
 70
8
 71
3
 72
8
 73
4
 74
0
 40
0
 40
0
 40
0
 40
0
 40
1
 40
1
 40
1
 40
1
 10
1.279056
 20
-0.333193
 30
0.0
 10
1.315835
 20
-0.317959
 30
0.0
 10
1.339815
 20
-0.282070
 30
0.0
 10
1.339815
 20
-0.242260
 30
0.0
  0
SPLINE
  5
28c
100
AcDbEntity
  8
Lights
 62
7
100
AcDbSpline
 70
8
 71
3
 72
8
 73
4
 74
0
 40
0
 40
0
 40
0
 40
0
 40
1
 40
1
 40
1
 40
1
 10
1.339815
 20
-0.242260
 30
0.0
 10
1.339815
 20
-0.216156
 30
0.0
 10
1.329445
 20
-0.191121
 30
0.0
 10
1.310987
 20
-0.172663
 30
0.0
  0
SPLINE
  5
28d
100
AcDbEntity
  8
Lights
 62
7
100
AcDbSpline
 70
8
 71
3
 72
8
 73
4
 74
0
 40
0
 40
0
 40
0
 40
0
 40
1
 40
1
 40
1
 40
1
 10
1.310987
 20
-0.172663
 30
0.0
 10
1.292529
 20
-0.154205
 30
0.0
 10
1.267494
 20
-0.143835
 30
0.0
 10
1.241390
 20
-0.143835
 30
0.0
  0
LWPOLYLINE
  5
28e
100
AcDbEntity
  8
Lights
 62
7
100
AcDbPolyline
 90
1
 70
1
 10
1.241390
 20
-0.128087
 30
0.0
  0
SPLINE
  5
28f
100
AcDbEntity
  8
Lights
 62
7
100
AcDbSpline
 70
8
 71
3
 72
8
 73
4
 74
0
 40
0
 40
0
 40
0
 40
0
 40
1
 40
1
 40
1
 40
1
 10
0.820677
 20
-0.323402
 30
0.0
 10
0.774499
 20
-0.323402
 30
0.0
 10
0.732867
 20
-0.351219
 30
0.0
 10
0.715195
 20
-0.393883
 30
0.0
  0
SPLINE
  5
290
100
AcDbEntity
  8
Lights
 62
7
100
AcDbSpline
 70
8
 71
3
 72
8
 73
4
 74
0
 40
0
 40
0
 40
0
 40
0
 40
1
 40
1
 40
1
 40
1
 10
0.715195
 20
-0.393883
 30
0.0
 10
0.697523
 20
-0.436547
 30
0.0
 10
0.707291
 20
-0.485655
 30
0.0
 10
0.739945
 20
-0.518308
 30
0.0
  0
SPLINE
  5
291
100
AcDbEntity
  8
Lights
 62
7
100
AcDbSpline
 70
8
 71
3
 72
8
 73
4
 74
0
 40
0
 40
0
 40
0
 40
0
 40
1
 40
1
 40
1
 40
1
 10
0.739945
 20
-0.518308
 30
0.0
 10
0.772598
 20
-0.550961
 30
0.0
 10
0.821706
 20
-0.560729
 30
0.0
 10
0.864370
 20
-0.543058
 30
0.0
  0
SPLINE
  5
292
100
AcDbEntity
  8
Lights
 62
7
100
AcDbSpline
 70
8
 71
3
 72
8
 73
4
 74
0
 40
0
 40
0
 40
0
 40
0
 40
1
 40
1
 40
1
 40
1
 10
0.864370
 20
-0.543058
 30
0.0
 10
0.907033
 20
-0.525386
 30
0.0
 10
0.934851
 20
-0.483754
 30
0.0
 10
0.934851
 20
-0.437575
 30
0.0
  0
SPLINE
  5
293
100
AcDbEntity
  8
Lights
 62
7
100
AcDbSpline
 70
8
 71
3
 72
8
 73
4
 74
0
 40
0
 40
0
 40
0
 40
0
 40
1
 40
1
 40
1
 40
1
 10
0.934851
 20
-0.437575
 30
0.0
 10
0.934851
 20
-0.407295
 30
0.0
 10
0.922822
 20
-0.378254
 30
0.0
 10
0.901410
 20
-0.356843
 30
0.0
  0
SPLINE
  5
294
100
AcDbEntity
  8
Lights
 62
7
100
AcDbSpline
 70
8
 71
3
 72
8
 73
4
 74
0
 40
0
 40
0
 40
0
 40
0
 40
1
 40
1
 40
1
 40
1
 10
0.901410
 20
-0.356843
 30
0.0
 10
0.879998
 20
-0.335431
 30
0.0
 10
0.850958
 20
-0.323402
 30
0.0
 10
0.820677
 20
-0.323402
 30
0.0
  0
LWPOLYLINE
  5
295
100
AcDbEntity
  8
Lights
 62
7
100
AcDbPolyline
 90
1
 70
1
 10
1.241390
 20
-0.143835
 30
0.0
  0
SPLINE
  5
296
100
AcDbEntity
  8
Lights
 62
7
100
AcDbSpline
 70
8
 71
3
 72
8
 73
4
 74
0
 40
0
 40
0
 40
0
 40
0
 40
1
 40
1
 40
1
 40
1
 10
0.820677
 20
-0.339150
 30
0.0
 10
0.780868
 20
-0.339150
 30
0.0
 10
0.744979
 20
-0.363131
 30
0.0
 10
0.729744
 20
-0.399910
 30
0.0
  0
SPLINE
  5
297
100
AcDbEntity
  8
Lights
 62
7
100
AcDbSpline
 70
8
 71
3
 72
8
 73
4
 74
0
 40
0
 40
0
 40
0
 40
0
 40
1
 40
1
 40
1
 40
1
 10
0.729744
 20
-0.399910
 30
0.0
 10
0.714510
 20
-0.436688
 30
0.0
 10
0.722931
 20
-0.479023
 30
0.0
 10
0.751080
 20
-0.507172
 30
0.0
  0
SPLINE
  5
298
100
AcDbEntity
  8
Lights
 62
7
100
AcDbSpline
 70
8
 71
3
 72
8
 73
4
 74
0
 40
0
 40
0
 40
0
 40
0
 40
1
 40
1
 40
1
 40
1
 10
0.751080
 20
-0.507172
 30
0.0
 10
0.779230
 20
-0.535322
 30
0.0
 10
0.821564
 20
-0.543743
 30
0.0
 10
0.858343
 20
-0.528508
 30
0.0
  0
SPLINE
  5
299
100
AcDbEntity
  8
Lights
 62
7
100
AcDbSpline
 70
8
 71
3
 72
8
 73
4
 74
0
 40
0
 40
0
 40
0
 40
0
 40
1
 40
1
 40
1
 40
1
 10
0.858343
 20
-0.528508
 30
0.0
 10
0.895122
 20
-0.513274
 30
0.0
 10
0.919103
 20
-0.477384
 30
0.0
 10
0.919103
 20
-0.437575
 30
0.0
  0
SPLINE
  5
29a
100
AcDbEntity
  8
Lights
 62
7
100
AcDbSpline
 70
8
 71
3
 72
8
 73
4
 74
0
 40
0
 40
0
 40
0
 40
0
 40
1
 40
1
 40
1
 40
1
 10
0.919103
 20
-0.437575
 30
0.0
 10
0.919103
 20
-0.411471
 30
0.0
 10
0.908733
 20
-0.386436
 30
0.0
 10
0.890274
 20
-0.367978
 30
0.0
  0
SPLINE
  5
29b
100
AcDbEntity
  8
Lights
 62
7
100
AcDbSpline
 70
8
 71
3
 72
8
 73
4
 74
0
 40
0
 40
0
 40
0
 40
0
 40
1
 40
1
 40
1
 40
1
 10
0.890274
 20
-0.367978
 30
0.0
 10
0.871816
 20
-0.349520
 30
0.0
 10
0.846781
 20
-0.339150
 30
0.0
 10
0.820677
 20
-0.339150
 30
0.0
  0
LWPOLYLINE
  5
29c
100
AcDbEntity
  8
Lights
 62
7
100
AcDbPolyline
 90
1
 70
1
 10
0.820677
 20
-0.323402
 30
0.0
  0
SPLINE
  5
29d
100
AcDbEntity
  8
Lights
 62
7
100
AcDbSpline
 70
8
 71
3
 72
8
 73
4
 74
0
 40
0
 40
0
 40
0
 40
0
 40
1
 40
1
 40
1
 40
1
 10
0.334681
 20
-0.236394
 30
0.0
 10
0.288503
 20
-0.236394
 30
0.0
 10
0.246871
 20
-0.264212
 30
0.0
 10
0.229199
 20
-0.306875
 30
0.0
  0
SPLINE
  5
29e
100
AcDbEntity
  8
Lights
 62
7
100
AcDbSpline
 70
8
 71
3
 72
8
 73
4
 74
0
 40
0
 40
0
 40
0
 40
0
 40
1
 40
1
 40
1
 40
1
 10
0.229199
 20
-0.306875
 30
0.0
 10
0.211527
 20
-0.349539
 30
0.0
 10
0.221295
 20
-0.398647
 30
0.0
 10
0.253949
 20
-0.431300
 30
0.0
  0
SPLINE
  5
29f
100
AcDbEntity
  8
Lights
 62
7
100
AcDbSpline
 70
8
 71
3
 72
8
 73
4
 74
0
 40
0
 40
0
 40
0
 40
0
 40
1
 40
1
 40
1
 40
1
 10
0.253949
 20
-0.431300
 30
0.0
 10
0.286602
 20
-0.463953
 30
0.0
 10
0.335710
 20
-0.473721
 30
0.0
 10
0.378374
 20
-0.456050
 30
0.0
  0
SPLINE
  5
2a0
100
AcDbEntity
  8
Lights
 62
7
100
AcDbSpline
 70
8
 71
3
 72
8
 73
4
 74
0
 40
0
 40
0
 40
0
 40
0
 40
1
 40
1
 40
1
 40
1
 10
0.378374
 20
-0.456050
 30
0.0
 10
0.421037
 20
-0.438378
 30
0.0
 10
0.448855
 20
-0.396746
 30
0.0
 10
0.448855
 20
-0.350567
 30
0.0
  0
SPLINE
  5
2a1
100
AcDbEntity
  8
Lights
 62
7
100
AcDbSpline
 70
8
 71
3
 72
8
 73
4
 74
0
 40
0
 40
0
 40
0
 40
0
 40
1
 40
1
 40
1
 40
1
 10
0.448855
 20
-0.350567
 30
0.0
 10
0.448855
 20
-0.320287
 30
0.0
 10
0.436826
 20
-0.291246
 30
0.0
 10
0.415414
 20
-0.269835
 30
0.0
  0
SPLINE
  5
2a2
100
AcDbEntity
  8
Lights
 62
7
100
AcDbSpline
 70
8
 71
3
 72
8
 73
4
 74
0
 40
0
 40
0
 40
0
 40
0
 40
1
 40
1
 40
1
 40
1
 10
0.415414
 20
-0.269835
 30
0.0
 10
0.394002
 20
-0.248423
 30
0.0
 10
0.364962
 20
-0.236394
 30
0.0
 10
0.334681
 20
-0.236394
 30
0.0
  0
LWPOLYLINE
  5
2a3
100
AcDbEntity
  8
Lights
 62
7
100
AcDbPolyline
 90
1
 70
1
 10
0.820677
 20
-0.339150
 30
0.0
  0
SPLINE
  5
2a4
100
AcDbEntity
  8
Lights
 62
7
100
AcDbSpline
 70
8
 71
3
 72
8
 73
4
 74
0
 40
0
 40
0
 40
0
 40
0
 40
1
 40
1
 40
1
 40
1
 10
0.334681
 20
-0.252142
 30
0.0
 10
0.294872
 20
-0.252142
 30
0.0
 10
0.258983
 20
-0.276123
 30
0.0
 10
0.243748
 20
-0.312902
 30
0.0
  0
SPLINE
  5
2a5
100
AcDbEntity
  8
Lights
 62
7
100
AcDbSpline
 70
8
 71
3
 72
8
 73
4
 74
0
 40
0
 40
0
 40
0
 40
0
 40
1
 40
1
 40
1
 40
1
 10
0.243748
 20
-0.312902
 30
0.0
 10
0.228514
 20
-0.349681
 30
0.0
 10
0.236935
 20
-0.392015
 30
0.0
 10
0.265084
 20
-0.420164
 30
0.0
  0
SPLINE
  5
2a6
100
AcDbEntity
  8
Lights
 62
7
100
AcDbSpline
 70
8
 71
3
 72
8
 73
4
 74
0
 40
0
 40
0
 40
0
 40
0
 40
1
 40
1
 40
1
 40
1
 10
0.265084
 20
-0.420164
 30
0.0
 10
0.293234
 20
-0.448314
 30
0.0
 10
0.335568
 20
-0.456735
 30
0.0
 10
0.372347
 20
-0.441500
 30
0.0
  0
SPLINE
  5
2a7
100
AcDbEntity
  8
Lights
 62
7
100
AcDbSpline
 70
8
 71
3
 72
8
 73
4
 74
0
 40
0
 40
0
 40
0
 40
0
 40
1
 40
1
 40
1
 40
1
 10
0.372347
 20
-0.441500
 30
0.0
 10
0.409126
 20
-0.426266
 30
0.0
 10
0.433106
 20
-0.390377
 30
0.0
 10
0.433106
 20
-0.350567
 30
0.0
  0
SPLINE
  5
2a8
100
AcDbEntity
  8
Lights
 62
7
100
AcDbSpline
 70
8
 71
3
 72
8
 73
4
 74
0
 40
0
 40
0
 40
0
 40
0
 40
1
 40
1
 40
1
 40
1
 10
0.433106
 20
-0.350567
 30
0.0
 10
0.433106
 20
-0.324463
 30
0.0
 10
0.422737
 20
-0.299429
 30
0.0
 10
0.404278
 20
-0.280970
 30
0.0
  0
SPLINE
  5
2a9
100
AcDbEntity
  8
Lights
 62
7
100
AcDbSpline
 70
8
 71
3
 72
8
 73
4
 74
0
 40
0
 40
0
 40
0
 40
0
 40
1
 40
1
 40
1
 40
1
 10
0.404278
 20
-0.280970
 30
0.0
 10
0.385820
 20
-0.262512
 30
0.0
 10
0.360785
 20
-0.252142
 30
0.0
 10
0.334681
 20
-0.252142
 30
0.0
  0
LWPOLYLINE
  5
2aa
100
AcDbEntity
  8
Lights
 62
7
100
AcDbPolyline
 90
1
 70
1
 10
0.334681
 20
-0.236394
 30
0.0
  0
SPLINE
  5
2ab
100
AcDbEntity
  8
Lights
 62
7
100
AcDbSpline
 70
8
 71
3
 72
8
 73
4
 74
0
 40
0
 40
0
 40
0
 40
0
 40
1
 40
1
 40
1
 40
1
 10
0.479756
 20
0.619551
 30
0.0
 10
0.433577
 20
0.619551
 30
0.0
 10
0.391946
 20
0.591733
 30
0.0
 10
0.374274
 20
0.549070
 30
0.0
  0
SPLINE
  5
2ac
100
AcDbEntity
  8
Lights
 62
7
100
AcDbSpline
 70
8
 71
3
 72
8
 73
4
 74
0
 40
0
 40
0
 40
0
 40
0
 40
1
 40
1
 40
1
 40
1
 10
0.374274
 20
0.549070
 30
0.0
 10
0.356602
 20
0.506406
 30
0.0
 10
0.366370
 20
0.457298
 30
0.0
 10
0.399023
 20
0.424645
 30
0.0
  0
SPLINE
  5
2ad
100
AcDbEntity
  8
Lights
 62
7
100
AcDbSpline
 70
8
 71
3
 72
8
 73
4
 74
0
 40
0
 40
0
 40
0
 40
0
 40
1
 40
1
 40
1
 40
1
 10
0.399023
 20
0.424645
 30
0.0
 10
0.431677
 20
0.391992
 30
0.0
 10
0.480785
 20
0.382223
 30
0.0
 10
0.523448
 20
0.399895
 30
0.0
  0
SPLINE
  5
2ae
100
AcDbEntity
  8
Lights
 62
7
100
AcDbSpline
 70
8
 71
3
 72
8
 73
4
 74
0
 40
0
 40
0
 40
0
 40
0
 40
1
 40
1
 40
1
 40
1
 10
0.523448
 20
0.399895
 30
0.0
 10
0.566112
 20
0.417567
 30
0.0
 10
0.593929
 20
0.459199
 30
0.0
 10
0.593929
 20
0.505378
 30
0.0
  0
SPLINE
  5
2af
100
AcDbEntity
  8
Lights
 62
7
100
AcDbSpline
 70
8
 71
3
 72
8
 73
4
 74
0
 40
0
 40
0
 40
0
 40
0
 40
1
 40
1
 40
1
 40
1
 10
0.593929
 20
0.505378
 30
0.0
 10
0.593929
 20
0.535658
 30
0.0
 10
0.581900
 20
0.564699
 30
0.0
 10
0.560489
 20
0.586110
 30
0.0
  0
SPLINE
  5
2b0
100
AcDbEntity
  8
Lights
 62
7
100
AcDbSpline
 70
8
 71
3
 72
8
 73
4
 74
0
 40
0
 40
0
 40
0
 40
0
 40
1
 40
1
 40
1
 40
1
 10
0.560489
 20
0.586110
 30
0.0
 10
0.539077
 20
0.607522
 30
0.0
 10
0.510037
 20
0.619551
 30
0.0
 10
0.479756
 20
0.619551
 30
0.0
  0
LWPOLYLINE
  5
2b1
100
AcDbEntity
  8
Lights
 62
7
100
AcDbPolyline
 90
1
 70
1
 10
0.334681
 20
-0.252142
 30
0.0
  0
SPLINE
  5
2b2
100
AcDbEntity
  8
Lights
 62
7
100
AcDbSpline
 70
8
 71
3
 72
8
 73
4
 74
0
 40
0
 40
0
 40
0
 40
0
 40
1
 40
1
 40
1
 40
1
 10
0.479756
 20
0.603803
 30
0.0
 10
0.439947
 20
0.603803
 30
0.0
 10
0.404057
 20
0.579822
 30
0.0
 10
0.388823
 20
0.543043
 30
0.0
  0
SPLINE
  5
2b3
100
AcDbEntity
  8
Lights
 62
7
100
AcDbSpline
 70
8
 71
3
 72
8
 73
4
 74
0
 40
0
 40
0
 40
0
 40
0
 40
1
 40
1
 40
1
 40
1
 10
0.388823
 20
0.543043
 30
0.0
 10
0.373589
 20
0.506264
 30
0.0
 10
0.382010
 20
0.463930
 30
0.0
 10
0.410159
 20
0.435780
 30
0.0
  0
SPLINE
  5
2b4
100
AcDbEntity
  8
Lights
 62
7
100
AcDbSpline
 70
8
 71
3
 72
8
 73
4
 74
0
 40
0
 40
0
 40
0
 40
0
 40
1
 40
1
 40
1
 40
1
 10
0.410159
 20
0.435780
 30
0.0
 10
0.438308
 20
0.407631
 30
0.0
 10
0.480643
 20
0.399210
 30
0.0
 10
0.517422
 20
0.414445
 30
0.0
  0
SPLINE
  5
2b5
100
AcDbEntity
  8
Lights
 62
7
100
AcDbSpline
 70
8
 71
3
 72
8
 73
4
 74
0
 40
0
 40
0
 40
0
 40
0
 40
1
 40
1
 40
1
 40
1
 10
0.517422
 20
0.414445
 30
0.0
 10
0.554201
 20
0.429679
 30
0.0
 10
0.578181
 20
0.465568
 30
0.0
 10
0.578181
 20
0.505378
 30
0.0
  0
SPLINE
  5
2b6
100
AcDbEntity
  8
Lights
 62
7
100
AcDbSpline
 70
8
 71
3
 72
8
 73
4
 74
0
 40
0
 40
0
 40
0
 40
0
 40
1
 40
1
 40
1
 40
1
 10
0.578181
 20
0.505378
 30
0.0
 10
0.578181
 20
0.531482
 30
0.0
 10
0.567812
 20
0.556516
 30
0.0
 10
0.549353
 20
0.574975
 30
0.0
  0
SPLINE
  5
2b7
100
AcDbEntity
  8
Lights
 62
7
100
AcDbSpline
 70
8
 71
3
 72
8
 73
4
 74
0
 40
0
 40
0
 40
0
 40
0
 40
1
 40
1
 40
1
 40
1
 10
0.549353
 20
0.574975
 30
0.0
 10
0.530895
 20
0.593433
 30
0.0
 10
0.505860
 20
0.603803
 30
0.0
 10
0.479756
 20
0.603803
 30
0.0
  0
LWPOLYLINE
  5
2b8
100
AcDbEntity
  8
Lights
 62
7
100
AcDbPolyline
 90
1
 70
1
 10
0.479756
 20
0.619551
 30
0.0
  0
SPLINE
  5
2b9
100
AcDbEntity
  8
Lights
 62
7
100
AcDbSpline
 70
8
 71
3
 72
8
 73
4
 74
0
 40
0
 40
0
 40
0
 40
0
 40
1
 40
1
 40
1
 40
1
 10
0.907721
 20
0.808133
 30
0.0
 10
0.861542
 20
0.808133
 30
0.0
 10
0.819910
 20
0.780316
 30
0.0
 10
0.802238
 20
0.737652
 30
0.0
  0
SPLINE
  5
2ba
100
AcDbEntity
  8
Lights
 62
7
100
AcDbSpline
 70
8
 71
3
 72
8
 73
4
 74
0
 40
0
 40
0
 40
0
 40
0
 40
1
 40
1
 40
1
 40
1
 10
0.802238
 20
0.737652
 30
0.0
 10
0.784567
 20
0.694989
 30
0.0
 10
0.794335
 20
0.645881
 30
0.0
 10
0.826988
 20
0.613228
 30
0.0
  0
SPLINE
  5
2bb
100
AcDbEntity
  8
Lights
 62
7
100
AcDbSpline
 70
8
 71
3
 72
8
 73
4
 74
0
 40
0
 40
0
 40
0
 40
0
 40
1
 40
1
 40
1
 40
1
 10
0.826988
 20
0.613228
 30
0.0
 10
0.859641
 20
0.580574
 30
0.0
 10
0.908749
 20
0.570806
 30
0.0
 10
0.951413
 20
0.588478
 30
0.0
  0
SPLINE
  5
2bc
100
AcDbEntity
  8
Lights
 62
7
100
AcDbSpline
 70
8
 71
3
 72
8
 73
4
 74
0
 40
0
 40
0
 40
0
 40
0
 40
1
 40
1
 40
1
 40
1
 10
0.951413
 20
0.588478
 30
0.0
 10
0.994076
 20
0.606150
 30
0.0
 10
1.021894
 20
0.647781
 30
0.0
 10
1.021894
 20
0.693960
 30
0.0
  0
SPLINE
  5
2bd
100
AcDbEntity
  8
Lights
 62
7
100
AcDbSpline
 70
8
 71
3
 72
8
 73
4
 74
0
 40
0
 40
0
 40
0
 40
0
 40
1
 40
1
 40
1
 40
1
 10
1.021894
 20
0.693960
 30
0.0
 10
1.021894
 20
0.724241
 30
0.0
 10
1.009865
 20
0.753281
 30
0.0
 10
0.988453
 20
0.774693
 30
0.0
  0
SPLINE
  5
2be
100
AcDbEntity
  8
Lights
 62
7
100
AcDbSpline
 70
8
 71
3
 72
8
 73
4
 74
0
 40
0
 40
0
 40
0
 40
0
 40
1
 40
1
 40
1
 40
1
 10
0.988453
 20
0.774693
 30
0.0
 10
0.967042
 20
0.796105
 30
0.0
 10
0.938001
 20
0.808133
 30
0.0
 10
0.907721
 20
0.808133
 30
0.0
  0
LWPOLYLINE
  5
2bf
100
AcDbEntity
  8
Lights
 62
7
100
AcDbPolyline
 90
1
 70
1
 10
0.479756
 20
0.603803
 30
0.0
  0
SPLINE
  5
2c0
100
AcDbEntity
  8
Lights
 62
7
100
AcDbSpline
 70
8
 71
3
 72
8
 73
4
 74
0
 40
0
 40
0
 40
0
 40
0
 40
1
 40
1
 40
1
 40
1
 10
0.907721
 20
0.792385
 30
0.0
 10
0.867911
 20
0.792385
 30
0.0
 10
0.832022
 20
0.768405
 30
0.0
 10
0.816788
 20
0.731626
 30
0.0
  0
SPLINE
  5
2c1
100
AcDbEntity
  8
Lights
 62
7
100
AcDbSpline
 70
8
 71
3
 72
8
 73
4
 74
0
 40
0
 40
0
 40
0
 40
0
 40
1
 40
1
 40
1
 40
1
 10
0.816788
 20
0.731626
 30
0.0
 10
0.801553
 20
0.694847
 30
0.0
 10
0.809974
 20
0.652513
 30
0.0
 10
0.838124
 20
0.624363
 30
0.0
  0
SPLINE
  5
2c2
100
AcDbEntity
  8
Lights
 62
7
100
AcDbSpline
 70
8
 71
3
 72
8
 73
4
 74
0
 40
0
 40
0
 40
0
 40
0
 40
1
 40
1
 40
1
 40
1
 10
0.838124
 20
0.624363
 30
0.0
 10
0.866273
 20
0.596214
 30
0.0
 10
0.908607
 20
0.587793
 30
0.0
 10
0.945386
 20
0.603027
 30
0.0
  0
SPLINE
  5
2c3
100
AcDbEntity
  8
Lights
 62
7
100
AcDbSpline
 70
8
 71
3
 72
8
 73
4
 74
0
 40
0
 40
0
 40
0
 40
0
 40
1
 40
1
 40
1
 40
1
 10
0.945386
 20
0.603027
 30
0.0
 10
0.982165
 20
0.618262
 30
0.0
 10
1.006146
 20
0.654151
 30
0.0
 10
1.006146
 20
0.693960
 30
0.0
  0
SPLINE
  5
2c4
100
AcDbEntity
  8
Lights
 62
7
100
AcDbSpline
 70
8
 71
3
 72
8
 73
4
 74
0
 40
0
 40
0
 40
0
 40
0
 40
1
 40
1
 40
1
 40
1
 10
1.006146
 20
0.693960
 30
0.0
 10
1.006146
 20
0.720064
 30
0.0
 10
0.995776
 20
0.745099
 30
0.0
 10
0.977318
 20
0.763557
 30
0.0
  0
SPLINE
  5
2c5
100
AcDbEntity
  8
Lights
 62
7
100
AcDbSpline
 70
8
 71
3
 72
8
 73
4
 74
0
 40
0
 40
0
 40
0
 40
0
 40
1
 40
1
 40
1
 40
1
 10
0.977318
 20
0.763557
 30
0.0
 10
0.958859
 20
0.782016
 30
0.0
 10
0.933825
 20
0.792385
 30
0.0
 10
0.907721
 20
0.792385
 30
0.0
  0
LWPOLYLINE
  5
2c6
100
AcDbEntity
  8
Lights
 62
7
100
AcDbPolyline
 90
1
 70
1
 10
0.907721
 20
0.808133
 30
0.0
  0
SPLINE
  5
2c7
100
AcDbEntity
  8
Lights
 62
7
100
AcDbSpline
 70
8
 71
3
 72
8
 73
4
 74
0
 40
0
 40
0
 40
0
 40
0
 40
1
 40
1
 40
1
 40
1
 10
1.060047
 20
0.423724
 30
0.0
 10
1.013869
 20
0.423724
 30
0.0
 10
0.972237
 20
0.395907
 30
0.0
 10
0.954565
 20
0.353243
 30
0.0
  0
SPLINE
  5
2c8
100
AcDbEntity
  8
Lights
 62
7
100
AcDbSpline
 70
8
 71
3
 72
8
 73
4
 74
0
 40
0
 40
0
 40
0
 40
0
 40
1
 40
1
 40
1
 40
1
 10
0.954565
 20
0.353243
 30
0.0
 10
0.936893
 20
0.310579
 30
0.0
 10
0.946661
 20
0.261471
 30
0.0
 10
0.979315
 20
0.228818
 30
0.0
  0
SPLINE
  5
2c9
100
AcDbEntity
  8
Lights
 62
7
100
AcDbSpline
 70
8
 71
3
 72
8
 73
4
 74
0
 40
0
 40
0
 40
0
 40
0
 40
1
 40
1
 40
1
 40
1
 10
0.979315
 20
0.228818
 30
0.0
 10
1.011968
 20
0.196165
 30
0.0
 10
1.061076
 20
0.186397
 30
0.0
 10
1.103740
 20
0.204068
 30
0.0
  0
SPLINE
  5
2ca
100
AcDbEntity
  8
Lights
 62
7
100
AcDbSpline
 70
8
 71
3
 72
8
 73
4
 74
0
 40
0
 40
0
 40
0
 40
0
 40
1
 40
1
 40
1
 40
1
 10
1.103740
 20
0.204068
 30
0.0
 10
1.146403
 20
0.221740
 30
0.0
 10
1.174221
 20
0.263372
 30
0.0
 10
1.174221
 20
0.309551
 30
0.0
  0
SPLINE
  5
2cb
100
AcDbEntity
  8
Lights
 62
7
100
AcDbSpline
 70
8
 71
3
 72
8
 73
4
 74
0
 40
0
 40
0
 40
0
 40
0
 40
1
 40
1
 40
1
 40
1
 10
1.174221
 20
0.309551
 30
0.0
 10
1.174221
 20
0.339831
 30
0.0
 10
1.162192
 20
0.368872
 30
0.0
 10
1.140780
 20
0.390283
 30
0.0
  0
SPLINE
  5
2cc
100
AcDbEntity
  8
Lights
 62
7
100
AcDbSpline
 70
8
 71
3
 72
8
 73
4
 74
0
 40
0
 40
0
 40
0
 40
0
 40
1
 40
1
 40
1
 40
1
 10
1.140780
 20
0.390283
 30
0.0
 10
1.119368
 20
0.411695
 30
0.0
 10
1.090328
 20
0.423724
 30
0.0
 10
1.060047
 20
0.423724
 30
0.0
  0
LWPOLYLINE
  5
2cd
100
AcDbEntity
  8
Lights
 62
7
100
AcDbPolyline
 90
1
 70
1
 10
0.907721
 20
0.792385
 30
0.0
  0
SPLINE
  5
2ce
100
AcDbEntity
  8
Lights
 62
7
100
AcDbSpline
 70
8
 71
3
 72
8
 73
4
 74
0
 40
0
 40
0
 40
0
 40
0
 40
1
 40
1
 40
1
 40
1
 10
1.060047
 20
0.407976
 30
0.0
 10
1.020238
 20
0.407976
 30
0.0
 10
0.984349
 20
0.383995
 30
0.0
 10
0.969114
 20
0.347216
 30
0.0
  0
SPLINE
  5
2cf
100
AcDbEntity
  8
Lights
 62
7
100
AcDbSpline
 70
8
 71
3
 72
8
 73
4
 74
0
 40
0
 40
0
 40
0
 40
0
 40
1
 40
1
 40
1
 40
1
 10
0.969114
 20
0.347216
 30
0.0
 10
0.953880
 20
0.310438
 30
0.0
 10
0.962301
 20
0.268103
 30
0.0
 10
0.990450
 20
0.239954
 30
0.0
  0
SPLINE
  5
2d0
100
AcDbEntity
  8
Lights
 62
7
100
AcDbSpline
 70
8
 71
3
 72
8
 73
4
 74
0
 40
0
 40
0
 40
0
 40
0
 40
1
 40
1
 40
1
 40
1
 10
0.990450
 20
0.239954
 30
0.0
 10
1.018600
 20
0.211804
 30
0.0
 10
1.060934
 20
0.203383
 30
0.0
 10
1.097713
 20
0.218618
 30
0.0
  0
SPLINE
  5
2d1
100
AcDbEntity
  8
Lights
 62
7
100
AcDbSpline
 70
8
 71
3
 72
8
 73
4
 74
0
 40
0
 40
0
 40
0
 40
0
 40
1
 40
1
 40
1
 40
1
 10
1.097713
 20
0.218618
 30
0.0
 10
1.134492
 20
0.233852
 30
0.0
 10
1.158473
 20
0.269742
 30
0.0
 10
1.158473
 20
0.309551
 30
0.0
  0
SPLINE
  5
2d2
100
AcDbEntity
  8
Lights
 62
7
100
AcDbSpline
 70
8
 71
3
 72
8
 73
4
 74
0
 40
0
 40
0
 40
0
 40
0
 40
1
 40
1
 40
1
 40
1
 10
1.158473
 20
0.309551
 30
0.0
 10
1.158473
 20
0.335655
 30
0.0
 10
1.148103
 20
0.360690
 30
0.0
 10
1.129645
 20
0.379148
 30
0.0
  0
SPLINE
  5
2d3
100
AcDbEntity
  8
Lights
 62
7
100
AcDbSpline
 70
8
 71
3
 72
8
 73
4
 74
0
 40
0
 40
0
 40
0
 40
0
 40
1
 40
1
 40
1
 40
1
 10
1.129645
 20
0.379148
 30
0.0
 10
1.111186
 20
0.397606
 30
0.0
 10
1.086151
 20
0.407976
 30
0.0
 10
1.060047
 20
0.407976
 30
0.0
  0
LWPOLYLINE
  5
2d4
100
AcDbEntity
  8
Lights
 62
7
100
AcDbPolyline
 90
1
 70
1
 10
1.060047
 20
0.423724
 30
0.0
  0
SPLINE
  5
2d5
100
AcDbEntity
  8
Lights
 62
7
100
AcDbSpline
 70
8
 71
3
 72
8
 73
4
 74
0
 40
0
 40
0
 40
0
 40
0
 40
1
 40
1
 40
1
 40
1
 10
0.697366
 20
0.184354
 30
0.0
 10
0.651188
 20
0.184354
 30
0.0
 10
0.609556
 20
0.156537
 30
0.0
 10
0.591884
 20
0.113873
 30
0.0
  0
SPLINE
  5
2d6
100
AcDbEntity
  8
Lights
 62
7
100
AcDbSpline
 70
8
 71
3
 72
8
 73
4
 74
0
 40
0
 40
0
 40
0
 40
0
 40
1
 40
1
 40
1
 40
1
 10
0.591884
 20
0.113873
 30
0.0
 10
0.574212
 20
0.071209
 30
0.0
 10
0.583980
 20
0.022101
 30
0.0
 10
0.616634
 20
-0.010552
 30
0.0
  0
SPLINE
  5
2d7
100
AcDbEntity
  8
Lights
 62
7
100
AcDbSpline
 70
8
 71
3
 72
8
 73
4
 74
0
 40
0
 40
0
 40
0
 40
0
 40
1
 40
1
 40
1
 40
1
 10
0.616634
 20
-0.010552
 30
0.0
 10
0.649287
 20
-0.043205
 30
0.0
 10
0.698395
 20
-0.052973
 30
0.0
 10
0.741059
 20
-0.035302
 30
0.0
  0
SPLINE
  5
2d8
100
AcDbEntity
  8
Lights
 62
7
100
AcDbSpline
 70
8
 71
3
 72
8
 73
4
 74
0
 40
0
 40
0
 40
0
 40
0
 40
1
 40
1
 40
1
 40
1
 10
0.741059
 20
-0.035302
 30
0.0
 10
0.783722
 20
-0.017630
 30
0.0
 10
0.811540
 20
0.024002
 30
0.0
 10
0.811540
 20
0.070181
 30
0.0
  0
SPLINE
  5
2d9
100
AcDbEntity
  8
Lights
 62
7
100
AcDbSpline
 70
8
 71
3
 72
8
 73
4
 74
0
 40
0
 40
0
 40
0
 40
0
 40
1
 40
1
 40
1
 40
1
 10
0.811540
 20
0.070181
 30
0.0
 10
0.811540
 20
0.100461
 30
0.0
 10
0.799511
 20
0.129502
 30
0.0
 10
0.778099
 20
0.150913
 30
0.0
  0
SPLINE
  5
2da
100
AcDbEntity
  8
Lights
 62
7
100
AcDbSpline
 70
8
 71
3
 72
8
 73
4
 74
0
 40
0
 40
0
 40
0
 40
0
 40
1
 40
1
 40
1
 40
1
 10
0.778099
 20
0.150913
 30
0.0
 10
0.756687
 20
0.172325
 30
0.0
 10
0.727647
 20
0.184354
 30
0.0
 10
0.697366
 20
0.184354
 30
0.0
  0
LWPOLYLINE
  5
2db
100
AcDbEntity
  8
Lights
 62
7
100
AcDbPolyline
 90
1
 70
1
 10
1.060047
 20
0.407976
 30
0.0
  0
SPLINE
  5
2dc
100
AcDbEntity
  8
Lights
 62
7
100
AcDbSpline
 70
8
 71
3
 72
8
 73
4
 74
0
 40
0
 40
0
 40
0
 40
0
 40
1
 40
1
 40
1
 40
1
 10
0.697366
 20
0.168606
 30
0.0
 10
0.657557
 20
0.168606
 30
0.0
 10
0.621668
 20
0.144625
 30
0.0
 10
0.606433
 20
0.107846
 30
0.0
  0
SPLINE
  5
2dd
100
AcDbEntity
  8
Lights
 62
7
100
AcDbSpline
 70
8
 71
3
 72
8
 73
4
 74
0
 40
0
 40
0
 40
0
 40
0
 40
1
 40
1
 40
1
 40
1
 10
0.606433
 20
0.107846
 30
0.0
 10
0.591199
 20
0.071067
 30
0.0
 10
0.599620
 20
0.028733
 30
0.0
 10
0.627769
 20
0.000584
 30
0.0
  0
SPLINE
  5
2de
100
AcDbEntity
  8
Lights
 62
7
100
AcDbSpline
 70
8
 71
3
 72
8
 73
4
 74
0
 40
0
 40
0
 40
0
 40
0
 40
1
 40
1
 40
1
 40
1
 10
0.627769
 20
0.000584
 30
0.0
 10
0.655919
 20
-0.027566
 30
0.0
 10
0.698253
 20
-0.035987
 30
0.0
 10
0.735032
 20
-0.020752
 30
0.0
  0
SPLINE
  5
2df
100
AcDbEntity
  8
Lights
 62
7
100
AcDbSpline
 70
8
 71
3
 72
8
 73
4
 74
0
 40
0
 40
0
 40
0
 40
0
 40
1
 40
1
 40
1
 40
1
 10
0.735032
 20
-0.020752
 30
0.0
 10
0.771811
 20
-0.005518
 30
0.0
 10
0.795792
 20
0.030371
 30
0.0
 10
0.795792
 20
0.070181
 30
0.0
  0
SPLINE
  5
2e0
100
AcDbEntity
  8
Lights
 62
7
100
AcDbSpline
 70
8
 71
3
 72
8
 73
4
 74
0
 40
0
 40
0
 40
0
 40
0
 40
1
 40
1
 40
1
 40
1
 10
0.795792
 20
0.070181
 30
0.0
 10
0.795792
 20
0.096285
 30
0.0
 10
0.785422
 20
0.121320
 30
0.0
 10
0.766963
 20
0.139778
 30
0.0
  0
SPLINE
  5
2e1
100
AcDbEntity
  8
Lights
 62
7
100
AcDbSpline
 70
8
 71
3
 72
8
 73
4
 74
0
 40
0
 40
0
 40
0
 40
0
 40
1
 40
1
 40
1
 40
1
 10
0.766963
 20
0.139778
 30
0.0
 10
0.748505
 20
0.158236
 30
0.0
 10
0.723470
 20
0.168606
 30
0.0
 10
0.697366
 20
0.168606
 30
0.0
  0
LWPOLYLINE
  5
2e2
100
AcDbEntity
  8
Lights
 62
7
100
AcDbPolyline
 90
1
 70
1
 10
0.697366
 20
0.184354
 30
0.0
  0
SPLINE
  5
2e3
100
AcDbEntity
  8
Lights
 62
7
100
AcDbSpline
 70
8
 71
3
 72
8
 73
4
 74
0
 40
0
 40
0
 40
0
 40
0
 40
1
 40
1
 40
1
 40
1
 10
0.204114
 20
0.162582
 30
0.0
 10
0.157936
 20
0.162582
 30
0.0
 10
0.116304
 20
0.134765
 30
0.0
 10
0.098632
 20
0.092101
 30
0.0
  0
SPLINE
  5
2e4
100
AcDbEntity
  8
Lights
 62
7
100
AcDbSpline
 70
8
 71
3
 72
8
 73
4
 74
0
 40
0
 40
0
 40
0
 40
0
 40
1
 40
1
 40
1
 40
1
 10
0.098632
 20
0.092101
 30
0.0
 10
0.080960
 20
0.049438
 30
0.0
 10
0.090728
 20
0.000330
 30
0.0
 10
0.123382
 20
-0.032324
 30
0.0
  0
SPLINE
  5
2e5
100
AcDbEntity
  8
Lights
 62
7
100
AcDbSpline
 70
8
 71
3
 72
8
 73
4
 74
0
 40
0
 40
0
 40
0
 40
0
 40
1
 40
1
 40
1
 40
1
 10
0.123382
 20
-0.032324
 30
0.0
 10
0.156035
 20
-0.064977
 30
0.0
 10
0.205143
 20
-0.074745
 30
0.0
 10
0.247807
 20
-0.057073
 30
0.0
  0
SPLINE
  5
2e6
100
AcDbEntity
  8
Lights
 62
7
100
AcDbSpline
 70
8
 71
3
 72
8
 73
4
 74
0
 40
0
 40
0
 40
0
 40
0
 40
1
 40
1
 40
1
 40
1
 10
0.247807
 20
-0.057073
 30
0.0
 10
0.290470
 20
-0.039401
 30
0.0
 10
0.318288
 20
0.002230
 30
0.0
 10
0.318288
 20
0.048409
 30
0.0
  0
SPLINE
  5
2e7
100
AcDbEntity
  8
Lights
 62
7
100
AcDbSpline
 70
8
 71
3
 72
8
 73
4
 74
0
 40
0
 40
0
 40
0
 40
0
 40
1
 40
1
 40
1
 40
1
 10
0.318288
 20
0.048409
 30
0.0
 10
0.318288
 20
0.078690
 30
0.0
 10
0.306259
 20
0.107730
 30
0.0
 10
0.284847
 20
0.129142
 30
0.0
  0
SPLINE
  5
2e8
100
AcDbEntity
  8
Lights
 62
7
100
AcDbSpline
 70
8
 71
3
 72
8
 73
4
 74
0
 40
0
 40
0
 40
0
 40
0
 40
1
 40
1
 40
1
 40
1
 10
0.284847
 20
0.129142
 30
0.0
 10
0.263435
 20
0.150553
 30
0.0
 10
0.234395
 20
0.162582
 30
0.0
 10
0.204114
 20
0.162582
 30
0.0
  0
LWPOLYLINE
  5
2e9
100
AcDbEntity
  8
Lights
 62
7
100
AcDbPolyline
 90
1
 70
1
 10
0.697366
 20
0.168606
 30
0.0
  0
SPLINE
  5
2ea
100
AcDbEntity
  8
Lights
 62
7
100
AcDbSpline
 70
8
 71
3
 72
8
 73
4
 74
0
 40
0
 40
0
 40
0
 40
0
 40
1
 40
1
 40
1
 40
1
 10
0.204114
 20
0.146834
 30
0.0
 10
0.164305
 20
0.146834
 30
0.0
 10
0.128416
 20
0.122854
 30
0.0
 10
0.113181
 20
0.086075
 30
0.0
  0
SPLINE
  5
2eb
100
AcDbEntity
  8
Lights
 62
7
100
AcDbSpline
 70
8
 71
3
 72
8
 73
4
 74
0
 40
0
 40
0
 40
0
 40
0
 40
1
 40
1
 40
1
 40
1
 10
0.113181
 20
0.086075
 30
0.0
 10
0.097947
 20
0.049296
 30
0.0
 10
0.106368
 20
0.006961
 30
0.0
 10
0.134517
 20
-0.021188
 30
0.0
  0
SPLINE
  5
2ec
100
AcDbEntity
  8
Lights
 62
7
100
AcDbSpline
 70
8
 71
3
 72
8
 73
4
 74
0
 40
0
 40
0
 40
0
 40
0
 40
1
 40
1
 40
1
 40
1
 10
0.134517
 20
-0.021188
 30
0.0
 10
0.162667
 20
-0.049337
 30
0.0
 10
0.205001
 20
-0.057758
 30
0.0
 10
0.241780
 20
-0.042524
 30
0.0
  0
SPLINE
  5
2ed
100
AcDbEntity
  8
Lights
 62
7
100
AcDbSpline
 70
8
 71
3
 72
8
 73
4
 74
0
 40
0
 40
0
 40
0
 40
0
 40
1
 40
1
 40
1
 40
1
 10
0.241780
 20
-0.042524
 30
0.0
 10
0.278559
 20
-0.027290
 30
0.0
 10
0.302540
 20
0.008600
 30
0.0
 10
0.302540
 20
0.048409
 30
0.0
  0
SPLINE
  5
2ee
100
AcDbEntity
  8
Lights
 62
7
100
AcDbSpline
 70
8
 71
3
 72
8
 73
4
 74
0
 40
0
 40
0
 40
0
 40
0
 40
1
 40
1
 40
1
 40
1
 10
0.302540
 20
0.048409
 30
0.0
 10
0.302540
 20
0.074513
 30
0.0
 10
0.292170
 20
0.099548
 30
0.0
 10
0.273711
 20
0.118006
 30
0.0
  0
SPLINE
  5
2ef
100
AcDbEntity
  8
Lights
 62
7
100
AcDbSpline
 70
8
 71
3
 72
8
 73
4
 74
0
 40
0
 40
0
 40
0
 40
0
 40
1
 40
1
 40
1
 40
1
 10
0.273711
 20
0.118006
 30
0.0
 10
0.255253
 20
0.136464
 30
0.0
 10
0.230218
 20
0.146834
 30
0.0
 10
0.204114
 20
0.146834
 30
0.0
  0
LWPOLYLINE
  5
2f0
100
AcDbEntity
  8
Lights
 62
7
100
AcDbPolyline
 90
1
 70
1
 10
0.204114
 20
0.162582
 30
0.0
  0
SPLINE
  5
2f1
100
AcDbEntity
  8
Lights
 62
7
100
AcDbSpline
 70
8
 71
3
 72
8
 73
4
 74
0
 40
0
 40
0
 40
0
 40
0
 40
1
 40
1
 40
1
 40
1
 10
-0.107791
 20
-0.134819
 30
0.0
 10
-0.153970
 20
-0.134819
 30
0.0
 10
-0.195602
 20
-0.162637
 30
0.0
 10
-0.213273
 20
-0.205300
 30
0.0
  0
SPLINE
  5
2f2
100
AcDbEntity
  8
Lights
 62
7
100
AcDbSpline
 70
8
 71
3
 72
8
 73
4
 74
0
 40
0
 40
0
 40
0
 40
0
 40
1
 40
1
 40
1
 40
1
 10
-0.213273
 20
-0.205300
 30
0.0
 10
-0.230945
 20
-0.247964
 30
0.0
 10
-0.221177
 20
-0.297072
 30
0.0
 10
-0.188524
 20
-0.329725
 30
0.0
  0
SPLINE
  5
2f3
100
AcDbEntity
  8
Lights
 62
7
100
AcDbSpline
 70
8
 71
3
 72
8
 73
4
 74
0
 40
0
 40
0
 40
0
 40
0
 40
1
 40
1
 40
1
 40
1
 10
-0.188524
 20
-0.329725
 30
0.0
 10
-0.155870
 20
-0.362379
 30
0.0
 10
-0.106763
 20
-0.372147
 30
0.0
 10
-0.064099
 20
-0.354475
 30
0.0
  0
SPLINE
  5
2f4
100
AcDbEntity
  8
Lights
 62
7
100
AcDbSpline
 70
8
 71
3
 72
8
 73
4
 74
0
 40
0
 40
0
 40
0
 40
0
 40
1
 40
1
 40
1
 40
1
 10
-0.064099
 20
-0.354475
 30
0.0
 10
-0.021435
 20
-0.336803
 30
0.0
 10
0.006382
 20
-0.295171
 30
0.0
 10
0.006382
 20
-0.248993
 30
0.0
  0
SPLINE
  5
2f5
100
AcDbEntity
  8
Lights
 62
7
100
AcDbSpline
 70
8
 71
3
 72
8
 73
4
 74
0
 40
0
 40
0
 40
0
 40
0
 40
1
 40
1
 40
1
 40
1
 10
0.006382
 20
-0.248993
 30
0.0
 10
0.006382
 20
-0.218712
 30
0.0
 10
-0.005647
 20
-0.189671
 30
0.0
 10
-0.027058
 20
-0.168260
 30
0.0
  0
SPLINE
  5
2f6
100
AcDbEntity
  8
Lights
 62
7
100
AcDbSpline
 70
8
 71
3
 72
8
 73
4
 74
0
 40
0
 40
0
 40
0
 40
0
 40
1
 40
1
 40
1
 40
1
 10
-0.027058
 20
-0.168260
 30
0.0
 10
-0.048470
 20
-0.146848
 30
0.0
 10
-0.077511
 20
-0.134819
 30
0.0
 10
-0.107791
 20
-0.134819
 30
0.0
  0
LWPOLYLINE
  5
2f7
100
AcDbEntity
  8
Lights
 62
7
100
AcDbPolyline
 90
1
 70
1
 10
0.204114
 20
0.146834
 30
0.0
  0
SPLINE
  5
2f8
100
AcDbEntity
  8
Lights
 62
7
100
AcDbSpline
 70
8
 71
3
 72
8
 73
4
 74
0
 40
0
 40
0
 40
0
 40
0
 40
1
 40
1
 40
1
 40
1
 10
-0.107791
 20
-0.150567
 30
0.0
 10
-0.147600
 20
-0.150567
 30
0.0
 10
-0.183490
 20
-0.174548
 30
0.0
 10
-0.198724
 20
-0.211327
 30
0.0
  0
SPLINE
  5
2f9
100
AcDbEntity
  8
Lights
 62
7
100
AcDbSpline
 70
8
 71
3
 72
8
 73
4
 74
0
 40
0
 40
0
 40
0
 40
0
 40
1
 40
1
 40
1
 40
1
 10
-0.198724
 20
-0.211327
 30
0.0
 10
-0.213959
 20
-0.248106
 30
0.0
 10
-0.205538
 20
-0.290440
 30
0.0
 10
-0.177388
 20
-0.318590
 30
0.0
  0
SPLINE
  5
2fa
100
AcDbEntity
  8
Lights
 62
7
100
AcDbSpline
 70
8
 71
3
 72
8
 73
4
 74
0
 40
0
 40
0
 40
0
 40
0
 40
1
 40
1
 40
1
 40
1
 10
-0.177388
 20
-0.318590
 30
0.0
 10
-0.149239
 20
-0.346739
 30
0.0
 10
-0.106904
 20
-0.355160
 30
0.0
 10
-0.070125
 20
-0.339926
 30
0.0
  0
SPLINE
  5
2fb
100
AcDbEntity
  8
Lights
 62
7
100
AcDbSpline
 70
8
 71
3
 72
8
 73
4
 74
0
 40
0
 40
0
 40
0
 40
0
 40
1
 40
1
 40
1
 40
1
 10
-0.070125
 20
-0.339926
 30
0.0
 10
-0.033346
 20
-0.324691
 30
0.0
 10
-0.009366
 20
-0.288802
 30
0.0
 10
-0.009366
 20
-0.248993
 30
0.0
  0
SPLINE
  5
2fc
100
AcDbEntity
  8
Lights
 62
7
100
AcDbSpline
 70
8
 71
3
 72
8
 73
4
 74
0
 40
0
 40
0
 40
0
 40
0
 40
1
 40
1
 40
1
 40
1
 10
-0.009366
 20
-0.248993
 30
0.0
 10
-0.009366
 20
-0.222889
 30
0.0
 10
-0.019736
 20
-0.197854
 30
0.0
 10
-0.038194
 20
-0.179395
 30
0.0
  0
SPLINE
  5
2fd
100
AcDbEntity
  8
Lights
 62
7
100
AcDbSpline
 70
8
 71
3
 72
8
 73
4
 74
0
 40
0
 40
0
 40
0
 40
0
 40
1
 40
1
 40
1
 40
1
 10
-0.038194
 20
-0.179395
 30
0.0
 10
-0.056652
 20
-0.160937
 30
0.0
 10
-0.081687
 20
-0.150567
 30
0.0
 10
-0.107791
 20
-0.150567
 30
0.0
  0
LWPOLYLINE
  5
2fe
100
AcDbEntity
  8
Lights
 62
7
100
AcDbPolyline
 90
1
 70
1
 10
-0.107791
 20
-0.134819
 30
0.0
  0
SPLINE
  5
2ff
100
AcDbEntity
  8
Lights
 62
7
100
AcDbSpline
 70
8
 71
3
 72
8
 73
4
 74
0
 40
0
 40
0
 40
0
 40
0
 40
1
 40
1
 40
1
 40
1
 10
-0.535760
 20
-0.294426
 30
0.0
 10
-0.581938
 20
-0.294426
 30
0.0
 10
-0.623570
 20
-0.322243
 30
0.0
 10
-0.641242
 20
-0.364907
 30
0.0
  0
SPLINE
  5
300
100
AcDbEntity
  8
Lights
 62
7
100
AcDbSpline
 70
8
 71
3
 72
8
 73
4
 74
0
 40
0
 40
0
 40
0
 40
0
 40
1
 40
1
 40
1
 40
1
 10
-0.641242
 20
-0.364907
 30
0.0
 10
-0.658914
 20
-0.407570
 30
0.0
 10
-0.649146
 20
-0.456678
 30
0.0
 10
-0.616492
 20
-0.489331
 30
0.0
  0
SPLINE
  5
301
100
AcDbEntity
  8
Lights
 62
7
100
AcDbSpline
 70
8
 71
3
 72
8
 73
4
 74
0
 40
0
 40
0
 40
0
 40
0
 40
1
 40
1
 40
1
 40
1
 10
-0.616492
 20
-0.489331
 30
0.0
 10
-0.583839
 20
-0.521985
 30
0.0
 10
-0.534731
 20
-0.531753
 30
0.0
 10
-0.492067
 20
-0.514081
 30
0.0
  0
SPLINE
  5
302
100
AcDbEntity
  8
Lights
 62
7
100
AcDbSpline
 70
8
 71
3
 72
8
 73
4
 74
0
 40
0
 40
0
 40
0
 40
0
 40
1
 40
1
 40
1
 40
1
 10
-0.492067
 20
-0.514081
 30
0.0
 10
-0.449404
 20
-0.496409
 30
0.0
 10
-0.421586
 20
-0.454778
 30
0.0
 10
-0.421586
 20
-0.408599
 30
0.0
  0
SPLINE
  5
303
100
AcDbEntity
  8
Lights
 62
7
100
AcDbSpline
 70
8
 71
3
 72
8
 73
4
 74
0
 40
0
 40
0
 40
0
 40
0
 40
1
 40
1
 40
1
 40
1
 10
-0.421586
 20
-0.408599
 30
0.0
 10
-0.421586
 20
-0.378318
 30
0.0
 10
-0.433615
 20
-0.349278
 30
0.0
 10
-0.455027
 20
-0.327866
 30
0.0
  0
SPLINE
  5
304
100
AcDbEntity
  8
Lights
 62
7
100
AcDbSpline
 70
8
 71
3
 72
8
 73
4
 74
0
 40
0
 40
0
 40
0
 40
0
 40
1
 40
1
 40
1
 40
1
 10
-0.455027
 20
-0.327866
 30
0.0
 10
-0.476439
 20
-0.306455
 30
0.0
 10
-0.505479
 20
-0.294426
 30
0.0
 10
-0.535760
 20
-0.294426
 30
0.0
  0
LWPOLYLINE
  5
305
100
AcDbEntity
  8
Lights
 62
7
100
AcDbPolyline
 90
1
 70
1
 10
-0.107791
 20
-0.150567
 30
0.0
  0
SPLINE
  5
306
100
AcDbEntity
  8
Lights
 62
7
100
AcDbSpline
 70
8
 71
3
 72
8
 73
4
 74
0
 40
0
 40
0
 40
0
 40
0
 40
1
 40
1
 40
1
 40
1
 10
-0.535760
 20
-0.310174
 30
0.0
 10
-0.575569
 20
-0.310174
 30
0.0
 10
-0.611458
 20
-0.334154
 30
0.0
 10
-0.626693
 20
-0.370933
 30
0.0
  0
SPLINE
  5
307
100
AcDbEntity
  8
Lights
 62
7
100
AcDbSpline
 70
8
 71
3
 72
8
 73
4
 74
0
 40
0
 40
0
 40
0
 40
0
 40
1
 40
1
 40
1
 40
1
 10
-0.626693
 20
-0.370933
 30
0.0
 10
-0.641927
 20
-0.407712
 30
0.0
 10
-0.633506
 20
-0.450047
 30
0.0
 10
-0.605357
 20
-0.478196
 30
0.0
  0
SPLINE
  5
308
100
AcDbEntity
  8
Lights
 62
7
100
AcDbSpline
 70
8
 71
3
 72
8
 73
4
 74
0
 40
0
 40
0
 40
0
 40
0
 40
1
 40
1
 40
1
 40
1
 10
-0.605357
 20
-0.478196
 30
0.0
 10
-0.577207
 20
-0.506345
 30
0.0
 10
-0.534873
 20
-0.514766
 30
0.0
 10
-0.498094
 20
-0.499532
 30
0.0
  0
SPLINE
  5
309
100
AcDbEntity
  8
Lights
 62
7
100
AcDbSpline
 70
8
 71
3
 72
8
 73
4
 74
0
 40
0
 40
0
 40
0
 40
0
 40
1
 40
1
 40
1
 40
1
 10
-0.498094
 20
-0.499532
 30
0.0
 10
-0.461315
 20
-0.484297
 30
0.0
 10
-0.437334
 20
-0.448408
 30
0.0
 10
-0.437334
 20
-0.408599
 30
0.0
  0
SPLINE
  5
30a
100
AcDbEntity
  8
Lights
 62
7
100
AcDbSpline
 70
8
 71
3
 72
8
 73
4
 74
0
 40
0
 40
0
 40
0
 40
0
 40
1
 40
1
 40
1
 40
1
 10
-0.437334
 20
-0.408599
 30
0.0
 10
-0.437334
 20
-0.382495
 30
0.0
 10
-0.447704
 20
-0.357460
 30
0.0
 10
-0.466163
 20
-0.339002
 30
0.0
  0
SPLINE
  5
30b
100
AcDbEntity
  8
Lights
 62
7
100
AcDbSpline
 70
8
 71
3
 72
8
 73
4
 74
0
 40
0
 40
0
 40
0
 40
0
 40
1
 40
1
 40
1
 40
1
 10
-0.466163
 20
-0.339002
 30
0.0
 10
-0.484621
 20
-0.320543
 30
0.0
 10
-0.509656
 20
-0.310174
 30
0.0
 10
-0.535760
 20
-0.310174
 30
0.0
  0
LWPOLYLINE
  5
30c
100
AcDbEntity
  8
Lights
 62
7
100
AcDbPolyline
 90
1
 70
1
 10
-0.535760
 20
-0.294426
 30
0.0
  0
SPLINE
  5
30d
100
AcDbEntity
  8
Lights
 62
7
100
AcDbSpline
 70
8
 71
3
 72
8
 73
4
 74
0
 40
0
 40
0
 40
0
 40
0
 40
1
 40
1
 40
1
 40
1
 10
-0.543012
 20
0.126322
 30
0.0
 10
-0.589190
 20
0.126322
 30
0.0
 10
-0.630822
 20
0.098505
 30
0.0
 10
-0.648494
 20
0.055841
 30
0.0
  0
SPLINE
  5
30e
100
AcDbEntity
  8
Lights
 62
7
100
AcDbSpline
 70
8
 71
3
 72
8
 73
4
 74
0
 40
0
 40
0
 40
0
 40
0
 40
1
 40
1
 40
1
 40
1
 10
-0.648494
 20
0.055841
 30
0.0
 10
-0.666166
 20
0.013178
 30
0.0
 10
-0.656398
 20
-0.035930
 30
0.0
 10
-0.623744
 20
-0.068583
 30
0.0
  0
SPLINE
  5
30f
100
AcDbEntity
  8
Lights
 62
7
100
AcDbSpline
 70
8
 71
3
 72
8
 73
4
 74
0
 40
0
 40
0
 40
0
 40
0
 40
1
 40
1
 40
1
 40
1
 10
-0.623744
 20
-0.068583
 30
0.0
 10
-0.591091
 20
-0.101237
 30
0.0
 10
-0.541983
 20
-0.111005
 30
0.0
 10
-0.499319
 20
-0.093333
 30
0.0
  0
SPLINE
  5
310
100
AcDbEntity
  8
Lights
 62
7
100
AcDbSpline
 70
8
 71
3
 72
8
 73
4
 74
0
 40
0
 40
0
 40
0
 40
0
 40
1
 40
1
 40
1
 40
1
 10
-0.499319
 20
-0.093333
 30
0.0
 10
-0.456656
 20
-0.075661
 30
0.0
 10
-0.428838
 20
-0.034030
 30
0.0
 10
-0.428838
 20
0.012149
 30
0.0
  0
SPLINE
  5
311
100
AcDbEntity
  8
Lights
 62
7
100
AcDbSpline
 70
8
 71
3
 72
8
 73
4
 74
0
 40
0
 40
0
 40
0
 40
0
 40
1
 40
1
 40
1
 40
1
 10
-0.428838
 20
0.012149
 30
0.0
 10
-0.428838
 20
0.042430
 30
0.0
 10
-0.440867
 20
0.071470
 30
0.0
 10
-0.462279
 20
0.092882
 30
0.0
  0
SPLINE
  5
312
100
AcDbEntity
  8
Lights
 62
7
100
AcDbSpline
 70
8
 71
3
 72
8
 73
4
 74
0
 40
0
 40
0
 40
0
 40
0
 40
1
 40
1
 40
1
 40
1
 10
-0.462279
 20
0.092882
 30
0.0
 10
-0.483691
 20
0.114294
 30
0.0
 10
-0.512731
 20
0.126322
 30
0.0
 10
-0.543012
 20
0.126322
 30
0.0
  0
LWPOLYLINE
  5
313
100
AcDbEntity
  8
Lights
 62
7
100
AcDbPolyline
 90
1
 70
1
 10
-0.535760
 20
-0.310174
 30
0.0
  0
SPLINE
  5
314
100
AcDbEntity
  8
Lights
 62
7
100
AcDbSpline
 70
8
 71
3
 72
8
 73
4
 74
0
 40
0
 40
0
 40
0
 40
0
 40
1
 40
1
 40
1
 40
1
 10
-0.543012
 20
0.110574
 30
0.0
 10
-0.582821
 20
0.110574
 30
0.0
 10
-0.618710
 20
0.086594
 30
0.0
 10
-0.633945
 20
0.049815
 30
0.0
  0
SPLINE
  5
315
100
AcDbEntity
  8
Lights
 62
7
100
AcDbSpline
 70
8
 71
3
 72
8
 73
4
 74
0
 40
0
 40
0
 40
0
 40
0
 40
1
 40
1
 40
1
 40
1
 10
-0.633945
 20
0.049815
 30
0.0
 10
-0.649179
 20
0.013036
 30
0.0
 10
-0.640758
 20
-0.029299
 30
0.0
 10
-0.612609
 20
-0.057448
 30
0.0
  0
SPLINE
  5
316
100
AcDbEntity
  8
Lights
 62
7
100
AcDbSpline
 70
8
 71
3
 72
8
 73
4
 74
0
 40
0
 40
0
 40
0
 40
0
 40
1
 40
1
 40
1
 40
1
 10
-0.612609
 20
-0.057448
 30
0.0
 10
-0.584459
 20
-0.085597
 30
0.0
 10
-0.542125
 20
-0.094018
 30
0.0
 10
-0.505346
 20
-0.078784
 30
0.0
  0
SPLINE
  5
317
100
AcDbEntity
  8
Lights
 62
7
100
AcDbSpline
 70
8
 71
3
 72
8
 73
4
 74
0
 40
0
 40
0
 40
0
 40
0
 40
1
 40
1
 40
1
 40
1
 10
-0.505346
 20
-0.078784
 30
0.0
 10
-0.468567
 20
-0.063549
 30
0.0
 10
-0.444586
 20
-0.027660
 30
0.0
 10
-0.444586
 20
0.012149
 30
0.0
  0
SPLINE
  5
318
100
AcDbEntity
  8
Lights
 62
7
100
AcDbSpline
 70
8
 71
3
 72
8
 73
4
 74
0
 40
0
 40
0
 40
0
 40
0
 40
1
 40
1
 40
1
 40
1
 10
-0.444586
 20
0.012149
 30
0.0
 10
-0.444586
 20
0.038253
 30
0.0
 10
-0.454956
 20
0.063288
 30
0.0
 10
-0.473414
 20
0.081746
 30
0.0
  0
SPLINE
  5
319
100
AcDbEntity
  8
Lights
 62
7
100
AcDbSpline
 70
8
 71
3
 72
8
 73
4
 74
0
 40
0
 40
0
 40
0
 40
0
 40
1
 40
1
 40
1
 40
1
 10
-0.473414
 20
0.081746
 30
0.0
 10
-0.491873
 20
0.100205
 30
0.0
 10
-0.516908
 20
0.110574
 30
0.0
 10
-0.543012
 20
0.110574
 30
0.0
  0
LWPOLYLINE
  5
31a
100
AcDbEntity
  8
Lights
 62
7
100
AcDbPolyline
 90
1
 70
1
 10
-0.543012
 20
0.126322
 30
0.0
  0
SPLINE
  5
31b
100
AcDbEntity
  8
Lights
 62
7
100
AcDbSpline
 70
8
 71
3
 72
8
 73
4
 74
0
 40
0
 40
0
 40
0
 40
0
 40
1
 40
1
 40
1
 40
1
 10
-0.448716
 20
0.568763
 30
0.0
 10
-0.494895
 20
0.568763
 30
0.0
 10
-0.536527
 20
0.540946
 30
0.0
 10
-0.554199
 20
0.498282
 30
0.0
  0
SPLINE
  5
31c
100
AcDbEntity
  8
Lights
 62
7
100
AcDbSpline
 70
8
 71
3
 72
8
 73
4
 74
0
 40
0
 40
0
 40
0
 40
0
 40
1
 40
1
 40
1
 40
1
 10
-0.554199
 20
0.498282
 30
0.0
 10
-0.571870
 20
0.455619
 30
0.0
 10
-0.562102
 20
0.406511
 30
0.0
 10
-0.529449
 20
0.373857
 30
0.0
  0
SPLINE
  5
31d
100
AcDbEntity
  8
Lights
 62
7
100
AcDbSpline
 70
8
 71
3
 72
8
 73
4
 74
0
 40
0
 40
0
 40
0
 40
0
 40
1
 40
1
 40
1
 40
1
 10
-0.529449
 20
0.373857
 30
0.0
 10
-0.496796
 20
0.341204
 30
0.0
 10
-0.447688
 20
0.331436
 30
0.0
 10
-0.405024
 20
0.349108
 30
0.0
  0
SPLINE
  5
31e
100
AcDbEntity
  8
Lights
 62
7
100
AcDbSpline
 70
8
 71
3
 72
8
 73
4
 74
0
 40
0
 40
0
 40
0
 40
0
 40
1
 40
1
 40
1
 40
1
 10
-0.405024
 20
0.349108
 30
0.0
 10
-0.362361
 20
0.366780
 30
0.0
 10
-0.334543
 20
0.408411
 30
0.0
 10
-0.334543
 20
0.454590
 30
0.0
  0
SPLINE
  5
31f
100
AcDbEntity
  8
Lights
 62
7
100
AcDbSpline
 70
8
 71
3
 72
8
 73
4
 74
0
 40
0
 40
0
 40
0
 40
0
 40
1
 40
1
 40
1
 40
1
 10
-0.334543
 20
0.454590
 30
0.0
 10
-0.334543
 20
0.484871
 30
0.0
 10
-0.346572
 20
0.513911
 30
0.0
 10
-0.367984
 20
0.535323
 30
0.0
  0
SPLINE
  5
320
100
AcDbEntity
  8
Lights
 62
7
100
AcDbSpline
 70
8
 71
3
 72
8
 73
4
 74
0
 40
0
 40
0
 40
0
 40
0
 40
1
 40
1
 40
1
 40
1
 10
-0.367984
 20
0.535323
 30
0.0
 10
-0.389395
 20
0.556734
 30
0.0
 10
-0.418436
 20
0.568763
 30
0.0
 10
-0.448716
 20
0.568763
 30
0.0
  0
LWPOLYLINE
  5
321
100
AcDbEntity
  8
Lights
 62
7
100
AcDbPolyline
 90
1
 70
1
 10
-0.543012
 20
0.110574
 30
0.0
  0
SPLINE
  5
322
100
AcDbEntity
  8
Lights
 62
7
100
AcDbSpline
 70
8
 71
3
 72
8
 73
4
 74
0
 40
0
 40
0
 40
0
 40
0
 40
1
 40
1
 40
1
 40
1
 10
-0.448716
 20
0.553015
 30
0.0
 10
-0.488526
 20
0.553015
 30
0.0
 10
-0.524415
 20
0.529035
 30
0.0
 10
-0.539649
 20
0.492256
 30
0.0
  0
SPLINE
  5
323
100
AcDbEntity
  8
Lights
 62
7
100
AcDbSpline
 70
8
 71
3
 72
8
 73
4
 74
0
 40
0
 40
0
 40
0
 40
0
 40
1
 40
1
 40
1
 40
1
 10
-0.539649
 20
0.492256
 30
0.0
 10
-0.554884
 20
0.455477
 30
0.0
 10
-0.546463
 20
0.413142
 30
0.0
 10
-0.518313
 20
0.384993
 30
0.0
  0
SPLINE
  5
324
100
AcDbEntity
  8
Lights
 62
7
100
AcDbSpline
 70
8
 71
3
 72
8
 73
4
 74
0
 40
0
 40
0
 40
0
 40
0
 40
1
 40
1
 40
1
 40
1
 10
-0.518313
 20
0.384993
 30
0.0
 10
-0.490164
 20
0.356844
 30
0.0
 10
-0.447830
 20
0.348423
 30
0.0
 10
-0.411051
 20
0.363657
 30
0.0
  0
SPLINE
  5
325
100
AcDbEntity
  8
Lights
 62
7
100
AcDbSpline
 70
8
 71
3
 72
8
 73
4
 74
0
 40
0
 40
0
 40
0
 40
0
 40
1
 40
1
 40
1
 40
1
 10
-0.411051
 20
0.363657
 30
0.0
 10
-0.374272
 20
0.378891
 30
0.0
 10
-0.350291
 20
0.414781
 30
0.0
 10
-0.350291
 20
0.454590
 30
0.0
  0
SPLINE
  5
326
100
AcDbEntity
  8
Lights
 62
7
100
AcDbSpline
 70
8
 71
3
 72
8
 73
4
 74
0
 40
0
 40
0
 40
0
 40
0
 40
1
 40
1
 40
1
 40
1
 10
-0.350291
 20
0.454590
 30
0.0
 10
-0.350291
 20
0.480694
 30
0.0
 10
-0.360661
 20
0.505729
 30
0.0
 10
-0.379119
 20
0.524187
 30
0.0
  0
SPLINE
  5
327
100
AcDbEntity
  8
Lights
 62
7
100
AcDbSpline
 70
8
 71
3
 72
8
 73
4
 74
0
 40
0
 40
0
 40
0
 40
0
 40
1
 40
1
 40
1
 40
1
 10
-0.379119
 20
0.524187
 30
0.0
 10
-0.397578
 20
0.542646
 30
0.0
 10
-0.422612
 20
0.553015
 30
0.0
 10
-0.448716
 20
0.553015
 30
0.0
  0
LWPOLYLINE
  5
328
100
AcDbEntity
  8
Lights
 62
7
100
AcDbPolyline
 90
1
 70
1
 10
-0.448716
 20
0.568763
 30
0.0
  0
SPLINE
  5
329
100
AcDbEntity
  8
Lights
 62
7
100
AcDbSpline
 70
8
 71
3
 72
8
 73
4
 74
0
 40
0
 40
0
 40
0
 40
0
 40
1
 40
1
 40
1
 40
1
 10
-0.775130
 20
0.895181
 30
0.0
 10
-0.821308
 20
0.895181
 30
0.0
 10
-0.862940
 20
0.867363
 30
0.0
 10
-0.880612
 20
0.824700
 30
0.0
  0
SPLINE
  5
32a
100
AcDbEntity
  8
Lights
 62
7
100
AcDbSpline
 70
8
 71
3
 72
8
 73
4
 74
0
 40
0
 40
0
 40
0
 40
0
 40
1
 40
1
 40
1
 40
1
 10
-0.880612
 20
0.824700
 30
0.0
 10
-0.898284
 20
0.782036
 30
0.0
 10
-0.888516
 20
0.732928
 30
0.0
 10
-0.855862
 20
0.700275
 30
0.0
  0
SPLINE
  5
32b
100
AcDbEntity
  8
Lights
 62
7
100
AcDbSpline
 70
8
 71
3
 72
8
 73
4
 74
0
 40
0
 40
0
 40
0
 40
0
 40
1
 40
1
 40
1
 40
1
 10
-0.855862
 20
0.700275
 30
0.0
 10
-0.823209
 20
0.667621
 30
0.0
 10
-0.774101
 20
0.657853
 30
0.0
 10
-0.731438
 20
0.675525
 30
0.0
  0
SPLINE
  5
32c
100
AcDbEntity
  8
Lights
 62
7
100
AcDbSpline
 70
8
 71
3
 72
8
 73
4
 74
0
 40
0
 40
0
 40
0
 40
0
 40
1
 40
1
 40
1
 40
1
 10
-0.731438
 20
0.675525
 30
0.0
 10
-0.688774
 20
0.693197
 30
0.0
 10
-0.660956
 20
0.734829
 30
0.0
 10
-0.660956
 20
0.781007
 30
0.0
  0
SPLINE
  5
32d
100
AcDbEntity
  8
Lights
 62
7
100
AcDbSpline
 70
8
 71
3
 72
8
 73
4
 74
0
 40
0
 40
0
 40
0
 40
0
 40
1
 40
1
 40
1
 40
1
 10
-0.660956
 20
0.781007
 30
0.0
 10
-0.660956
 20
0.811288
 30
0.0
 10
-0.672985
 20
0.840329
 30
0.0
 10
-0.694397
 20
0.861740
 30
0.0
  0
SPLINE
  5
32e
100
AcDbEntity
  8
Lights
 62
7
100
AcDbSpline
 70
8
 71
3
 72
8
 73
4
 74
0
 40
0
 40
0
 40
0
 40
0
 40
1
 40
1
 40
1
 40
1
 10
-0.694397
 20
0.861740
 30
0.0
 10
-0.715809
 20
0.883152
 30
0.0
 10
-0.744849
 20
0.895181
 30
0.0
 10
-0.775130
 20
0.895181
 30
0.0
  0
LWPOLYLINE
  5
32f
100
AcDbEntity
  8
Lights
 62
7
100
AcDbPolyline
 90
1
 70
1
 10
-0.448716
 20
0.553015
 30
0.0
  0
SPLINE
  5
330
100
AcDbEntity
  8
Lights
 62
7
100
AcDbSpline
 70
8
 71
3
 72
8
 73
4
 74
0
 40
0
 40
0
 40
0
 40
0
 40
1
 40
1
 40
1
 40
1
 10
-0.775130
 20
0.879433
 30
0.0
 10
-0.814939
 20
0.879433
 30
0.0
 10
-0.850828
 20
0.855452
 30
0.0
 10
-0.866063
 20
0.818673
 30
0.0
  0
SPLINE
  5
331
100
AcDbEntity
  8
Lights
 62
7
100
AcDbSpline
 70
8
 71
3
 72
8
 73
4
 74
0
 40
0
 40
0
 40
0
 40
0
 40
1
 40
1
 40
1
 40
1
 10
-0.866063
 20
0.818673
 30
0.0
 10
-0.881297
 20
0.781894
 30
0.0
 10
-0.872876
 20
0.739560
 30
0.0
 10
-0.844727
 20
0.711410
 30
0.0
  0
SPLINE
  5
332
100
AcDbEntity
  8
Lights
 62
7
100
AcDbSpline
 70
8
 71
3
 72
8
 73
4
 74
0
 40
0
 40
0
 40
0
 40
0
 40
1
 40
1
 40
1
 40
1
 10
-0.844727
 20
0.711410
 30
0.0
 10
-0.816577
 20
0.683261
 30
0.0
 10
-0.774243
 20
0.674840
 30
0.0
 10
-0.737464
 20
0.690074
 30
0.0
  0
SPLINE
  5
333
100
AcDbEntity
  8
Lights
 62
7
100
AcDbSpline
 70
8
 71
3
 72
8
 73
4
 74
0
 40
0
 40
0
 40
0
 40
0
 40
1
 40
1
 40
1
 40
1
 10
-0.737464
 20
0.690074
 30
0.0
 10
-0.700685
 20
0.705309
 30
0.0
 10
-0.676705
 20
0.741198
 30
0.0
 10
-0.676705
 20
0.781007
 30
0.0
  0
SPLINE
  5
334
100
AcDbEntity
  8
Lights
 62
7
100
AcDbSpline
 70
8
 71
3
 72
8
 73
4
 74
0
 40
0
 40
0
 40
0
 40
0
 40
1
 40
1
 40
1
 40
1
 10
-0.676705
 20
0.781007
 30
0.0
 10
-0.676705
 20
0.807111
 30
0.0
 10
-0.687074
 20
0.832146
 30
0.0
 10
-0.705533
 20
0.850605
 30
0.0
  0
SPLINE
  5
335
100
AcDbEntity
  8
Lights
 62
7
100
AcDbSpline
 70
8
 71
3
 72
8
 73
4
 74
0
 40
0
 40
0
 40
0
 40
0
 40
1
 40
1
 40
1
 40
1
 10
-0.705533
 20
0.850605
 30
0.0
 10
-0.723991
 20
0.869063
 30
0.0
 10
-0.749026
 20
0.879433
 30
0.0
 10
-0.775130
 20
0.879433
 30
0.0
  0
LWPOLYLINE
  5
336
100
AcDbEntity
  8
Lights
 62
7
100
AcDbPolyline
 90
1
 70
1
 10
-0.775130
 20
0.895181
 30
0.0
  0
SPLINE
  5
337
100
AcDbEntity
  8
Lights
 62
7
100
AcDbSpline
 70
8
 71
3
 72
8
 73
4
 74
0
 40
0
 40
0
 40
0
 40
0
 40
1
 40
1
 40
1
 40
1
 10
-0.912949
 20
0.496244
 30
0.0
 10
-0.959127
 20
0.496244
 30
0.0
 10
-1.000759
 20
0.468426
 30
0.0
 10
-1.018431
 20
0.425763
 30
0.0
  0
SPLINE
  5
338
100
AcDbEntity
  8
Lights
 62
7
100
AcDbSpline
 70
8
 71
3
 72
8
 73
4
 74
0
 40
0
 40
0
 40
0
 40
0
 40
1
 40
1
 40
1
 40
1
 10
-1.018431
 20
0.425763
 30
0.0
 10
-1.036103
 20
0.383099
 30
0.0
 10
-1.026335
 20
0.333991
 30
0.0
 10
-0.993681
 20
0.301338
 30
0.0
  0
SPLINE
  5
339
100
AcDbEntity
  8
Lights
 62
7
100
AcDbSpline
 70
8
 71
3
 72
8
 73
4
 74
0
 40
0
 40
0
 40
0
 40
0
 40
1
 40
1
 40
1
 40
1
 10
-0.993681
 20
0.301338
 30
0.0
 10
-0.961028
 20
0.268684
 30
0.0
 10
-0.911920
 20
0.258916
 30
0.0
 10
-0.869256
 20
0.276588
 30
0.0
  0
SPLINE
  5
33a
100
AcDbEntity
  8
Lights
 62
7
100
AcDbSpline
 70
8
 71
3
 72
8
 73
4
 74
0
 40
0
 40
0
 40
0
 40
0
 40
1
 40
1
 40
1
 40
1
 10
-0.869256
 20
0.276588
 30
0.0
 10
-0.826593
 20
0.294260
 30
0.0
 10
-0.798775
 20
0.335892
 30
0.0
 10
-0.798775
 20
0.382070
 30
0.0
  0
SPLINE
  5
33b
100
AcDbEntity
  8
Lights
 62
7
100
AcDbSpline
 70
8
 71
3
 72
8
 73
4
 74
0
 40
0
 40
0
 40
0
 40
0
 40
1
 40
1
 40
1
 40
1
 10
-0.798775
 20
0.382070
 30
0.0
 10
-0.798775
 20
0.412351
 30
0.0
 10
-0.810804
 20
0.441392
 30
0.0
 10
-0.832216
 20
0.462803
 30
0.0
  0
SPLINE
  5
33c
100
AcDbEntity
  8
Lights
 62
7
100
AcDbSpline
 70
8
 71
3
 72
8
 73
4
 74
0
 40
0
 40
0
 40
0
 40
0
 40
1
 40
1
 40
1
 40
1
 10
-0.832216
 20
0.462803
 30
0.0
 10
-0.853628
 20
0.484215
 30
0.0
 10
-0.882668
 20
0.496244
 30
0.0
 10
-0.912949
 20
0.496244
 30
0.0
  0
LWPOLYLINE
  5
33d
100
AcDbEntity
  8
Lights
 62
7
100
AcDbPolyline
 90
1
 70
1
 10
-0.775130
 20
0.879433
 30
0.0
  0
SPLINE
  5
33e
100
AcDbEntity
  8
Lights
 62
7
100
AcDbSpline
 70
8
 71
3
 72
8
 73
4
 74
0
 40
0
 40
0
 40
0
 40
0
 40
1
 40
1
 40
1
 40
1
 10
-0.912949
 20
0.480496
 30
0.0
 10
-0.952758
 20
0.480496
 30
0.0
 10
-0.988647
 20
0.456515
 30
0.0
 10
-1.003882
 20
0.419736
 30
0.0
  0
SPLINE
  5
33f
100
AcDbEntity
  8
Lights
 62
7
100
AcDbSpline
 70
8
 71
3
 72
8
 73
4
 74
0
 40
0
 40
0
 40
0
 40
0
 40
1
 40
1
 40
1
 40
1
 10
-1.003882
 20
0.419736
 30
0.0
 10
-1.019116
 20
0.382957
 30
0.0
 10
-1.010695
 20
0.340623
 30
0.0
 10
-0.982546
 20
0.312473
 30
0.0
  0
SPLINE
  5
340
100
AcDbEntity
  8
Lights
 62
7
100
AcDbSpline
 70
8
 71
3
 72
8
 73
4
 74
0
 40
0
 40
0
 40
0
 40
0
 40
1
 40
1
 40
1
 40
1
 10
-0.982546
 20
0.312473
 30
0.0
 10
-0.954396
 20
0.284324
 30
0.0
 10
-0.912062
 20
0.275903
 30
0.0
 10
-0.875283
 20
0.291137
 30
0.0
  0
SPLINE
  5
341
100
AcDbEntity
  8
Lights
 62
7
100
AcDbSpline
 70
8
 71
3
 72
8
 73
4
 74
0
 40
0
 40
0
 40
0
 40
0
 40
1
 40
1
 40
1
 40
1
 10
-0.875283
 20
0.291137
 30
0.0
 10
-0.838504
 20
0.306372
 30
0.0
 10
-0.814523
 20
0.342261
 30
0.0
 10
-0.814523
 20
0.382070
 30
0.0
  0
SPLINE
  5
342
100
AcDbEntity
  8
Lights
 62
7
100
AcDbSpline
 70
8
 71
3
 72
8
 73
4
 74
0
 40
0
 40
0
 40
0
 40
0
 40
1
 40
1
 40
1
 40
1
 10
-0.814523
 20
0.382070
 30
0.0
 10
-0.814523
 20
0.408174
 30
0.0
 10
-0.824893
 20
0.433209
 30
0.0
 10
-0.843351
 20
0.451668
 30
0.0
  0
SPLINE
  5
343
100
AcDbEntity
  8
Lights
 62
7
100
AcDbSpline
 70
8
 71
3
 72
8
 73
4
 74
0
 40
0
 40
0
 40
0
 40
0
 40
1
 40
1
 40
1
 40
1
 10
-0.843351
 20
0.451668
 30
0.0
 10
-0.861810
 20
0.470126
 30
0.0
 10
-0.886845
 20
0.480496
 30
0.0
 10
-0.912949
 20
0.480496
 30
0.0
  0
LWPOLYLINE
  5
344
100
AcDbEntity
  8
Lights
 62
7
100
AcDbPolyline
 90
1
 70
1
 10
-0.912949
 20
0.496244
 30
0.0
  0
SPLINE
  5
345
100
AcDbEntity
  8
Lights
 62
7
100
AcDbSpline
 70
8
 71
3
 72
8
 73
4
 74
0
 40
0
 40
0
 40
0
 40
0
 40
1
 40
1
 40
1
 40
1
 10
-1.108795
 20
0.133567
 30
0.0
 10
-1.154974
 20
0.133567
 30
0.0
 10
-1.196606
 20
0.105749
 30
0.0
 10
-1.214277
 20
0.063086
 30
0.0
  0
SPLINE
  5
346
100
AcDbEntity
  8
Lights
 62
7
100
AcDbSpline
 70
8
 71
3
 72
8
 73
4
 74
0
 40
0
 40
0
 40
0
 40
0
 40
1
 40
1
 40
1
 40
1
 10
-1.214277
 20
0.063086
 30
0.0
 10
-1.231949
 20
0.020422
 30
0.0
 10
-1.222181
 20
-0.028686
 30
0.0
 10
-1.189528
 20
-0.061339
 30
0.0
  0
SPLINE
  5
347
100
AcDbEntity
  8
Lights
 62
7
100
AcDbSpline
 70
8
 71
3
 72
8
 73
4
 74
0
 40
0
 40
0
 40
0
 40
0
 40
1
 40
1
 40
1
 40
1
 10
-1.189528
 20
-0.061339
 30
0.0
 10
-1.156874
 20
-0.093993
 30
0.0
 10
-1.107766
 20
-0.103761
 30
0.0
 10
-1.065103
 20
-0.086089
 30
0.0
  0
SPLINE
  5
348
100
AcDbEntity
  8
Lights
 62
7
100
AcDbSpline
 70
8
 71
3
 72
8
 73
4
 74
0
 40
0
 40
0
 40
0
 40
0
 40
1
 40
1
 40
1
 40
1
 10
-1.065103
 20
-0.086089
 30
0.0
 10
-1.022439
 20
-0.068417
 30
0.0
 10
-0.994622
 20
-0.026785
 30
0.0
 10
-0.994622
 20
0.019393
 30
0.0
  0
SPLINE
  5
349
100
AcDbEntity
  8
Lights
 62
7
100
AcDbSpline
 70
8
 71
3
 72
8
 73
4
 74
0
 40
0
 40
0
 40
0
 40
0
 40
1
 40
1
 40
1
 40
1
 10
-0.994622
 20
0.019393
 30
0.0
 10
-0.994622
 20
0.049674
 30
0.0
 10
-1.006651
 20
0.078714
 30
0.0
 10
-1.028062
 20
0.100126
 30
0.0
  0
SPLINE
  5
34a
100
AcDbEntity
  8
Lights
 62
7
100
AcDbSpline
 70
8
 71
3
 72
8
 73
4
 74
0
 40
0
 40
0
 40
0
 40
0
 40
1
 40
1
 40
1
 40
1
 10
-1.028062
 20
0.100126
 30
0.0
 10
-1.049474
 20
0.121538
 30
0.0
 10
-1.078514
 20
0.133567
 30
0.0
 10
-1.108795
 20
0.133567
 30
0.0
  0
LWPOLYLINE
  5
34b
100
AcDbEntity
  8
Lights
 62
7
100
AcDbPolyline
 90
1
 70
1
 10
-0.912949
 20
0.480496
 30
0.0
  0
SPLINE
  5
34c
100
AcDbEntity
  8
Lights
 62
7
100
AcDbSpline
 70
8
 71
3
 72
8
 73
4
 74
0
 40
0
 40
0
 40
0
 40
0
 40
1
 40
1
 40
1
 40
1
 10
-1.108795
 20
0.117819
 30
0.0
 10
-1.148604
 20
0.117819
 30
0.0
 10
-1.184494
 20
0.093838
 30
0.0
 10
-1.199728
 20
0.057059
 30
0.0
  0
SPLINE
  5
34d
100
AcDbEntity
  8
Lights
 62
7
100
AcDbSpline
 70
8
 71
3
 72
8
 73
4
 74
0
 40
0
 40
0
 40
0
 40
0
 40
1
 40
1
 40
1
 40
1
 10
-1.199728
 20
0.057059
 30
0.0
 10
-1.214962
 20
0.020280
 30
0.0
 10
-1.206542
 20
-0.022054
 30
0.0
 10
-1.178392
 20
-0.050204
 30
0.0
  0
SPLINE
  5
34e
100
AcDbEntity
  8
Lights
 62
7
100
AcDbSpline
 70
8
 71
3
 72
8
 73
4
 74
0
 40
0
 40
0
 40
0
 40
0
 40
1
 40
1
 40
1
 40
1
 10
-1.178392
 20
-0.050204
 30
0.0
 10
-1.150243
 20
-0.078353
 30
0.0
 10
-1.107908
 20
-0.086774
 30
0.0
 10
-1.071129
 20
-0.071540
 30
0.0
  0
SPLINE
  5
34f
100
AcDbEntity
  8
Lights
 62
7
100
AcDbSpline
 70
8
 71
3
 72
8
 73
4
 74
0
 40
0
 40
0
 40
0
 40
0
 40
1
 40
1
 40
1
 40
1
 10
-1.071129
 20
-0.071540
 30
0.0
 10
-1.034350
 20
-0.056305
 30
0.0
 10
-1.010370
 20
-0.020416
 30
0.0
 10
-1.010370
 20
0.019393
 30
0.0
  0
SPLINE
  5
350
100
AcDbEntity
  8
Lights
 62
7
100
AcDbSpline
 70
8
 71
3
 72
8
 73
4
 74
0
 40
0
 40
0
 40
0
 40
0
 40
1
 40
1
 40
1
 40
1
 10
-1.010370
 20
0.019393
 30
0.0
 10
-1.010370
 20
0.045497
 30
0.0
 10
-1.020740
 20
0.070532
 30
0.0
 10
-1.039198
 20
0.088990
 30
0.0
  0
SPLINE
  5
351
100
AcDbEntity
  8
Lights
 62
7
100
AcDbSpline
 70
8
 71
3
 72
8
 73
4
 74
0
 40
0
 40
0
 40
0
 40
0
 40
1
 40
1
 40
1
 40
1
 10
-1.039198
 20
0.088990
 30
0.0
 10
-1.057656
 20
0.107449
 30
0.0
 10
-1.082691
 20
0.117819
 30
0.0
 10
-1.108795
 20
0.117819
 30
0.0
  0
LWPOLYLINE
  5
352
100
AcDbEntity
  8
Lights
 62
7
100
AcDbPolyline
 90
1
 70
1
 10
-1.108795
 20
0.133567
 30
0.0
  0
SPLINE
  5
353
100
AcDbEntity
  8
Lights
 62
7
100
AcDbSpline
 70
8
 71
3
 72
8
 73
4
 74
0
 40
0
 40
0
 40
0
 40
0
 40
1
 40
1
 40
1
 40
1
 10
-1.319149
 20
-0.214622
 30
0.0
 10
-1.365328
 20
-0.214622
 30
0.0
 10
-1.406960
 20
-0.242440
 30
0.0
 10
-1.424632
 20
-0.285103
 30
0.0
  0
SPLINE
  5
354
100
AcDbEntity
  8
Lights
 62
7
100
AcDbSpline
 70
8
 71
3
 72
8
 73
4
 74
0
 40
0
 40
0
 40
0
 40
0
 40
1
 40
1
 40
1
 40
1
 10
-1.424632
 20
-0.285103
 30
0.0
 10
-1.442304
 20
-0.327767
 30
0.0
 10
-1.432535
 20
-0.376875
 30
0.0
 10
-1.399882
 20
-0.409528
 30
0.0
  0
SPLINE
  5
355
100
AcDbEntity
  8
Lights
 62
7
100
AcDbSpline
 70
8
 71
3
 72
8
 73
4
 74
0
 40
0
 40
0
 40
0
 40
0
 40
1
 40
1
 40
1
 40
1
 10
-1.399882
 20
-0.409528
 30
0.0
 10
-1.367229
 20
-0.442182
 30
0.0
 10
-1.318121
 20
-0.451950
 30
0.0
 10
-1.275457
 20
-0.434278
 30
0.0
  0
SPLINE
  5
356
100
AcDbEntity
  8
Lights
 62
7
100
AcDbSpline
 70
8
 71
3
 72
8
 73
4
 74
0
 40
0
 40
0
 40
0
 40
0
 40
1
 40
1
 40
1
 40
1
 10
-1.275457
 20
-0.434278
 30
0.0
 10
-1.232794
 20
-0.416606
 30
0.0
 10
-1.204976
 20
-0.374974
 30
0.0
 10
-1.204976
 20
-0.328796
 30
0.0
  0
SPLINE
  5
357
100
AcDbEntity
  8
Lights
 62
7
100
AcDbSpline
 70
8
 71
3
 72
8
 73
4
 74
0
 40
0
 40
0
 40
0
 40
0
 40
1
 40
1
 40
1
 40
1
 10
-1.204976
 20
-0.328796
 30
0.0
 10
-1.204976
 20
-0.298515
 30
0.0
 10
-1.217005
 20
-0.269475
 30
0.0
 10
-1.238417
 20
-0.248063
 30
0.0
  0
SPLINE
  5
358
100
AcDbEntity
  8
Lights
 62
7
100
AcDbSpline
 70
8
 71
3
 72
8
 73
4
 74
0
 40
0
 40
0
 40
0
 40
0
 40
1
 40
1
 40
1
 40
1
 10
-1.238417
 20
-0.248063
 30
0.0
 10
-1.259828
 20
-0.226651
 30
0.0
 10
-1.288869
 20
-0.214622
 30
0.0
 10
-1.319149
 20
-0.214622
 30
0.0
  0
LWPOLYLINE
  5
359
100
AcDbEntity
  8
Lights
 62
7
100
AcDbPolyline
 90
1
 70
1
 10
-1.108795
 20
0.117819
 30
0.0
  0
SPLINE
  5
35a
100
AcDbEntity
  8
Lights
 62
7
100
AcDbSpline
 70
8
 71
3
 72
8
 73
4
 74
0
 40
0
 40
0
 40
0
 40
0
 40
1
 40
1
 40
1
 40
1
 10
-1.319149
 20
-0.230370
 30
0.0
 10
-1.358959
 20
-0.230370
 30
0.0
 10
-1.394848
 20
-0.254351
 30
0.0
 10
-1.410082
 20
-0.291130
 30
0.0
  0
SPLINE
  5
35b
100
AcDbEntity
  8
Lights
 62
7
100
AcDbSpline
 70
8
 71
3
 72
8
 73
4
 74
0
 40
0
 40
0
 40
0
 40
0
 40
1
 40
1
 40
1
 40
1
 10
-1.410082
 20
-0.291130
 30
0.0
 10
-1.425317
 20
-0.327909
 30
0.0
 10
-1.416896
 20
-0.370243
 30
0.0
 10
-1.388747
 20
-0.398393
 30
0.0
  0
SPLINE
  5
35c
100
AcDbEntity
  8
Lights
 62
7
100
AcDbSpline
 70
8
 71
3
 72
8
 73
4
 74
0
 40
0
 40
0
 40
0
 40
0
 40
1
 40
1
 40
1
 40
1
 10
-1.388747
 20
-0.398393
 30
0.0
 10
-1.360597
 20
-0.426542
 30
0.0
 10
-1.318263
 20
-0.434963
 30
0.0
 10
-1.281484
 20
-0.419729
 30
0.0
  0
SPLINE
  5
35d
100
AcDbEntity
  8
Lights
 62
7
100
AcDbSpline
 70
8
 71
3
 72
8
 73
4
 74
0
 40
0
 40
0
 40
0
 40
0
 40
1
 40
1
 40
1
 40
1
 10
-1.281484
 20
-0.419729
 30
0.0
 10
-1.244705
 20
-0.404494
 30
0.0
 10
-1.220724
 20
-0.368605
 30
0.0
 10
-1.220724
 20
-0.328796
 30
0.0
  0
SPLINE
  5
35e
100
AcDbEntity
  8
Lights
 62
7
100
AcDbSpline
 70
8
 71
3
 72
8
 73
4
 74
0
 40
0
 40
0
 40
0
 40
0
 40
1
 40
1
 40
1
 40
1
 10
-1.220724
 20
-0.328796
 30
0.0
 10
-1.220724
 20
-0.302692
 30
0.0
 10
-1.231094
 20
-0.277657
 30
0.0
 10
-1.249552
 20
-0.259199
 30
0.0
  0
SPLINE
  5
35f
100
AcDbEntity
  8
Lights
 62
7
100
AcDbSpline
 70
8
 71
3
 72
8
 73
4
 74
0
 40
0
 40
0
 40
0
 40
0
 40
1
 40
1
 40
1
 40
1
 10
-1.249552
 20
-0.259199
 30
0.0
 10
-1.268011
 20
-0.240740
 30
0.0
 10
-1.293045
 20
-0.230370
 30
0.0
 10
-1.319149
 20
-0.230370
 30
0.0
  0
LWPOLYLINE
  5
360
100
AcDbEntity
  8
Lights
 62
7
100
AcDbPolyline
 90
1
 70
1
 10
-1.319149
 20
-0.214622
 30
0.0
  0
SPLINE
  5
361
100
AcDbEntity
  8
Lights
 62
7
100
AcDbSpline
 70
8
 71
3
 72
8
 73
4
 74
0
 40
0
 40
0
 40
0
 40
0
 40
1
 40
1
 40
1
 40
1
 10
3.045934
 20
0.179236
 30
0.0
 10
2.999755
 20
0.179236
 30
0.0
 10
2.958124
 20
0.151418
 30
0.0
 10
2.940452
 20
0.108755
 30
0.0
  0
SPLINE
  5
362
100
AcDbEntity
  8
Lights
 62
7
100
AcDbSpline
 70
8
 71
3
 72
8
 73
4
 74
0
 40
0
 40
0
 40
0
 40
0
 40
1
 40
1
 40
1
 40
1
 10
2.940452
 20
0.108755
 30
0.0
 10
2.922780
 20
0.066091
 30
0.0
 10
2.932548
 20
0.016983
 30
0.0
 10
2.965201
 20
-0.015670
 30
0.0
  0
SPLINE
  5
363
100
AcDbEntity
  8
Lights
 62
7
100
AcDbSpline
 70
8
 71
3
 72
8
 73
4
 74
0
 40
0
 40
0
 40
0
 40
0
 40
1
 40
1
 40
1
 40
1
 10
2.965201
 20
-0.015670
 30
0.0
 10
2.997855
 20
-0.048323
 30
0.0
 10
3.046963
 20
-0.058092
 30
0.0
 10
3.089626
 20
-0.040420
 30
0.0
  0
SPLINE
  5
364
100
AcDbEntity
  8
Lights
 62
7
100
AcDbSpline
 70
8
 71
3
 72
8
 73
4
 74
0
 40
0
 40
0
 40
0
 40
0
 40
1
 40
1
 40
1
 40
1
 10
3.089626
 20
-0.040420
 30
0.0
 10
3.132290
 20
-0.022748
 30
0.0
 10
3.160107
 20
0.018884
 30
0.0
 10
3.160107
 20
0.065063
 30
0.0
  0
SPLINE
  5
365
100
AcDbEntity
  8
Lights
 62
7
100
AcDbSpline
 70
8
 71
3
 72
8
 73
4
 74
0
 40
0
 40
0
 40
0
 40
0
 40
1
 40
1
 40
1
 40
1
 10
3.160107
 20
0.065063
 30
0.0
 10
3.160107
 20
0.095343
 30
0.0
 10
3.148078
 20
0.124384
 30
0.0
 10
3.126667
 20
0.145795
 30
0.0
  0
SPLINE
  5
366
100
AcDbEntity
  8
Lights
 62
7
100
AcDbSpline
 70
8
 71
3
 72
8
 73
4
 74
0
 40
0
 40
0
 40
0
 40
0
 40
1
 40
1
 40
1
 40
1
 10
3.126667
 20
0.145795
 30
0.0
 10
3.105255
 20
0.167207
 30
0.0
 10
3.076215
 20
0.179236
 30
0.0
 10
3.045934
 20
0.179236
 30
0.0
  0
LWPOLYLINE
  5
367
100
AcDbEntity
  8
Lights
 62
7
100
AcDbPolyline
 90
1
 70
1
 10
-1.319149
 20
-0.230370
 30
0.0
  0
SPLINE
  5
368
100
AcDbEntity
  8
Lights
 62
7
100
AcDbSpline
 70
8
 71
3
 72
8
 73
4
 74
0
 40
0
 40
0
 40
0
 40
0
 40
1
 40
1
 40
1
 40
1
 10
3.045934
 20
0.163488
 30
0.0
 10
3.006125
 20
0.163488
 30
0.0
 10
2.970235
 20
0.139507
 30
0.0
 10
2.955001
 20
0.102728
 30
0.0
  0
SPLINE
  5
369
100
AcDbEntity
  8
Lights
 62
7
100
AcDbSpline
 70
8
 71
3
 72
8
 73
4
 74
0
 40
0
 40
0
 40
0
 40
0
 40
1
 40
1
 40
1
 40
1
 10
2.955001
 20
0.102728
 30
0.0
 10
2.939767
 20
0.065949
 30
0.0
 10
2.948188
 20
0.023615
 30
0.0
 10
2.976337
 20
-0.004535
 30
0.0
  0
SPLINE
  5
36a
100
AcDbEntity
  8
Lights
 62
7
100
AcDbSpline
 70
8
 71
3
 72
8
 73
4
 74
0
 40
0
 40
0
 40
0
 40
0
 40
1
 40
1
 40
1
 40
1
 10
2.976337
 20
-0.004535
 30
0.0
 10
3.004486
 20
-0.032684
 30
0.0
 10
3.046821
 20
-0.041105
 30
0.0
 10
3.083600
 20
-0.025870
 30
0.0
  0
SPLINE
  5
36b
100
AcDbEntity
  8
Lights
 62
7
100
AcDbSpline
 70
8
 71
3
 72
8
 73
4
 74
0
 40
0
 40
0
 40
0
 40
0
 40
1
 40
1
 40
1
 40
1
 10
3.083600
 20
-0.025870
 30
0.0
 10
3.120379
 20
-0.010636
 30
0.0
 10
3.144359
 20
0.025253
 30
0.0
 10
3.144359
 20
0.065063
 30
0.0
  0
SPLINE
  5
36c
100
AcDbEntity
  8
Lights
 62
7
100
AcDbSpline
 70
8
 71
3
 72
8
 73
4
 74
0
 40
0
 40
0
 40
0
 40
0
 40
1
 40
1
 40
1
 40
1
 10
3.144359
 20
0.065063
 30
0.0
 10
3.144359
 20
0.091167
 30
0.0
 10
3.133989
 20
0.116201
 30
0.0
 10
3.115531
 20
0.134660
 30
0.0
  0
SPLINE
  5
36d
100
AcDbEntity
  8
Lights
 62
7
100
AcDbSpline
 70
8
 71
3
 72
8
 73
4
 74
0
 40
0
 40
0
 40
0
 40
0
 40
1
 40
1
 40
1
 40
1
 10
3.115531
 20
0.134660
 30
0.0
 10
3.097073
 20
0.153118
 30
0.0
 10
3.072038
 20
0.163488
 30
0.0
 10
3.045934
 20
0.163488
 30
0.0
  0
LWPOLYLINE
  5
36e
100
AcDbEntity
  8
Lights
 62
7
100
AcDbPolyline
 90
1
 70
1
 10
3.045934
 20
0.179236
 30
0.0
  0
SPLINE
  5
36f
100
AcDbEntity
  8
Lights
 62
7
100
AcDbSpline
 70
8
 71
3
 72
8
 73
4
 74
0
 40
0
 40
0
 40
0
 40
0
 40
1
 40
1
 40
1
 40
1
 10
2.809995
 20
-0.159307
 30
0.0
 10
2.763816
 20
-0.159307
 30
0.0
 10
2.722184
 20
-0.187125
 30
0.0
 10
2.704512
 20
-0.229789
 30
0.0
  0
SPLINE
  5
370
100
AcDbEntity
  8
Lights
 62
7
100
AcDbSpline
 70
8
 71
3
 72
8
 73
4
 74
0
 40
0
 40
0
 40
0
 40
0
 40
1
 40
1
 40
1
 40
1
 10
2.704512
 20
-0.229789
 30
0.0
 10
2.686841
 20
-0.272452
 30
0.0
 10
2.696609
 20
-0.321560
 30
0.0
 10
2.729262
 20
-0.354213
 30
0.0
  0
SPLINE
  5
371
100
AcDbEntity
  8
Lights
 62
7
100
AcDbSpline
 70
8
 71
3
 72
8
 73
4
 74
0
 40
0
 40
0
 40
0
 40
0
 40
1
 40
1
 40
1
 40
1
 10
2.729262
 20
-0.354213
 30
0.0
 10
2.761915
 20
-0.386867
 30
0.0
 10
2.811023
 20
-0.396635
 30
0.0
 10
2.853687
 20
-0.378963
 30
0.0
  0
SPLINE
  5
372
100
AcDbEntity
  8
Lights
 62
7
100
AcDbSpline
 70
8
 71
3
 72
8
 73
4
 74
0
 40
0
 40
0
 40
0
 40
0
 40
1
 40
1
 40
1
 40
1
 10
2.853687
 20
-0.378963
 30
0.0
 10
2.896351
 20
-0.361291
 30
0.0
 10
2.924168
 20
-0.319659
 30
0.0
 10
2.924168
 20
-0.273481
 30
0.0
  0
SPLINE
  5
373
100
AcDbEntity
  8
Lights
 62
7
100
AcDbSpline
 70
8
 71
3
 72
8
 73
4
 74
0
 40
0
 40
0
 40
0
 40
0
 40
1
 40
1
 40
1
 40
1
 10
2.924168
 20
-0.273481
 30
0.0
 10
2.924168
 20
-0.243200
 30
0.0
 10
2.912139
 20
-0.214160
 30
0.0
 10
2.890727
 20
-0.192748
 30
0.0
  0
SPLINE
  5
374
100
AcDbEntity
  8
Lights
 62
7
100
AcDbSpline
 70
8
 71
3
 72
8
 73
4
 74
0
 40
0
 40
0
 40
0
 40
0
 40
1
 40
1
 40
1
 40
1
 10
2.890727
 20
-0.192748
 30
0.0
 10
2.869316
 20
-0.171336
 30
0.0
 10
2.840275
 20
-0.159307
 30
0.0
 10
2.809995
 20
-0.159307
 30
0.0
  0
LWPOLYLINE
  5
375
100
AcDbEntity
  8
Lights
 62
7
100
AcDbPolyline
 90
1
 70
1
 10
3.045934
 20
0.163488
 30
0.0
  0
SPLINE
  5
376
100
AcDbEntity
  8
Lights
 62
7
100
AcDbSpline
 70
8
 71
3
 72
8
 73
4
 74
0
 40
0
 40
0
 40
0
 40
0
 40
1
 40
1
 40
1
 40
1
 10
2.809995
 20
-0.175056
 30
0.0
 10
2.770185
 20
-0.175056
 30
0.0
 10
2.734296
 20
-0.199036
 30
0.0
 10
2.719062
 20
-0.235815
 30
0.0
  0
SPLINE
  5
377
100
AcDbEntity
  8
Lights
 62
7
100
AcDbSpline
 70
8
 71
3
 72
8
 73
4
 74
0
 40
0
 40
0
 40
0
 40
0
 40
1
 40
1
 40
1
 40
1
 10
2.719062
 20
-0.235815
 30
0.0
 10
2.703827
 20
-0.272594
 30
0.0
 10
2.712248
 20
-0.314928
 30
0.0
 10
2.740398
 20
-0.343078
 30
0.0
  0
SPLINE
  5
378
100
AcDbEntity
  8
Lights
 62
7
100
AcDbSpline
 70
8
 71
3
 72
8
 73
4
 74
0
 40
0
 40
0
 40
0
 40
0
 40
1
 40
1
 40
1
 40
1
 10
2.740398
 20
-0.343078
 30
0.0
 10
2.768547
 20
-0.371227
 30
0.0
 10
2.810881
 20
-0.379648
 30
0.0
 10
2.847660
 20
-0.364414
 30
0.0
  0
SPLINE
  5
379
100
AcDbEntity
  8
Lights
 62
7
100
AcDbSpline
 70
8
 71
3
 72
8
 73
4
 74
0
 40
0
 40
0
 40
0
 40
0
 40
1
 40
1
 40
1
 40
1
 10
2.847660
 20
-0.364414
 30
0.0
 10
2.884439
 20
-0.349179
 30
0.0
 10
2.908420
 20
-0.313290
 30
0.0
 10
2.908420
 20
-0.273481
 30
0.0
  0
SPLINE
  5
37a
100
AcDbEntity
  8
Lights
 62
7
100
AcDbSpline
 70
8
 71
3
 72
8
 73
4
 74
0
 40
0
 40
0
 40
0
 40
0
 40
1
 40
1
 40
1
 40
1
 10
2.908420
 20
-0.273481
 30
0.0
 10
2.908420
 20
-0.247377
 30
0.0
 10
2.898050
 20
-0.222342
 30
0.0
 10
2.879592
 20
-0.203884
 30
0.0
  0
SPLINE
  5
37b
100
AcDbEntity
  8
Lights
 62
7
100
AcDbSpline
 70
8
 71
3
 72
8
 73
4
 74
0
 40
0
 40
0
 40
0
 40
0
 40
1
 40
1
 40
1
 40
1
 10
2.879592
 20
-0.203884
 30
0.0
 10
2.861134
 20
-0.185425
 30
0.0
 10
2.836099
 20
-0.175056
 30
0.0
 10
2.809995
 20
-0.175056
 30
0.0
  0
LWPOLYLINE
  5
37c
100
AcDbEntity
  8
Lights
 62
7
100
AcDbPolyline
 90
1
 70
1
 10
2.809995
 20
-0.159307
 30
0.0
  0
SPLINE
  5
37d
100
AcDbEntity
  8
Lights
 62
7
100
AcDbSpline
 70
8
 71
3
 72
8
 73
4
 74
0
 40
0
 40
0
 40
0
 40
0
 40
1
 40
1
 40
1
 40
1
 10
2.338114
 20
-0.313166
 30
0.0
 10
2.291936
 20
-0.313166
 30
0.0
 10
2.250304
 20
-0.340983
 30
0.0
 10
2.232632
 20
-0.383647
 30
0.0
  0
SPLINE
  5
37e
100
AcDbEntity
  8
Lights
 62
7
100
AcDbSpline
 70
8
 71
3
 72
8
 73
4
 74
0
 40
0
 40
0
 40
0
 40
0
 40
1
 40
1
 40
1
 40
1
 10
2.232632
 20
-0.383647
 30
0.0
 10
2.214960
 20
-0.426310
 30
0.0
 10
2.224728
 20
-0.475418
 30
0.0
 10
2.257382
 20
-0.508072
 30
0.0
  0
SPLINE
  5
37f
100
AcDbEntity
  8
Lights
 62
7
100
AcDbSpline
 70
8
 71
3
 72
8
 73
4
 74
0
 40
0
 40
0
 40
0
 40
0
 40
1
 40
1
 40
1
 40
1
 10
2.257382
 20
-0.508072
 30
0.0
 10
2.290035
 20
-0.540725
 30
0.0
 10
2.339143
 20
-0.550493
 30
0.0
 10
2.381807
 20
-0.532821
 30
0.0
  0
SPLINE
  5
380
100
AcDbEntity
  8
Lights
 62
7
100
AcDbSpline
 70
8
 71
3
 72
8
 73
4
 74
0
 40
0
 40
0
 40
0
 40
0
 40
1
 40
1
 40
1
 40
1
 10
2.381807
 20
-0.532821
 30
0.0
 10
2.424470
 20
-0.515149
 30
0.0
 10
2.452288
 20
-0.473518
 30
0.0
 10
2.452288
 20
-0.427339
 30
0.0
  0
SPLINE
  5
381
100
AcDbEntity
  8
Lights
 62
7
100
AcDbSpline
 70
8
 71
3
 72
8
 73
4
 74
0
 40
0
 40
0
 40
0
 40
0
 40
1
 40
1
 40
1
 40
1
 10
2.452288
 20
-0.427339
 30
0.0
 10
2.452288
 20
-0.397058
 30
0.0
 10
2.440259
 20
-0.368018
 30
0.0
 10
2.418847
 20
-0.346606
 30
0.0
  0
SPLINE
  5
382
100
AcDbEntity
  8
Lights
 62
7
100
AcDbSpline
 70
8
 71
3
 72
8
 73
4
 74
0
 40
0
 40
0
 40
0
 40
0
 40
1
 40
1
 40
1
 40
1
 10
2.418847
 20
-0.346606
 30
0.0
 10
2.397435
 20
-0.325195
 30
0.0
 10
2.368395
 20
-0.313166
 30
0.0
 10
2.338114
 20
-0.313166
 30
0.0
  0
LWPOLYLINE
  5
383
100
AcDbEntity
  8
Lights
 62
7
100
AcDbPolyline
 90
1
 70
1
 10
2.809995
 20
-0.175056
 30
0.0
  0
SPLINE
  5
384
100
AcDbEntity
  8
Lights
 62
7
100
AcDbSpline
 70
8
 71
3
 72
8
 73
4
 74
0
 40
0
 40
0
 40
0
 40
0
 40
1
 40
1
 40
1
 40
1
 10
2.338114
 20
-0.328914
 30
0.0
 10
2.298305
 20
-0.328914
 30
0.0
 10
2.262416
 20
-0.352894
 30
0.0
 10
2.247181
 20
-0.389673
 30
0.0
  0
SPLINE
  5
385
100
AcDbEntity
  8
Lights
 62
7
100
AcDbSpline
 70
8
 71
3
 72
8
 73
4
 74
0
 40
0
 40
0
 40
0
 40
0
 40
1
 40
1
 40
1
 40
1
 10
2.247181
 20
-0.389673
 30
0.0
 10
2.231947
 20
-0.426452
 30
0.0
 10
2.240368
 20
-0.468787
 30
0.0
 10
2.268517
 20
-0.496936
 30
0.0
  0
SPLINE
  5
386
100
AcDbEntity
  8
Lights
 62
7
100
AcDbSpline
 70
8
 71
3
 72
8
 73
4
 74
0
 40
0
 40
0
 40
0
 40
0
 40
1
 40
1
 40
1
 40
1
 10
2.268517
 20
-0.496936
 30
0.0
 10
2.296667
 20
-0.525086
 30
0.0
 10
2.339001
 20
-0.533506
 30
0.0
 10
2.375780
 20
-0.518272
 30
0.0
  0
SPLINE
  5
387
100
AcDbEntity
  8
Lights
 62
7
100
AcDbSpline
 70
8
 71
3
 72
8
 73
4
 74
0
 40
0
 40
0
 40
0
 40
0
 40
1
 40
1
 40
1
 40
1
 10
2.375780
 20
-0.518272
 30
0.0
 10
2.412559
 20
-0.503038
 30
0.0
 10
2.436540
 20
-0.467148
 30
0.0
 10
2.436540
 20
-0.427339
 30
0.0
  0
SPLINE
  5
388
100
AcDbEntity
  8
Lights
 62
7
100
AcDbSpline
 70
8
 71
3
 72
8
 73
4
 74
0
 40
0
 40
0
 40
0
 40
0
 40
1
 40
1
 40
1
 40
1
 10
2.436540
 20
-0.427339
 30
0.0
 10
2.436540
 20
-0.401235
 30
0.0
 10
2.426170
 20
-0.376200
 30
0.0
 10
2.407711
 20
-0.357742
 30
0.0
  0
SPLINE
  5
389
100
AcDbEntity
  8
Lights
 62
7
100
AcDbSpline
 70
8
 71
3
 72
8
 73
4
 74
0
 40
0
 40
0
 40
0
 40
0
 40
1
 40
1
 40
1
 40
1
 10
2.407711
 20
-0.357742
 30
0.0
 10
2.389253
 20
-0.339284
 30
0.0
 10
2.364218
 20
-0.328914
 30
0.0
 10
2.338114
 20
-0.328914
 30
0.0
  0
LWPOLYLINE
  5
38a
100
AcDbEntity
  8
Lights
 62
7
100
AcDbPolyline
 90
1
 70
1
 10
2.338114
 20
-0.313166
 30
0.0
  0
SPLINE
  5
38b
100
AcDbEntity
  8
Lights
 62
7
100
AcDbSpline
 70
8
 71
3
 72
8
 73
4
 74
0
 40
0
 40
0
 40
0
 40
0
 40
1
 40
1
 40
1
 40
1
 10
2.315110
 20
0.055417
 30
0.0
 10
2.268932
 20
0.055417
 30
0.0
 10
2.227300
 20
0.027600
 30
0.0
 10
2.209628
 20
-0.015064
 30
0.0
  0
SPLINE
  5
38c
100
AcDbEntity
  8
Lights
 62
7
100
AcDbSpline
 70
8
 71
3
 72
8
 73
4
 74
0
 40
0
 40
0
 40
0
 40
0
 40
1
 40
1
 40
1
 40
1
 10
2.209628
 20
-0.015064
 30
0.0
 10
2.191956
 20
-0.057728
 30
0.0
 10
2.201724
 20
-0.106836
 30
0.0
 10
2.234378
 20
-0.139489
 30
0.0
  0
SPLINE
  5
38d
100
AcDbEntity
  8
Lights
 62
7
100
AcDbSpline
 70
8
 71
3
 72
8
 73
4
 74
0
 40
0
 40
0
 40
0
 40
0
 40
1
 40
1
 40
1
 40
1
 10
2.234378
 20
-0.139489
 30
0.0
 10
2.267031
 20
-0.172142
 30
0.0
 10
2.316139
 20
-0.181910
 30
0.0
 10
2.358803
 20
-0.164239
 30
0.0
  0
SPLINE
  5
38e
100
AcDbEntity
  8
Lights
 62
7
100
AcDbSpline
 70
8
 71
3
 72
8
 73
4
 74
0
 40
0
 40
0
 40
0
 40
0
 40
1
 40
1
 40
1
 40
1
 10
2.358803
 20
-0.164239
 30
0.0
 10
2.401466
 20
-0.146567
 30
0.0
 10
2.429284
 20
-0.104935
 30
0.0
 10
2.429284
 20
-0.058756
 30
0.0
  0
SPLINE
  5
38f
100
AcDbEntity
  8
Lights
 62
7
100
AcDbSpline
 70
8
 71
3
 72
8
 73
4
 74
0
 40
0
 40
0
 40
0
 40
0
 40
1
 40
1
 40
1
 40
1
 10
2.429284
 20
-0.058756
 30
0.0
 10
2.429284
 20
-0.028476
 30
0.0
 10
2.417255
 20
0.000565
 30
0.0
 10
2.395843
 20
0.021976
 30
0.0
  0
SPLINE
  5
390
100
AcDbEntity
  8
Lights
 62
7
100
AcDbSpline
 70
8
 71
3
 72
8
 73
4
 74
0
 40
0
 40
0
 40
0
 40
0
 40
1
 40
1
 40
1
 40
1
 10
2.395843
 20
0.021976
 30
0.0
 10
2.374431
 20
0.043388
 30
0.0
 10
2.345391
 20
0.055417
 30
0.0
 10
2.315110
 20
0.055417
 30
0.0
  0
LWPOLYLINE
  5
391
100
AcDbEntity
  8
Lights
 62
7
100
AcDbPolyline
 90
1
 70
1
 10
2.338114
 20
-0.328914
 30
0.0
  0
SPLINE
  5
392
100
AcDbEntity
  8
Lights
 62
7
100
AcDbSpline
 70
8
 71
3
 72
8
 73
4
 74
0
 40
0
 40
0
 40
0
 40
0
 40
1
 40
1
 40
1
 40
1
 10
2.315110
 20
0.039669
 30
0.0
 10
2.275301
 20
0.039669
 30
0.0
 10
2.239412
 20
0.015688
 30
0.0
 10
2.224177
 20
-0.021091
 30
0.0
  0
SPLINE
  5
393
100
AcDbEntity
  8
Lights
 62
7
100
AcDbSpline
 70
8
 71
3
 72
8
 73
4
 74
0
 40
0
 40
0
 40
0
 40
0
 40
1
 40
1
 40
1
 40
1
 10
2.224177
 20
-0.021091
 30
0.0
 10
2.208943
 20
-0.057870
 30
0.0
 10
2.217364
 20
-0.100204
 30
0.0
 10
2.245513
 20
-0.128353
 30
0.0
  0
SPLINE
  5
394
100
AcDbEntity
  8
Lights
 62
7
100
AcDbSpline
 70
8
 71
3
 72
8
 73
4
 74
0
 40
0
 40
0
 40
0
 40
0
 40
1
 40
1
 40
1
 40
1
 10
2.245513
 20
-0.128353
 30
0.0
 10
2.273663
 20
-0.156503
 30
0.0
 10
2.315997
 20
-0.164924
 30
0.0
 10
2.352776
 20
-0.149689
 30
0.0
  0
SPLINE
  5
395
100
AcDbEntity
  8
Lights
 62
7
100
AcDbSpline
 70
8
 71
3
 72
8
 73
4
 74
0
 40
0
 40
0
 40
0
 40
0
 40
1
 40
1
 40
1
 40
1
 10
2.352776
 20
-0.149689
 30
0.0
 10
2.389555
 20
-0.134455
 30
0.0
 10
2.413536
 20
-0.098566
 30
0.0
 10
2.413536
 20
-0.058756
 30
0.0
  0
SPLINE
  5
396
100
AcDbEntity
  8
Lights
 62
7
100
AcDbSpline
 70
8
 71
3
 72
8
 73
4
 74
0
 40
0
 40
0
 40
0
 40
0
 40
1
 40
1
 40
1
 40
1
 10
2.413536
 20
-0.058756
 30
0.0
 10
2.413536
 20
-0.032652
 30
0.0
 10
2.403166
 20
-0.007617
 30
0.0
 10
2.384708
 20
0.010841
 30
0.0
  0
SPLINE
  5
397
100
AcDbEntity
  8
Lights
 62
7
100
AcDbSpline
 70
8
 71
3
 72
8
 73
4
 74
0
 40
0
 40
0
 40
0
 40
0
 40
1
 40
1
 40
1
 40
1
 10
2.384708
 20
0.010841
 30
0.0
 10
2.366249
 20
0.029299
 30
0.0
 10
2.341214
 20
0.039669
 30
0.0
 10
2.315110
 20
0.039669
 30
0.0
  0
LWPOLYLINE
  5
398
100
AcDbEntity
  8
Lights
 62
7
100
AcDbPolyline
 90
1
 70
1
 10
2.315110
 20
0.055417
 30
0.0
  0
SPLINE
  5
399
100
AcDbEntity
  8
Lights
 62
7
100
AcDbSpline
 70
8
 71
3
 72
8
 73
4
 74
0
 40
0
 40
0
 40
0
 40
0
 40
1
 40
1
 40
1
 40
1
 10
2.473232
 20
0.417464
 30
0.0
 10
2.427054
 20
0.417464
 30
0.0
 10
2.385422
 20
0.389647
 30
0.0
 10
2.367750
 20
0.346983
 30
0.0
  0
SPLINE
  5
39a
100
AcDbEntity
  8
Lights
 62
7
100
AcDbSpline
 70
8
 71
3
 72
8
 73
4
 74
0
 40
0
 40
0
 40
0
 40
0
 40
1
 40
1
 40
1
 40
1
 10
2.367750
 20
0.346983
 30
0.0
 10
2.350078
 20
0.304320
 30
0.0
 10
2.359846
 20
0.255212
 30
0.0
 10
2.392500
 20
0.222558
 30
0.0
  0
SPLINE
  5
39b
100
AcDbEntity
  8
Lights
 62
7
100
AcDbSpline
 70
8
 71
3
 72
8
 73
4
 74
0
 40
0
 40
0
 40
0
 40
0
 40
1
 40
1
 40
1
 40
1
 10
2.392500
 20
0.222558
 30
0.0
 10
2.425153
 20
0.189905
 30
0.0
 10
2.474261
 20
0.180137
 30
0.0
 10
2.516925
 20
0.197809
 30
0.0
  0
SPLINE
  5
39c
100
AcDbEntity
  8
Lights
 62
7
100
AcDbSpline
 70
8
 71
3
 72
8
 73
4
 74
0
 40
0
 40
0
 40
0
 40
0
 40
1
 40
1
 40
1
 40
1
 10
2.516925
 20
0.197809
 30
0.0
 10
2.559588
 20
0.215480
 30
0.0
 10
2.587406
 20
0.257112
 30
0.0
 10
2.587406
 20
0.303291
 30
0.0
  0
SPLINE
  5
39d
100
AcDbEntity
  8
Lights
 62
7
100
AcDbSpline
 70
8
 71
3
 72
8
 73
4
 74
0
 40
0
 40
0
 40
0
 40
0
 40
1
 40
1
 40
1
 40
1
 10
2.587406
 20
0.303291
 30
0.0
 10
2.587406
 20
0.333572
 30
0.0
 10
2.575377
 20
0.362612
 30
0.0
 10
2.553965
 20
0.384024
 30
0.0
  0
SPLINE
  5
39e
100
AcDbEntity
  8
Lights
 62
7
100
AcDbSpline
 70
8
 71
3
 72
8
 73
4
 74
0
 40
0
 40
0
 40
0
 40
0
 40
1
 40
1
 40
1
 40
1
 10
2.553965
 20
0.384024
 30
0.0
 10
2.532554
 20
0.405435
 30
0.0
 10
2.503513
 20
0.417464
 30
0.0
 10
2.473232
 20
0.417464
 30
0.0
  0
LWPOLYLINE
  5
39f
100
AcDbEntity
  8
Lights
 62
7
100
AcDbPolyline
 90
1
 70
1
 10
2.315110
 20
0.039669
 30
0.0
  0
SPLINE
  5
3a0
100
AcDbEntity
  8
Lights
 62
7
100
AcDbSpline
 70
8
 71
3
 72
8
 73
4
 74
0
 40
0
 40
0
 40
0
 40
0
 40
1
 40
1
 40
1
 40
1
 10
2.473232
 20
0.401716
 30
0.0
 10
2.433423
 20
0.401716
 30
0.0
 10
2.397534
 20
0.377736
 30
0.0
 10
2.382299
 20
0.340957
 30
0.0
  0
SPLINE
  5
3a1
100
AcDbEntity
  8
Lights
 62
7
100
AcDbSpline
 70
8
 71
3
 72
8
 73
4
 74
0
 40
0
 40
0
 40
0
 40
0
 40
1
 40
1
 40
1
 40
1
 10
2.382299
 20
0.340957
 30
0.0
 10
2.367065
 20
0.304178
 30
0.0
 10
2.375486
 20
0.261843
 30
0.0
 10
2.403635
 20
0.233694
 30
0.0
  0
SPLINE
  5
3a2
100
AcDbEntity
  8
Lights
 62
7
100
AcDbSpline
 70
8
 71
3
 72
8
 73
4
 74
0
 40
0
 40
0
 40
0
 40
0
 40
1
 40
1
 40
1
 40
1
 10
2.403635
 20
0.233694
 30
0.0
 10
2.431785
 20
0.205544
 30
0.0
 10
2.474119
 20
0.197124
 30
0.0
 10
2.510898
 20
0.212358
 30
0.0
  0
SPLINE
  5
3a3
100
AcDbEntity
  8
Lights
 62
7
100
AcDbSpline
 70
8
 71
3
 72
8
 73
4
 74
0
 40
0
 40
0
 40
0
 40
0
 40
1
 40
1
 40
1
 40
1
 10
2.510898
 20
0.212358
 30
0.0
 10
2.547677
 20
0.227592
 30
0.0
 10
2.571658
 20
0.263482
 30
0.0
 10
2.571658
 20
0.303291
 30
0.0
  0
SPLINE
  5
3a4
100
AcDbEntity
  8
Lights
 62
7
100
AcDbSpline
 70
8
 71
3
 72
8
 73
4
 74
0
 40
0
 40
0
 40
0
 40
0
 40
1
 40
1
 40
1
 40
1
 10
2.571658
 20
0.303291
 30
0.0
 10
2.571658
 20
0.329395
 30
0.0
 10
2.561288
 20
0.354430
 30
0.0
 10
2.542830
 20
0.372888
 30
0.0
  0
SPLINE
  5
3a5
100
AcDbEntity
  8
Lights
 62
7
100
AcDbSpline
 70
8
 71
3
 72
8
 73
4
 74
0
 40
0
 40
0
 40
0
 40
0
 40
1
 40
1
 40
1
 40
1
 10
2.542830
 20
0.372888
 30
0.0
 10
2.524371
 20
0.391346
 30
0.0
 10
2.499336
 20
0.401716
 30
0.0
 10
2.473232
 20
0.401716
 30
0.0
  0
LWPOLYLINE
  5
3a6
100
AcDbEntity
  8
Lights
 62
7
100
AcDbPolyline
 90
1
 70
1
 10
2.473232
 20
0.417464
 30
0.0
  0
SPLINE
  5
3a7
100
AcDbEntity
  8
Lights
 62
7
100
AcDbSpline
 70
8
 71
3
 72
8
 73
4
 74
0
 40
0
 40
0
 40
0
 40
0
 40
1
 40
1
 40
1
 40
1
 10
2.656121
 20
0.846007
 30
0.0
 10
2.609942
 20
0.846007
 30
0.0
 10
2.568311
 20
0.818190
 30
0.0
 10
2.550639
 20
0.775526
 30
0.0
  0
SPLINE
  5
3a8
100
AcDbEntity
  8
Lights
 62
7
100
AcDbSpline
 70
8
 71
3
 72
8
 73
4
 74
0
 40
0
 40
0
 40
0
 40
0
 40
1
 40
1
 40
1
 40
1
 10
2.550639
 20
0.775526
 30
0.0
 10
2.532967
 20
0.732863
 30
0.0
 10
2.542735
 20
0.683755
 30
0.0
 10
2.575388
 20
0.651102
 30
0.0
  0
SPLINE
  5
3a9
100
AcDbEntity
  8
Lights
 62
7
100
AcDbSpline
 70
8
 71
3
 72
8
 73
4
 74
0
 40
0
 40
0
 40
0
 40
0
 40
1
 40
1
 40
1
 40
1
 10
2.575388
 20
0.651102
 30
0.0
 10
2.608042
 20
0.618448
 30
0.0
 10
2.657150
 20
0.608680
 30
0.0
 10
2.699813
 20
0.626352
 30
0.0
  0
SPLINE
  5
3aa
100
AcDbEntity
  8
Lights
 62
7
100
AcDbSpline
 70
8
 71
3
 72
8
 73
4
 74
0
 40
0
 40
0
 40
0
 40
0
 40
1
 40
1
 40
1
 40
1
 10
2.699813
 20
0.626352
 30
0.0
 10
2.742477
 20
0.644024
 30
0.0
 10
2.770294
 20
0.685655
 30
0.0
 10
2.770294
 20
0.731834
 30
0.0
  0
SPLINE
  5
3ab
100
AcDbEntity
  8
Lights
 62
7
100
AcDbSpline
 70
8
 71
3
 72
8
 73
4
 74
0
 40
0
 40
0
 40
0
 40
0
 40
1
 40
1
 40
1
 40
1
 10
2.770294
 20
0.731834
 30
0.0
 10
2.770294
 20
0.762115
 30
0.0
 10
2.758265
 20
0.791155
 30
0.0
 10
2.736854
 20
0.812567
 30
0.0
  0
SPLINE
  5
3ac
100
AcDbEntity
  8
Lights
 62
7
100
AcDbSpline
 70
8
 71
3
 72
8
 73
4
 74
0
 40
0
 40
0
 40
0
 40
0
 40
1
 40
1
 40
1
 40
1
 10
2.736854
 20
0.812567
 30
0.0
 10
2.715442
 20
0.833979
 30
0.0
 10
2.686402
 20
0.846007
 30
0.0
 10
2.656121
 20
0.846007
 30
0.0
  0
LWPOLYLINE
  5
3ad
100
AcDbEntity
  8
Lights
 62
7
100
AcDbPolyline
 90
1
 70
1
 10
2.473232
 20
0.401716
 30
0.0
  0
SPLINE
  5
3ae
100
AcDbEntity
  8
Lights
 62
7
100
AcDbSpline
 70
8
 71
3
 72
8
 73
4
 74
0
 40
0
 40
0
 40
0
 40
0
 40
1
 40
1
 40
1
 40
1
 10
2.656121
 20
0.830259
 30
0.0
 10
2.616312
 20
0.830259
 30
0.0
 10
2.580422
 20
0.806279
 30
0.0
 10
2.565188
 20
0.769500
 30
0.0
  0
SPLINE
  5
3af
100
AcDbEntity
  8
Lights
 62
7
100
AcDbSpline
 70
8
 71
3
 72
8
 73
4
 74
0
 40
0
 40
0
 40
0
 40
0
 40
1
 40
1
 40
1
 40
1
 10
2.565188
 20
0.769500
 30
0.0
 10
2.549954
 20
0.732721
 30
0.0
 10
2.558375
 20
0.690387
 30
0.0
 10
2.586524
 20
0.662237
 30
0.0
  0
SPLINE
  5
3b0
100
AcDbEntity
  8
Lights
 62
7
100
AcDbSpline
 70
8
 71
3
 72
8
 73
4
 74
0
 40
0
 40
0
 40
0
 40
0
 40
1
 40
1
 40
1
 40
1
 10
2.586524
 20
0.662237
 30
0.0
 10
2.614673
 20
0.634088
 30
0.0
 10
2.657008
 20
0.625667
 30
0.0
 10
2.693787
 20
0.640901
 30
0.0
  0
SPLINE
  5
3b1
100
AcDbEntity
  8
Lights
 62
7
100
AcDbSpline
 70
8
 71
3
 72
8
 73
4
 74
0
 40
0
 40
0
 40
0
 40
0
 40
1
 40
1
 40
1
 40
1
 10
2.693787
 20
0.640901
 30
0.0
 10
2.730566
 20
0.656136
 30
0.0
 10
2.754546
 20
0.692025
 30
0.0
 10
2.754546
 20
0.731834
 30
0.0
  0
SPLINE
  5
3b2
100
AcDbEntity
  8
Lights
 62
7
100
AcDbSpline
 70
8
 71
3
 72
8
 73
4
 74
0
 40
0
 40
0
 40
0
 40
0
 40
1
 40
1
 40
1
 40
1
 10
2.754546
 20
0.731834
 30
0.0
 10
2.754546
 20
0.757938
 30
0.0
 10
2.744176
 20
0.782973
 30
0.0
 10
2.725718
 20
0.801431
 30
0.0
  0
SPLINE
  5
3b3
100
AcDbEntity
  8
Lights
 62
7
100
AcDbSpline
 70
8
 71
3
 72
8
 73
4
 74
0
 40
0
 40
0
 40
0
 40
0
 40
1
 40
1
 40
1
 40
1
 10
2.725718
 20
0.801431
 30
0.0
 10
2.707260
 20
0.819890
 30
0.0
 10
2.682225
 20
0.830259
 30
0.0
 10
2.656121
 20
0.830259
 30
0.0
  0
LWPOLYLINE
  5
3b4
100
AcDbEntity
  8
Lights
 62
7
100
AcDbPolyline
 90
1
 70
1
 10
2.656121
 20
0.846007
 30
0.0
  0
SPLINE
  5
3b5
100
AcDbEntity
  8
Lights
 62
7
100
AcDbSpline
 70
8
 71
3
 72
8
 73
4
 74
0
 40
0
 40
0
 40
0
 40
0
 40
1
 40
1
 40
1
 40
1
 10
2.799736
 20
1.256362
 30
0.0
 10
2.753558
 20
1.256362
 30
0.0
 10
2.711926
 20
1.228544
 30
0.0
 10
2.694254
 20
1.185881
 30
0.0
  0
SPLINE
  5
3b6
100
AcDbEntity
  8
Lights
 62
7
100
AcDbSpline
 70
8
 71
3
 72
8
 73
4
 74
0
 40
0
 40
0
 40
0
 40
0
 40
1
 40
1
 40
1
 40
1
 10
2.694254
 20
1.185881
 30
0.0
 10
2.676582
 20
1.143217
 30
0.0
 10
2.686350
 20
1.094109
 30
0.0
 10
2.719004
 20
1.061456
 30
0.0
  0
SPLINE
  5
3b7
100
AcDbEntity
  8
Lights
 62
7
100
AcDbSpline
 70
8
 71
3
 72
8
 73
4
 74
0
 40
0
 40
0
 40
0
 40
0
 40
1
 40
1
 40
1
 40
1
 10
2.719004
 20
1.061456
 30
0.0
 10
2.751657
 20
1.028803
 30
0.0
 10
2.800765
 20
1.019034
 30
0.0
 10
2.843429
 20
1.036706
 30
0.0
  0
SPLINE
  5
3b8
100
AcDbEntity
  8
Lights
 62
7
100
AcDbSpline
 70
8
 71
3
 72
8
 73
4
 74
0
 40
0
 40
0
 40
0
 40
0
 40
1
 40
1
 40
1
 40
1
 10
2.843429
 20
1.036706
 30
0.0
 10
2.886092
 20
1.054378
 30
0.0
 10
2.913910
 20
1.096010
 30
0.0
 10
2.913910
 20
1.142189
 30
0.0
  0
SPLINE
  5
3b9
100
AcDbEntity
  8
Lights
 62
7
100
AcDbSpline
 70
8
 71
3
 72
8
 73
4
 74
0
 40
0
 40
0
 40
0
 40
0
 40
1
 40
1
 40
1
 40
1
 10
2.913910
 20
1.142189
 30
0.0
 10
2.913910
 20
1.172469
 30
0.0
 10
2.901881
 20
1.201510
 30
0.0
 10
2.880469
 20
1.222921
 30
0.0
  0
SPLINE
  5
3ba
100
AcDbEntity
  8
Lights
 62
7
100
AcDbSpline
 70
8
 71
3
 72
8
 73
4
 74
0
 40
0
 40
0
 40
0
 40
0
 40
1
 40
1
 40
1
 40
1
 10
2.880469
 20
1.222921
 30
0.0
 10
2.859057
 20
1.244333
 30
0.0
 10
2.830017
 20
1.256362
 30
0.0
 10
2.799736
 20
1.256362
 30
0.0
  0
LWPOLYLINE
  5
3bb
100
AcDbEntity
  8
Lights
 62
7
100
AcDbPolyline
 90
1
 70
1
 10
2.656121
 20
0.830259
 30
0.0
  0
SPLINE
  5
3bc
100
AcDbEntity
  8
Lights
 62
7
100
AcDbSpline
 70
8
 71
3
 72
8
 73
4
 74
0
 40
0
 40
0
 40
0
 40
0
 40
1
 40
1
 40
1
 40
1
 10
2.799736
 20
1.240614
 30
0.0
 10
2.759927
 20
1.240614
 30
0.0
 10
2.724038
 20
1.216633
 30
0.0
 10
2.708803
 20
1.179854
 30
0.0
  0
SPLINE
  5
3bd
100
AcDbEntity
  8
Lights
 62
7
100
AcDbSpline
 70
8
 71
3
 72
8
 73
4
 74
0
 40
0
 40
0
 40
0
 40
0
 40
1
 40
1
 40
1
 40
1
 10
2.708803
 20
1.179854
 30
0.0
 10
2.693569
 20
1.143075
 30
0.0
 10
2.701990
 20
1.100741
 30
0.0
 10
2.730139
 20
1.072591
 30
0.0
  0
SPLINE
  5
3be
100
AcDbEntity
  8
Lights
 62
7
100
AcDbSpline
 70
8
 71
3
 72
8
 73
4
 74
0
 40
0
 40
0
 40
0
 40
0
 40
1
 40
1
 40
1
 40
1
 10
2.730139
 20
1.072591
 30
0.0
 10
2.758289
 20
1.044442
 30
0.0
 10
2.800623
 20
1.036021
 30
0.0
 10
2.837402
 20
1.051256
 30
0.0
  0
SPLINE
  5
3bf
100
AcDbEntity
  8
Lights
 62
7
100
AcDbSpline
 70
8
 71
3
 72
8
 73
4
 74
0
 40
0
 40
0
 40
0
 40
0
 40
1
 40
1
 40
1
 40
1
 10
2.837402
 20
1.051256
 30
0.0
 10
2.874181
 20
1.066490
 30
0.0
 10
2.898162
 20
1.102379
 30
0.0
 10
2.898162
 20
1.142189
 30
0.0
  0
SPLINE
  5
3c0
100
AcDbEntity
  8
Lights
 62
7
100
AcDbSpline
 70
8
 71
3
 72
8
 73
4
 74
0
 40
0
 40
0
 40
0
 40
0
 40
1
 40
1
 40
1
 40
1
 10
2.898162
 20
1.142189
 30
0.0
 10
2.898162
 20
1.168293
 30
0.0
 10
2.887792
 20
1.193327
 30
0.0
 10
2.869334
 20
1.211786
 30
0.0
  0
SPLINE
  5
3c1
100
AcDbEntity
  8
Lights
 62
7
100
AcDbSpline
 70
8
 71
3
 72
8
 73
4
 74
0
 40
0
 40
0
 40
0
 40
0
 40
1
 40
1
 40
1
 40
1
 10
2.869334
 20
1.211786
 30
0.0
 10
2.850875
 20
1.230244
 30
0.0
 10
2.825840
 20
1.240614
 30
0.0
 10
2.799736
 20
1.240614
 30
0.0
  0
LWPOLYLINE
  5
3c2
100
AcDbEntity
  8
Lights
 62
7
100
AcDbPolyline
 90
1
 70
1
 10
2.799736
 20
1.256362
 30
0.0
  0
SPLINE
  5
3c3
100
AcDbEntity
  8
Lights
 62
7
100
AcDbSpline
 70
8
 71
3
 72
8
 73
4
 74
0
 40
0
 40
0
 40
0
 40
0
 40
1
 40
1
 40
1
 40
1
 10
2.035772
 20
-0.189859
 30
0.0
 10
1.989593
 20
-0.189859
 30
0.0
 10
1.947961
 20
-0.217676
 30
0.0
 10
1.930290
 20
-0.260340
 30
0.0
  0
SPLINE
  5
3c4
100
AcDbEntity
  8
Lights
 62
7
100
AcDbSpline
 70
8
 71
3
 72
8
 73
4
 74
0
 40
0
 40
0
 40
0
 40
0
 40
1
 40
1
 40
1
 40
1
 10
1.930290
 20
-0.260340
 30
0.0
 10
1.912618
 20
-0.303003
 30
0.0
 10
1.922386
 20
-0.352111
 30
0.0
 10
1.955039
 20
-0.384765
 30
0.0
  0
SPLINE
  5
3c5
100
AcDbEntity
  8
Lights
 62
7
100
AcDbSpline
 70
8
 71
3
 72
8
 73
4
 74
0
 40
0
 40
0
 40
0
 40
0
 40
1
 40
1
 40
1
 40
1
 10
1.955039
 20
-0.384765
 30
0.0
 10
1.987692
 20
-0.417418
 30
0.0
 10
2.036800
 20
-0.427186
 30
0.0
 10
2.079464
 20
-0.409514
 30
0.0
  0
SPLINE
  5
3c6
100
AcDbEntity
  8
Lights
 62
7
100
AcDbSpline
 70
8
 71
3
 72
8
 73
4
 74
0
 40
0
 40
0
 40
0
 40
0
 40
1
 40
1
 40
1
 40
1
 10
2.079464
 20
-0.409514
 30
0.0
 10
2.122128
 20
-0.391842
 30
0.0
 10
2.149945
 20
-0.350211
 30
0.0
 10
2.149945
 20
-0.304032
 30
0.0
  0
SPLINE
  5
3c7
100
AcDbEntity
  8
Lights
 62
7
100
AcDbSpline
 70
8
 71
3
 72
8
 73
4
 74
0
 40
0
 40
0
 40
0
 40
0
 40
1
 40
1
 40
1
 40
1
 10
2.149945
 20
-0.304032
 30
0.0
 10
2.149945
 20
-0.273751
 30
0.0
 10
2.137916
 20
-0.244711
 30
0.0
 10
2.116505
 20
-0.223299
 30
0.0
  0
SPLINE
  5
3c8
100
AcDbEntity
  8
Lights
 62
7
100
AcDbSpline
 70
8
 71
3
 72
8
 73
4
 74
0
 40
0
 40
0
 40
0
 40
0
 40
1
 40
1
 40
1
 40
1
 10
2.116505
 20
-0.223299
 30
0.0
 10
2.095093
 20
-0.201888
 30
0.0
 10
2.066052
 20
-0.189859
 30
0.0
 10
2.035772
 20
-0.189859
 30
0.0
  0
LWPOLYLINE
  5
3c9
100
AcDbEntity
  8
Lights
 62
7
100
AcDbPolyline
 90
1
 70
1
 10
2.799736
 20
1.240614
 30
0.0
  0
SPLINE
  5
3ca
100
AcDbEntity
  8
Lights
 62
7
100
AcDbSpline
 70
8
 71
3
 72
8
 73
4
 74
0
 40
0
 40
0
 40
0
 40
0
 40
1
 40
1
 40
1
 40
1
 10
2.035772
 20
-0.205607
 30
0.0
 10
1.995963
 20
-0.205607
 30
0.0
 10
1.960073
 20
-0.229587
 30
0.0
 10
1.944839
 20
-0.266366
 30
0.0
  0
SPLINE
  5
3cb
100
AcDbEntity
  8
Lights
 62
7
100
AcDbSpline
 70
8
 71
3
 72
8
 73
4
 74
0
 40
0
 40
0
 40
0
 40
0
 40
1
 40
1
 40
1
 40
1
 10
1.944839
 20
-0.266366
 30
0.0
 10
1.929604
 20
-0.303145
 30
0.0
 10
1.938025
 20
-0.345480
 30
0.0
 10
1.966175
 20
-0.373629
 30
0.0
  0
SPLINE
  5
3cc
100
AcDbEntity
  8
Lights
 62
7
100
AcDbSpline
 70
8
 71
3
 72
8
 73
4
 74
0
 40
0
 40
0
 40
0
 40
0
 40
1
 40
1
 40
1
 40
1
 10
1.966175
 20
-0.373629
 30
0.0
 10
1.994324
 20
-0.401778
 30
0.0
 10
2.036659
 20
-0.410199
 30
0.0
 10
2.073438
 20
-0.394965
 30
0.0
  0
SPLINE
  5
3cd
100
AcDbEntity
  8
Lights
 62
7
100
AcDbSpline
 70
8
 71
3
 72
8
 73
4
 74
0
 40
0
 40
0
 40
0
 40
0
 40
1
 40
1
 40
1
 40
1
 10
2.073438
 20
-0.394965
 30
0.0
 10
2.110217
 20
-0.379731
 30
0.0
 10
2.134197
 20
-0.343841
 30
0.0
 10
2.134197
 20
-0.304032
 30
0.0
  0
SPLINE
  5
3ce
100
AcDbEntity
  8
Lights
 62
7
100
AcDbSpline
 70
8
 71
3
 72
8
 73
4
 74
0
 40
0
 40
0
 40
0
 40
0
 40
1
 40
1
 40
1
 40
1
 10
2.134197
 20
-0.304032
 30
0.0
 10
2.134197
 20
-0.277928
 30
0.0
 10
2.123827
 20
-0.252893
 30
0.0
 10
2.105369
 20
-0.234435
 30
0.0
  0
SPLINE
  5
3cf
100
AcDbEntity
  8
Lights
 62
7
100
AcDbSpline
 70
8
 71
3
 72
8
 73
4
 74
0
 40
0
 40
0
 40
0
 40
0
 40
1
 40
1
 40
1
 40
1
 10
2.105369
 20
-0.234435
 30
0.0
 10
2.086911
 20
-0.215976
 30
0.0
 10
2.061876
 20
-0.205607
 30
0.0
 10
2.035772
 20
-0.205607
 30
0.0
  0
LWPOLYLINE
  5
3d0
100
AcDbEntity
  8
Lights
 62
7
100
AcDbPolyline
 90
1
 70
1
 10
2.035772
 20
-0.189859
 30
0.0
  0
LWPOLYLINE
  5
3d1
100
AcDbEntity
  8
Lights
 62
7
100
AcDbPolyline
 90
1
 70
1
 10
2.035772
 20
-0.205607
 30
0.0
  0
ENDSEC
  0
SECTION
  2
OBJECTS
  0
DICTIONARY
  5
C
330
0
100
AcDbDictionary
  3
ACAD_GROUP
350
D
  3
ACAD_MLINESTYLE
350
17
  0
DICTIONARY
  5
D
330
C
100
AcDbDictionary
  0
DICTIONARY
  5
1A
330
C
100
AcDbDictionary
  0
DICTIONARY
  5
17
330
C
100
AcDbDictionary
  3
STANDARD
350
18
  0
DICTIONARY
  5
19
330
C
100
AcDbDictionary
  0
ENDSEC
  0
EOF
